<svg width="507" height="212" viewBox="0 0 507 212" fill="none" xmlns="http://www.w3.org/2000/svg">
<path d="M33.389 64.0878C50.0625 62.4022 78.2343 78.5726 95.6845 74.6962C100.972 73.5216 97.8099 68.1063 98.3969 66.8337L98.9564 66.7371C105.984 69.2182 101.837 80.0505 96.8748 81.8982C85.7361 86.0458 72.9303 81.1227 62.4361 77.1509C62.5823 78.862 62.7523 80.0308 63.0603 81.7205C64.4412 83.0357 64.8269 83.3336 66.4723 84.2929C65.5712 84.7141 64.4272 85.2013 63.7619 85.9664C62.2522 87.7021 62.4234 117.627 62.8283 121.752C67.6412 125.76 71.1083 136.746 69.4504 142.966C68.4011 146.904 64.5966 146.767 63.1482 143.709C62.9904 142.698 63.5244 141.985 64.0235 141.075C61.3871 129.333 47 120.598 35.4004 121.441C34.2208 121.527 32.556 121.513 31.71 122.431C31.415 123.711 31.8721 123.849 32.1372 125.083C32.4777 126.669 30.0916 128.108 30.4518 129.78C30.5991 129.894 30.7465 130.007 30.8938 130.121C32.4003 129.713 36.3442 128.713 37.8179 128.806C43.4818 129.222 50.4012 131.951 54.5708 135.928C68.2421 148.967 68.3431 174.032 55.6341 187.725C47.9942 195.956 39.3249 197.998 28.6689 198.379C30.1472 202.192 30.3607 203.532 33.0778 206.613C33.3562 205.813 33.561 205.284 33.9151 204.511C34.8438 203.86 34.4126 204.013 35.551 203.938C41.5089 207.843 27.7884 218.176 21.4539 197.775C8.37546 194.424 0.605602 185.714 0 171.958C0.0066709 163.733 1.50037 157.869 6.62797 151.218C13.3685 141.559 22.141 142.997 32.5427 143.212C34.9749 143.263 40.705 143.605 42.4095 141.428C38.0731 139.515 41.0736 136.244 44.1141 137.888C45.9686 138.891 46.7984 142.268 45.8787 144.12C42.7228 150.478 36.8022 155.182 33.1207 161.267C26.9182 171.786 25.7511 184.106 28.2295 195.871C34.7618 195.723 42.9751 194.405 48.0418 189.97C54.8969 183.851 58.9942 176.82 59.9818 167.529C61.3447 154.71 54.4922 138.516 40.6336 135.903C37.4136 135.296 38.2109 139.441 34.4317 139.016C29.0054 138.405 31.1943 135.837 29.9787 134.306C26.2636 137.37 23.195 138.529 18.2542 136.647C11.4061 134.039 10.3593 125.534 12.9639 119.462C14.9356 114.865 18.8917 111.941 23.4729 110.096C32.6813 106.484 41.5568 107.77 50.4552 111.534C50.6756 105.149 50.8053 93.0681 50.1602 86.4115C50.0692 85.4707 48.1955 84.6795 47.2595 84.2332C48.2062 83.6102 49.5198 82.4583 50.4276 81.7097C50.5628 78.5607 50.5297 75.5833 50.5001 72.4354C42.8246 71.3194 37.9522 68.7296 30.763 72.865C29.3006 77.4305 28.5085 84.0705 35.7955 84.1488C37.2781 84.1647 38.706 83.3921 40.0257 82.7106C38.6335 91.8828 31.7506 95.0835 23.4241 90.2329C17.434 86.743 16.8237 75.6724 20.9121 70.4903C24.035 66.5318 28.3649 64.8781 33.389 64.0878Z" fill="#24362A"/>
<path d="M26.5879 144.654C30.8251 144.486 34.4711 148.31 31.6473 152.325C30.4877 153.973 28.7228 152.669 27.7579 153.619C27.7538 155.158 28.3774 157.001 29.8789 157.62C30.6473 156.755 31.2537 155.906 32.4501 155.984C32.817 156.456 33.0958 158.04 32.5954 158.279C27.9795 160.475 25.8378 164.586 23.6811 169.018L19.6588 168.939L8.729 168.76C9.58085 164.853 10.815 160.973 13.6304 158.041C17.3406 154.178 21.5786 154.498 26.4637 154.36C24.7078 153.448 23.5155 153.05 22.7979 151.033C21.6468 147.797 23.5752 145.675 26.5879 144.654Z" fill="#ffffff"/>
<path d="M32.6344 113.931C35.1209 113.716 37.6558 113.903 40.1278 114.162L38.5619 117.317C33.8804 117.267 28.5834 117.271 27.4172 122.631C26.8 125.468 26.4919 125.252 24.0121 125.638C21.9543 126.921 21.6396 127.887 20.543 130.02C18.7276 120.221 23.6037 115.814 32.6344 113.931Z" fill="#ffffff"/>
<path d="M13.7635 186.224L20.1783 186.152C20.1316 188.767 20.3993 191.331 20.6244 193.934L20.3384 194.108L18.9862 193.765C18.3882 193.514 17.8023 193.236 17.2306 192.93C15.8381 192.188 10.2192 187.925 11.1064 186.317L13.7635 186.224Z" fill="#ffffff"/>
<path d="M8.36475 179.128L20.5185 179.162L20.3915 182.913L9.16989 182.942C8.87638 181.707 8.62491 180.378 8.36475 179.128Z" fill="#ffffff"/>
<path d="M7.88501 172.721C11.0409 172.728 19.12 172.486 21.6526 172.861C21.9017 173.809 21.6497 174.067 21.3733 175.157C20.4037 175.605 9.86308 175.404 8.27946 175.308C7.81105 174.747 7.90589 173.532 7.88501 172.721Z" fill="#ffffff"/>
<path d="M56.4228 122.677C59.5851 123.081 67.4924 137.427 65.9082 138.982C64.1712 134.517 61.441 129.693 57.7059 126.566C56.9013 125.892 56.4207 125.526 55.7574 124.679C55.6684 123.638 55.8247 123.765 56.4228 122.677Z" fill="#ffffff"/>
<path d="M47.5318 117.173C48.3851 117.336 49.2892 117.382 49.7988 118.054C49.8997 119.273 49.7141 119.175 49.1273 120.445C48.0945 120.653 47.5066 120.433 46.8995 119.645C46.7186 118.611 47.0669 118.122 47.5318 117.173Z" fill="#ffffff"/>
<path d="M43.0265 115.364C43.7554 115.45 43.8517 115.464 44.4723 115.852C44.6989 116.968 44.256 117.478 43.7803 118.669C42.6602 118.41 42.4186 118.349 41.9319 117.383C41.9751 116.553 42.5125 116.017 43.0265 115.364Z" fill="#ffffff"/>
<path d="M52.1202 119.812C53.2334 120.326 53.165 120.098 53.7624 120.986C53.7697 121.819 53.3036 122.222 52.7633 122.906C51.9613 122.756 51.724 122.757 51.146 122.163C51.175 121.042 51.4781 120.92 52.1202 119.812Z" fill="#ffffff"/>
<path d="M471.934 64.088C477.068 63.6347 481.331 64.0494 485.943 66.5068C493.061 70.2991 496.187 79.0049 491.967 86.2291C490.268 89.1455 487.451 91.2444 484.171 92.0428C476.198 93.9845 473.437 89.6838 471.859 82.7978C473.866 83.8144 475.069 84.4115 477.34 84.0171C478.97 83.748 480.426 82.8335 481.375 81.4803C483.457 78.469 482.387 74.2097 479.327 72.3159C474.953 69.6118 469.643 70.7573 464.956 71.7753C464.767 84.6833 464.727 97.5932 464.843 110.502C465.495 110.36 466.154 110.234 466.812 110.124C477.277 108.298 492.396 110.865 494.995 123.423C496.44 130.41 494.096 138.011 486.039 138.889C482.144 139.313 480.406 137.865 477.445 135.616C477.227 136.936 476.946 138.734 475.76 139.477C471.557 143.084 468.593 136.883 466.786 137.123C454.497 138.75 448.084 153.174 447.321 162.677C446.654 171.898 449.645 181.011 455.648 188.043C461.748 195.141 470.319 196.755 479.118 197.395C479.374 195.855 479.609 194.311 479.826 192.764C481.311 181.673 479.087 169.588 472.494 160.421C469.907 156.822 467.346 154.206 464.651 150.946C463.169 148.704 460.562 145.408 460.939 142.596C461.342 139.603 464.976 137.239 467.085 140.282C467.917 141.484 465.504 141.947 465.092 142.963C467.842 146.153 485.375 143.626 490.192 145.164C505.857 150.164 508.604 167.794 505.477 181.537C502.876 192.175 495.015 196.81 485.119 199.304C484.913 203.597 482.471 207.64 478.947 210.101C476.9 211.529 472.535 212.26 470.925 209.776C470.153 208.584 470.304 206.245 471.917 205.713C472.738 205.442 472.7 205.483 473.335 205.803C473.489 206.536 473.489 206.719 473.854 207.359L474.307 207.274C476.064 206.047 477.86 202.199 478.373 200.058C470.53 199.242 463.334 198.342 456.617 193.585C441.158 182.642 437.715 160.157 446.721 144.065C451.321 135.845 467.001 126.034 475.916 132.27L476.392 132.073C477.72 130.335 475.948 128.968 474.716 127.642C474.356 125.426 474.446 125.5 476.038 124.152L475.832 123.745C474.109 122.524 471.998 122.575 469.884 122.537C461.354 122.45 453.551 127.829 447.591 133.417C444.537 136.261 443.728 139.605 444.093 143.593C444.259 145.408 442.843 147.807 441.077 147.458C437.596 146.77 437.051 141.075 437.538 138.456C439.334 128.783 444.813 120.839 452.922 115.39C452.844 102.366 453.195 88.8413 452.879 75.9075C440.816 79.9495 434.154 84.3756 420.589 83.2465C405.132 81.96 407.557 65.6881 413.694 66.7913C414.44 69.0926 410.588 69.6941 415.089 74.4017C429.789 78.7677 456.147 65.6828 471.934 64.088Z" fill="#24362A"/>
<path d="M478.791 146.143C479.435 146.158 480.076 146.225 480.711 146.344C482.045 146.598 483.22 147.378 483.974 148.507C486.076 151.677 483.803 153.989 481.273 155.573C486.546 155.838 491.138 155.548 494.502 160.513C496.587 163.591 497.666 166.712 498.505 170.306C496.387 170.181 492.901 170.331 490.682 170.355L483.747 170.449C482.422 167.442 479.562 162.214 476.343 160.723C475.29 160.236 475.139 160.65 474.443 159.545C474.382 158.672 474.35 158.518 474.782 157.77C475.554 157.422 475.209 157.444 476.076 157.737C476.386 158.315 476.549 158.712 476.789 159.321L477.393 159.489C478.799 158.828 479.556 156.765 479.388 155.288C478.791 154.479 477.108 154.353 476.067 153.891C474.02 152.982 474.072 150.579 474.852 148.778C475.484 147.325 477.32 146.624 478.791 146.143Z" fill="#ffffff"/>
<path d="M468.32 115.425L468.532 115.402C469.689 115.281 471.534 115.153 472.651 115.232C478.037 115.611 484.96 118.358 486.607 124.002C487.184 125.978 487.24 129.052 485.897 130.676C484.51 127.028 484.336 127.193 480.563 126.605C480 118.186 475.316 119.69 469.106 118.584C467.772 118.346 467.021 117.193 467.441 115.819L468.32 115.425Z" fill="#ffffff"/>
<path d="M486.952 187.636L496.181 187.661C495.01 190.133 494.56 191.018 492.524 192.837C490.691 193.914 488.13 194.898 486.117 195.72C486.506 192.836 486.767 190.561 486.952 187.636Z" fill="#ffffff"/>
<path d="M484.884 173.889C487.579 173.847 497.031 173.566 499.053 173.994C499.497 174.768 499.346 175.905 499.314 176.835C496.831 176.808 487.521 177.103 485.752 176.627C485.111 175.973 485.041 174.831 484.884 173.889Z" fill="#ffffff"/>
<path d="M486.459 180.607C488.632 180.589 496.704 180.385 498.438 180.74C498.815 181.543 498.481 182.493 498.29 183.422C497.214 183.825 488.043 183.872 486.897 183.506C486.396 182.757 486.483 181.549 486.459 180.607Z" fill="#ffffff"/>
<path d="M450.416 123.961C451.289 124.073 450.956 123.949 451.73 124.72C451.829 125.232 451.994 125.728 451.553 126.116C446.164 130.836 444.673 133.098 441.773 139.487L441.373 139.993L441.178 139.812C441.721 134.46 446.434 127.609 450.416 123.961Z" fill="#ffffff"/>
<path d="M458.737 118.605C459.863 119.161 460.185 119.507 460.536 120.675C460.373 121.714 460.057 121.883 459.265 122.579C458.369 122.202 457.905 121.546 457.618 120.641C457.815 119.248 457.635 119.732 458.737 118.605Z" fill="#ffffff"/>
<path d="M77.9149 88.1917C85.4846 88.0426 93.3354 88.1946 100.943 88.1058C104.427 88.0649 111.979 87.9666 115.221 88.3503L115.423 88.716C114.821 89.484 113.548 89.7961 112.585 90.1345C113.569 91.0887 114.676 92.1145 115.571 93.1386C123.935 102.71 121.902 117.836 112.636 126.052C111.692 126.889 110.535 128.266 109.654 129.232C111.596 129.885 114.24 130.39 116.293 130.839C117.373 135.712 119.951 148.296 121.494 152.414C122.111 153.152 122.998 153.017 124.102 153.466C124.105 154.36 122.997 154.196 122.095 155.517C121.666 156.844 122.055 159.687 122.709 160.889C125.073 165.229 129.754 164.334 133.316 162.603C135.738 158.884 136.026 157.017 133.239 153.782L133.416 153.352L135.199 152.736C138.764 149.153 144.096 106.959 146.456 98.9277C147.84 94.2154 141.153 90.5533 141.534 88.4077C143.84 87.9289 164.774 88.0902 167.766 88.3408C166.473 88.9501 164.981 89.3494 163.849 90.221C161.675 91.9277 161.859 93.9933 162.183 96.4178C162.778 100.873 163.884 105.186 164.762 109.58L169.899 135.195C170.972 140.429 171.8 146.275 173.276 151.358C173.922 153.582 175.481 152.636 176.352 153.751L174.002 155.57C173.947 158.628 174.583 160.243 176.074 162.754C177.522 163.52 179.368 163.674 180.383 164.927C179.67 165.597 175.47 165.413 174.322 165.412C168.877 165.41 161.799 165.629 156.521 165.189C158.392 164.267 160.323 164.362 161.57 162.376C162.625 160.695 161.644 157.677 161.149 155.805C160.233 155.119 158.599 154.176 157.581 153.546C158.485 153.26 159.156 153.137 159.801 152.447C160.934 150.115 159.464 145.672 158.845 143.006L154.183 143.627C155.173 143.115 156.239 142.604 156.9 141.681C157.579 140.714 157.84 139.515 157.623 138.354C157.387 137.179 156.683 136.15 155.674 135.503C154.607 134.82 153.305 134.611 152.079 134.926C148.891 135.724 147.77 139.368 147.187 142.205C146.658 144.776 145.117 149.572 145.831 152.069C146.317 152.879 147.134 153.046 148.04 153.374C147.862 154.477 143.664 156.055 143.414 159.33C143.019 164.491 147.013 163.123 148.454 164.974C147.483 165.689 107.922 165.672 103.91 165.116C106.021 164.195 108.924 164.122 110.014 162.088C112.008 158.369 105.92 154.126 105.719 153.422C106.54 153.012 106.706 152.916 107.437 152.332C108.184 150.977 104.564 134.97 104.102 131.958C101.508 132.489 98.5828 132.726 95.9278 133.003C95.9046 137.794 95.5679 147.219 96.739 151.986C97.0076 153.079 98.6704 152.778 99.2499 153.695C98.4604 155.823 94.5901 155.938 96.2834 160.724C97.5332 164.257 98.1828 162.893 100.984 164.44L101.124 164.933L100.689 165.23C99.2383 165.45 79.5261 165.558 78.6287 165.3L78.3946 164.844C79.308 163.641 81.1958 163.701 82.2174 162.639C82.7449 162.09 82.9799 161.298 83.1513 160.573C84.0701 156.687 80.6683 154.241 80.7933 153.753C81.0064 152.922 82.6565 152.049 82.9671 150.918C83.8683 147.639 83.2435 134.313 83.1823 129.845C76.6213 122.549 76.9297 114.874 83.095 107.503C83.2357 103.746 83.991 102.066 80.3875 100.145C84.2282 96.4265 84.2305 93.9732 80.7863 89.971C79.6981 89.6815 78.8967 89.54 77.9636 88.9141L77.9149 88.1917Z" fill="#24362A"/>
<path d="M99.0536 91.3229C101.987 90.8351 104.505 91.7754 105.99 94.4552C108.954 99.8031 108.727 107.68 107.461 113.477C106.312 118.735 103.239 124.715 98.6957 127.785C94.3271 130.652 86.4311 129.248 83.8404 124.474C82.1669 121.391 82.1687 118.964 83.0515 115.718C83.8857 114.246 84.3381 113.873 85.547 112.753C88.0707 112.527 91.7051 112.046 92.5042 115.437C92.7037 116.31 92.5315 117.226 92.0288 117.967C91.0633 119.415 89.8219 119.458 88.2502 119.759L88.1893 120.269C91.3014 126.28 101.999 122.942 101.229 115.419C100.676 110.021 99.4213 110.246 95.9722 106.933C95.875 102.667 95.5595 102.658 98.9912 100.149C98.644 97.7768 92.336 95.3194 99.0536 91.3229Z" fill="#ffffff"/>
<path d="M152.325 112.55C153.257 112.967 156.051 126.949 155.626 127.776L154.527 127.841L149.95 127.708C150.956 122.586 151.601 117.716 152.325 112.55Z" fill="#ffffff"/>
<path d="M316.839 88.3476C320.725 87.9781 354.529 87.874 355.808 88.5877L355.823 88.8658C354.964 89.3914 354.576 89.6283 353.813 90.2849C353.801 91.1501 355.301 92.3696 355.953 93.1434C359.254 97.1187 361.064 102.122 361.067 107.29C361.159 117.411 356.794 122.505 350.187 129.27C352.67 130.001 353.906 130.287 356.464 130.633C357.537 135.569 358.564 140.765 359.767 145.65C360.983 150.577 360.548 151.056 364.527 153.47C364.318 154.233 363.256 155.175 362.653 155.797C362.807 158.654 362.862 162.239 365.742 163.493C366.807 163.71 368.222 163.844 368.935 164.593L368.741 165.012C366.383 165.77 355.759 165.402 352.632 165.398C349.784 165.472 346.823 165.526 344.009 165.119C345.294 164.578 349.184 163.85 349.819 162.934C350.796 161.527 350.248 156.665 348.897 155.518C348.325 155.034 346.727 154.004 345.996 153.518L346.031 153.225C346.875 153.035 347.061 152.994 347.864 152.589C349.033 151.003 344.755 135.882 344.259 132.075C341.715 132.561 338.806 132.7 336.199 132.889C336.231 136.781 335.857 149.526 337.304 152.419C338.145 153.171 339.52 153.304 340.66 153.53C337.518 155.028 335.709 156.128 336.471 160.085C336.973 162.693 339.76 163.725 341.823 164.952C340.929 165.535 319.788 165.839 319.086 164.838C319.846 163.933 321.589 163.569 322.796 163.158C323.594 160.998 324.455 157.706 322.895 155.702C322.28 154.916 321.685 154.695 321.241 153.72C322.019 153.166 323.582 151.87 323.588 150.804C323.614 144.095 324.356 136.436 323.292 129.863C322.932 127.642 318.532 123.271 318.805 120.244C317.729 110.96 325.067 111.373 323.495 102.982C323.161 101.208 322.927 101.264 321.633 100.351C321.34 99.4626 323.243 97.9281 323.544 96.8217C325.34 90.2614 320.917 89.8754 316.839 88.3476Z" fill="#24362A"/>
<path d="M365.742 163.493C366.807 163.71 368.222 163.844 368.935 164.593L368.741 165.012C366.383 165.77 355.759 165.402 352.632 165.398C354.219 164.27 364.289 165.907 365.968 164.138L365.742 163.493Z" fill="#363E34"/>
<path d="M340.051 91.0078C343.595 90.8677 346.072 92.5609 347.342 95.9451C349.903 102.771 349.227 111.274 346.455 117.924C344.639 122.276 341.762 126.704 337.231 128.51C332.132 130.561 325.511 128.577 323.605 123.142C322.726 120.633 322.573 117.683 323.652 115.224C325.804 112.24 330.772 110.741 332.898 114.528C335.184 118.604 329.435 118.764 328.687 120.696C328.858 121.037 329.415 121.97 329.743 122.126C336.251 125.234 342.481 121.639 341.399 114.093C340.895 110.582 339.041 109.113 336.402 107.212C336.309 102.785 335.952 101.859 340.14 100.018C336.091 97.1815 334.795 93.352 340.051 91.0078Z" fill="#ffffff"/>
<path d="M268.86 0C271.639 0.256958 284.894 -0.309163 286.211 0.540598C285.706 1.62615 283.11 1.18416 282.225 2.80566C279.786 7.27256 283.391 9.29488 283.809 11.1681C283.078 11.729 282.742 12.0243 282.095 12.6794C280.552 17.5854 281.181 52.3693 281.712 59.635C281.831 61.2376 282.863 61.7419 284 62.4621C284.027 63.5061 282.069 64.152 281.851 65.2086C280.824 70.21 281.845 71.5826 286.103 73.0809L286.237 73.5615C285.427 74.2645 264.234 73.8886 261.766 73.7598C264.872 72.4379 269.87 72.2729 268.62 66.976C268.002 64.3721 266.958 63.8347 264.774 62.5966C265.87 62.2405 266.238 62.1158 267.239 61.5601C269.301 59.217 268.509 25.1576 268.396 19.7664C265.377 25.617 263.379 32.7918 261.169 38.8964C258.442 46.4283 255.304 54.2246 252.363 61.7106C247.316 49.6295 243.184 38.4919 238.535 26.3617C237.684 24.2704 236.766 22.2066 235.782 20.1744C235.978 27.949 234.688 55.6248 236.947 60.8774C237.525 62.224 238.966 61.7243 239.638 62.735C238.608 63.5824 236.833 64.7799 236.623 65.9496C235.286 73.404 240.235 71.777 241.26 73.5232C240.277 74.29 224.419 73.9092 222.085 73.6653C224.619 72.3854 227.357 72.7723 228.478 69.7848C229.96 65.8353 226.974 65.1108 225.892 62.8446C226.838 62.1219 228.644 60.6581 228.691 59.3127C229.162 45.7174 229.048 32.0685 228.901 18.4613C228.886 17.0367 228.789 13.0272 227.558 11.9375C227.44 11.8328 226.441 11.7168 225.873 11.1957C228.039 8.75312 230.694 5.53679 227.659 2.54493L227.537 2.42632C226.182 1.08062 224.833 1.9356 223.696 0.968671L223.727 0.366876C225.08 -0.0768557 239.214 0.111658 241.528 0.116009C243.619 7.96049 246.806 14.7922 249.753 22.3183C251.623 27.0978 253.274 31.8486 255.139 36.6337C257.537 30.8495 259.628 25.0891 261.737 19.2174C263.413 14.5434 266.63 4.0252 268.86 0Z" fill="#24362A"/>
<path d="M112.689 0.29141C115.44 0.140309 134.455 -0.41682 135.388 0.83317C134.544 1.5588 132.918 1.67916 131.762 1.87405C130.887 5.13534 130.907 6.18405 131.615 9.43083C132.45 10.0323 132.885 10.3282 133.594 11.0718C132.361 11.8522 131.385 11.74 131.22 13.5094C130.84 17.5964 130.935 21.6981 130.935 25.8025C131.192 25.8379 131.449 25.8814 131.704 25.933C138.917 27.3927 143.559 31.0467 147.514 37.0591L147.526 22.2933C147.516 19.6355 147.478 16.7272 147.261 14.061C147.155 12.762 145.694 11.8255 144.678 11.1121C146.306 9.22057 148.255 7.0544 147.359 4.43667C146.505 1.94134 144.203 1.67046 142.163 0.599411L142.388 0.385666C144.767 0.0849143 163.69 -0.241938 164.485 0.641465L164.326 1.11246C163.468 1.43264 162.411 1.54169 161.65 1.92712C157.903 3.82589 160.943 8.69099 162.237 11.0915C159.319 15.7054 159.982 13.1475 159.821 19.1257C159.71 23.6549 159.667 28.1853 159.692 32.716L159.747 49.213C159.768 52.5671 159.727 55.9653 160.057 59.3095C160.24 61.1563 161.007 61.4278 162.526 62.6061C162.321 64.2337 157.934 66.6334 160.66 70.7641C161.974 72.7554 164.503 72.9845 166.529 73.6133C162.958 74.1397 144.356 74.0005 140.672 73.6786C143.091 72.7868 147.386 72.3071 147.653 69.0414C147.859 66.5191 146.135 64.4742 144.601 62.6737C146.304 61.8727 146.498 61.9878 147.062 60.4353C148.224 50.1103 145.806 36.359 135.351 31.513C129.206 28.6647 119.776 28.04 116.24 35.0878C113.968 39.6174 117.873 45.8983 122.993 43.9703C124.787 43.3166 126.008 41.3557 125.124 39.4628C124.085 37.2386 122.169 38.4889 121.291 36.5666C121.662 35.0637 124.968 33.7166 126.35 33.7659C128.493 33.8422 129.885 35.1916 131.253 36.687C133.088 43.3357 129.042 54.3176 131.566 61.5267C131.78 62.1392 132.903 61.8431 133.572 62.676C130.264 65.8796 130.524 67.5031 131.645 71.8143C133.513 72.352 135.376 72.7757 137.007 73.8317C130.718 74.0573 124.332 73.8555 118.033 73.9315C115.764 73.9587 113.347 73.9405 111.096 73.6925C116.986 71.6258 118.564 72.5475 117.869 65.3146C116.61 64.031 115.615 63.6143 114.034 62.8796C115.287 62.5844 116.394 62.1758 117.604 61.752C118.197 58.6743 118.132 52.3296 118.148 48.9566C111.914 45.492 109.759 39.9378 112.873 33.0516C113.911 30.7569 116.197 28.9672 118.096 27.3489C118.137 23.0708 118.296 18.7388 117.98 14.4743C117.77 11.6489 117.004 12.5146 115.331 11.1101C117.203 8.23131 119.414 8.13531 117.767 3.52282C116.613 0.288797 113.44 2.66117 112.689 0.29141Z" fill="#24362A"/>
<path d="M399.77 88.182C403.459 88.0141 407.754 88.1817 411.507 88.1046C415.667 88.0187 420.081 87.9877 424.229 88.0161C429.452 88.0518 434.415 89.8366 438.003 93.7452C442.02 98.121 443.589 104.594 443.328 110.436C443.011 117.55 440.836 123.317 435.56 128.202C430.157 133.208 424.243 133.346 417.271 133.047C417.285 137.484 417.178 147.93 418.576 152.099C418.961 153.25 420.586 152.82 421.201 153.826L420.531 154.136C416.47 156.42 416.56 162.799 421.337 163.941C422.419 164.201 423.599 164.673 424.632 165.087C419.22 165.952 406.809 165.14 400.706 165.378C400.063 165.403 399.926 165.173 399.639 164.781C400.205 164.172 402.777 163.446 403.787 163.064C404.155 161.911 404.59 160.415 404.744 159.237C405.193 155.738 403.673 155.811 402.151 153.886C402.209 152.726 403.294 153.609 404.143 152.329C404.935 148.848 405.237 106.619 404.59 103.744C404.256 102.274 403.763 101.11 402.458 100.295L402.261 100.173L402.212 99.8855L403.99 98.2504C405.82 92.889 404.721 91.0892 399.92 88.9111L399.77 88.182Z" fill="#24362A"/>
<path d="M421.563 90.9808C422.555 90.955 423.732 90.9776 424.577 91.5322C432.071 96.4701 431.366 110.519 429.757 118.039C428.765 122.674 425.858 128.555 421.322 129.849C413.677 132.032 407.435 123.337 411.371 116.648C415.356 112.791 418.999 114.497 417.874 120.222C417.656 121.331 415.539 121.112 414.414 121.463L414.454 122.063C417.424 125.685 420.377 124.33 423.695 122.279C425.029 118.028 425.128 117.413 423.721 113.144C421.374 111.045 420.586 110.674 417.679 109.59C417.65 108.022 417.297 103.087 418.23 101.965C418.538 101.593 420.139 100.713 420.6 100.022C417.024 96.0049 415.339 93.6139 421.563 90.9808Z" fill="#ffffff"/>
<path d="M182.504 88.1917C189.22 88.0971 195.937 88.136 202.652 88.3083C200.764 90.426 199.068 92.6029 199.934 95.6159C203.065 106.52 209.094 116.246 213.015 126.862C213.939 129.363 215.366 132.084 216.526 134.49C216.867 125.596 217.09 111.149 216.136 101.956C216.018 100.816 213.959 99.9749 212.874 99.4622C214.402 98.2386 215.917 96.9077 216.251 94.8912C216.804 91.5406 213.413 90.52 212.163 88.7932C213.536 87.6673 227.633 88.2068 230.227 88.3672C228.11 89.422 226.139 89.7555 224.692 91.906C222.452 95.2314 225.031 97.5779 227.566 99.3401C224.639 100.85 223.997 101.396 223.791 104.835C223.638 107.394 223.554 109.961 223.56 112.528C223.592 125.316 223.039 138.243 224.044 150.985C224.121 151.954 226.393 153.162 227.164 153.585C225.216 155.167 222.883 157.563 223.614 160.308C224.263 162.744 226.844 163.42 228.706 164.506L228.764 164.99C227.665 165.648 219.252 165.314 217.321 165.284C214.67 165.337 212.471 165.354 209.806 165.223C211.096 164.254 213.678 162.994 214.21 161.599C215.974 156.968 211.23 155.302 210.543 153.243C210.895 152.921 211.202 152.713 211.59 152.436C211.823 150.934 206.825 142.024 205.96 139.921C202.027 130.365 197.69 120.716 193.192 111.426C193.176 117.288 192.282 149.078 194.25 152.335C195.039 153.115 196.457 153.316 197.575 153.588C195.699 154.657 193.819 155.858 193.25 158.166C192.343 161.853 197.129 163.364 197.987 164.835L197.529 165.169C195.549 165.523 183.244 165.701 181.806 164.898L181.756 164.451C182.433 163.484 183.828 163.08 184.958 162.619C184.989 162.533 185.019 162.447 185.048 162.36C185.862 159.988 186.398 158.084 184.628 155.898C183.962 155.075 183.46 154.835 182.985 153.867C183.54 153.084 184.23 153.042 185.269 152.665C185.707 151.223 186.073 149.357 186.101 147.828C186.373 132.951 186.412 118 186.066 103.123C186.035 101.761 184.247 100.401 183.267 99.5884C183.379 98.0776 186.542 96.7119 186.359 94.3984C186.139 91.6299 183.554 90.6308 181.646 88.8825L181.697 88.386L182.504 88.1917Z" fill="#24362A"/>
<path d="M343.296 0.296001C344.949 0.0254119 349.297 0.108068 351.113 0.107198C355.881 0.0712349 360.646 0.110098 365.411 0.224076C364.437 0.883293 362.349 2.13734 362.265 3.40067C361.772 10.7997 368.637 21.5055 371.357 28.0667C374.104 34.6928 375.995 39.1602 379.226 44.7823C379.238 39.4479 379.905 15.4313 378.144 12.3261C377.628 11.4139 375.754 11.0935 374.8 10.8243C377.132 9.53606 378.034 8.96472 378.652 6.11179C379.638 1.55759 374.719 1.83601 373.884 0.638226L374.168 0.265548C376.279 -0.00562126 388.507 0.0929864 390.723 0.316882L390.915 0.714502C389.885 1.71362 388.249 1.2464 386.915 2.65445C384.348 5.36295 386.959 8.42992 389.16 10.4749C388.809 11.1399 387.431 11.7524 386.692 12.1558C385.462 17.726 385.911 28.5284 385.83 34.5738C385.827 42.5166 385.804 50.4621 385.914 58.404C385.952 61.1693 387.356 61.3819 389.024 62.946C383.843 68.2081 385.259 70.2104 391.141 73.4595L390.92 73.6881C388.586 74.0138 386.3 73.9352 383.948 73.914C380.398 73.9317 375.453 74.079 372.048 73.7423C374.977 72.1495 377.486 72.0796 377.065 68.1513C376.761 65.2818 374.072 65.0286 373.185 62.486C373.347 61.919 373.678 60.9011 373.443 60.3671C371.157 55.1479 368.495 50.0923 366.018 44.9508C364.422 41.6422 363.181 38.1945 361.629 34.9167C359.677 30.7946 357.566 26.919 355.765 22.7027C355.425 34.3314 355.193 47.1407 355.916 58.7587C356.177 62.9431 357.36 61.4037 359.245 62.944C358.074 64.0295 356.116 65.6824 355.962 67.2885C355.457 72.5364 359.857 72.1388 360.867 73.4845L360.646 73.8116C358.442 73.9842 344.975 74.3487 343.659 73.3717C344.308 72.3514 350.446 71.4543 348.291 66.3392C347.342 64.0925 346.672 63.9315 344.572 62.9666C345.889 62.5693 347.191 62.2613 348.05 61.176C349.329 57.7949 349.378 16.2529 348.006 12.4215C347.307 11.4563 346.182 11.1022 345.077 10.6231L345.341 10.4627C351.269 6.80929 349.387 2.53351 343.821 1.07384C343.821 1.07384 343.348 0.374307 343.296 0.296001Z" fill="#24362A"/>
<path d="M302.58 0.283408C305.434 -0.0274945 325.975 -0.165545 327.031 0.581839C326.297 1.68247 323.55 1.64186 323.298 2.86546C322.196 8.20909 324.574 16.3288 325.667 21.508L330.279 43.3387C331.433 48.8984 332.591 55.3618 333.96 60.8905C334.151 61.6718 336.002 62.3734 336.779 62.7005C336.437 63.4027 335.23 63.8435 334.461 64.2188C334.676 67.5105 334.957 69.052 336.735 71.8118C338.722 72.402 340.396 72.9238 342.339 73.6488C339.563 74.0627 335.123 73.9484 332.217 73.9406C327.376 73.9559 322.535 73.9052 317.694 73.7883C319.031 73.1784 321.45 72.4774 322.921 72.0111C323.118 66.6222 323.367 65.0653 318.298 62.5419C319.258 62.3397 320.171 62.2867 320.763 61.5433C321.694 59.3429 320.38 55.1736 319.858 52.5074C318.28 52.7232 317.106 52.8526 315.507 52.9387C316 52.6539 317.277 51.97 317.633 51.6095C320.148 49.1055 318.364 44.9127 314.753 44.8176C308.225 44.6456 307.905 55.2235 306.882 59.8148C306.331 62.2745 308.613 61.653 309.408 62.5242C307.633 65.0883 305.649 63.8403 305.107 67.9305C304.332 73.7819 308.471 71.9011 309.759 73.4301L309.46 73.7808C307.247 74.0992 291.852 73.9214 289.256 73.6474C291.324 72.7619 292.388 72.4719 294.575 71.9458C297.145 68.4438 298.001 66.121 294.857 62.9291C294.981 61.8719 297.122 62.1596 297.386 61.4221C300.782 51.9903 302.412 39.9855 304.048 30.1396C305.307 22.5474 307.65 15.4976 308.024 8.03769C308.201 4.54613 302.992 2.50845 302.58 0.283408Z" fill="#24362A"/>
<path d="M313.738 22.4163C314.42 23.3089 316.554 35.6514 316.601 37.5545C315.916 38.0205 315.473 37.8251 314.484 37.8001L311.078 37.645C311.656 34.9449 312.244 32.1749 312.671 29.4522C313.045 27.054 313.016 24.7593 313.738 22.4163Z" fill="#ffffff"/>
<path d="M169.754 0.294084C171.571 0.0313256 190.601 -0.00144536 192.378 0.404294L192.551 0.90748C191.171 2.18009 189.543 0.522042 188.243 3.51071C186.243 8.10754 189.756 8.95266 190.691 11.1696C189.933 11.5968 189.012 11.9924 188.521 12.738C187.239 14.6852 187.48 58.115 188.24 62.3524C188.756 65.228 189.758 68.069 192.297 69.7703C194.121 70.9927 196.449 71.3208 198.58 70.8654C200.71 70.4104 202.441 69.1613 203.618 67.3373C204.906 65.3405 205.321 62.7492 205.564 60.4186C206.411 52.296 205.831 42.3544 205.827 34.0128C205.825 29.0981 206.427 18.5831 205.439 14.0765C204.924 11.7319 204.301 12.2728 202.682 11.2212C202.985 9.96077 205.834 8.96368 205.798 6.43701C205.719 0.987814 203.203 2.67777 201.643 0.849185L201.789 0.357889C203.112 -0.0359589 215.468 0.149944 217.69 0.157484L218.054 0.317866L218.222 0.770298C217.496 1.40428 215.93 1.61658 214.928 1.83671C210.47 8.6841 216.329 8.92365 216.401 11.2606C214.94 12.0019 213.811 12.1681 213.516 14.1333C213.234 16.0123 213.11 17.8998 213.12 19.8122C213.182 31.7039 212.577 43.7586 213.333 55.6121C213.416 56.9073 214.874 59.0363 215.636 60.1219C212.4 63.4061 211.858 66.4011 209.325 69.2839C202.187 77.4066 185.282 76.7624 178.896 68.0221C176.606 64.8878 175.551 62.6161 172.602 60.0607C173.239 58.9076 174.383 56.8328 174.443 55.3882C174.999 41.8123 174.96 27.5117 174.445 13.9323C174.402 12.7905 172.81 11.7978 171.977 11.2983L171.968 11.0101L174 9.20294C174.337 8.22963 174.631 6.74125 174.87 5.70123C173.421 0.0812083 171.882 3.01245 169.754 0.294084Z" fill="#24362A"/>
<path d="M249.094 87.2744C254.396 86.6937 257.598 88.3474 263.97 87.4835C264.051 92.2879 263.999 96.8923 264.849 101.635C265.191 103.541 266.76 109.07 266.134 110.687C264.321 109.544 261.38 97.6324 259.338 94.9138C256.989 91.7848 256.531 91.1998 252.551 90.2613C241.929 92.5455 245.081 102.336 249.373 108.904C256.189 119.341 264.968 128.36 270.635 139.604C271.511 141.34 272.126 141.268 273.402 142.454L273.35 142.877C273.124 142.973 272.019 143.451 272.025 143.74C272.129 148.519 272.17 152.356 270.079 156.8C268.022 161.169 264.275 163.74 259.773 165.174C251.56 167.79 245.38 166.576 237.843 163.002C229.506 158.548 227.72 143.831 234.835 137.501C239.547 133.308 243.938 134.679 247.615 139.068C233.689 144.679 240.614 169.784 255.693 161.944C260.522 159.433 261.151 149.47 258.12 145.221C256.479 142.922 256.345 143.537 254.06 143.072C254.402 142.267 255.806 141.502 256.609 140.965C252.032 131.882 245.846 124.749 240.801 116.085C239.511 113.868 237.814 111.376 236.862 109.039C236.097 107.177 235.709 105.183 235.72 103.17C235.737 96.2517 238.166 95.0922 242.425 90.8312C242.794 89.9025 242.358 89.0641 242.025 88.0864C244.623 87.9283 246.524 87.6653 249.094 87.2744Z" fill="#24362A"/>
<path d="M296.231 87.2743C301.278 86.7966 304.091 88.3059 310.24 87.4202C310.736 91.5382 310.582 96.4007 311.163 100.612C311.566 103.557 313.196 107.927 312.816 110.73L312.45 110.929C311.003 109.788 310.78 107.491 310.104 105.815C308.892 102.699 307.534 99.6217 306.151 96.5848C302.954 89.5643 299.355 89.6067 293.258 93.3056C292.849 95.0851 292.02 97.6095 292.142 99.4082C292.217 100.519 292.945 100.83 293.769 101.474C293.74 102.862 291.263 104.247 291.06 105.905C289.334 119.89 289.442 134.243 291.286 148.211C291.507 149.872 293.804 152.008 293.801 153.289C293.412 153.502 293.024 153.717 292.635 153.935C292.412 155.165 292.922 158.127 293.111 159.515C294.384 161.389 295.068 161.956 296.974 163.089C298.639 163.173 300.646 163.139 302.34 163.153C305.336 160.562 306.185 159.402 307.465 155.692C308.216 151.383 307.058 148.892 303.387 146.755C305.208 144.979 307.56 142.84 310.281 143.346C314.614 144.153 315.647 150.205 314.846 153.751C313.956 157.709 312.311 160.994 308.889 163.254C304.866 165.936 299.941 166.905 295.205 165.945C291.141 165.1 285.862 162.591 283.641 158.834C275.511 145.091 275.929 123.444 278.6 108.035C279.746 103.238 281.584 97.488 284.522 93.51C285.848 91.7139 288.421 92.3418 288.972 89.3697C290.045 88.7427 294.79 87.6154 296.231 87.2743Z" fill="#24362A"/>
<path d="M372.306 88.1925C378.756 88.1484 390.189 87.7636 396.324 88.4089C390.05 91.0817 387.283 95.5312 394.038 99.9215C392.89 100.511 391.237 101.054 390.804 102.386C389.551 106.236 389.369 149.089 391.155 152.014C391.808 153.084 393.531 153.323 394.662 153.622C391.239 155.184 388.548 158.226 391.19 162.181C392.081 163.515 394.198 163.807 395.651 164.732L395.848 164.86C394.462 165.748 373.689 165.719 372.628 165.048L372.668 164.513C373.892 163.303 375.815 164.206 376.943 162.084C379.545 157.197 375.197 155.479 374.571 153.678C375.522 153.117 376.552 152.616 377.033 151.563C378.217 148.978 377.944 104.767 376.92 102.409C376.389 101.178 375.18 100.76 374.043 100.245C379.661 95.5788 378.797 92.1101 372.462 88.9045L372.306 88.1925Z" fill="#24362A"/>
<path d="M51.7858 145.29C53.2523 145.646 53.7709 146.872 54.355 148.127C57.9901 156.037 58.9492 165.438 55.7454 173.734C52.5498 182.01 44.8632 193.623 34.5552 192.874C33.5995 192.805 32.2178 192.257 31.3015 191.895C30.0865 190.649 29.5407 189.55 28.842 188.017C28.7556 183.021 33.4728 181.542 35.1266 185.551C35.0378 187.004 34.7745 186.853 34.0108 188.225C36.6037 191.64 43.8704 186.153 46.0216 184.105C53.8039 176.699 56.7092 163.987 54.1244 153.681C53.618 151.662 51.5886 146.946 51.7858 145.29Z" fill="#24362A"/>
<path d="M454.758 146.847C455.579 147.728 453.963 152.379 453.607 153.695C450.944 163.53 452.386 177.454 460.457 184.544C462.421 186.268 469.942 193.181 472.767 190.186C472.387 188.008 472.398 185.896 474.658 184.812C477.43 184.519 478.327 187.07 478.649 189.28C477.874 191.604 476.94 192.318 474.977 193.555C470.261 193.922 467.349 194.233 463.308 191.404C449.737 181.892 445.248 160.479 454.758 146.847Z" fill="#24362A"/>
</svg>
