<svg width="1401" height="243" viewBox="0 0 1401 243" fill="none" xmlns="http://www.w3.org/2000/svg">
<path d="M1170.71 3.55837H1384.63C1386.19 4.37781 1388.06 4.77368 1389.7 5.60185C1395.54 8.54126 1398.5 13.1028 1400.52 19.1247L1400.73 19.7632V165.264V224.064C1400.45 224.774 1400.06 225.675 1399.88 226.407C1398.37 232.216 1394.39 236.766 1388.98 239.236C1382.28 242.3 1374.27 240.134 1367.46 241.558H1192.98C1191.75 241.314 1188.81 241.317 1187.43 241.203C1183.05 240.838 1178.7 240.671 1174.31 240.55C1169.28 240.347 1166.11 240.106 1161.98 236.836C1157.7 233.444 1156.13 229.769 1154.37 224.78V20.1021C1156.81 10.7981 1161.78 6.47512 1170.71 3.55837ZM1308.88 137.763C1307.99 137.545 1307.44 137.346 1306.54 137.512L1306.46 137.759C1307.18 138.129 1307.45 138.159 1308.23 138.319L1308.88 137.763Z" fill="#DE516C"/>
<path d="M1261.63 51.0071C1262.6 52.9006 1263.65 54.8614 1264.55 56.7593C1266.32 60.4648 1267.15 64.1582 1270.56 66.7799C1271.35 67.3819 1272.58 68.3957 1273.62 68.2819L1273.94 67.8839C1274.2 65.1916 1271.06 61.6516 1269.8 58.9306C1275.56 56.2052 1300.61 55.6755 1307.68 56.3307C1312.4 56.7967 1317.06 57.7013 1321.61 59.0331C1333.38 62.4959 1343.59 69.6803 1349.06 80.7813C1353.58 89.9496 1356.37 99.7297 1356.03 110.047C1356 111.166 1356.05 115.257 1355.04 115.793C1353.84 114.635 1354.57 107.156 1350.44 107.73C1348.31 109.422 1351.54 114.455 1349.77 117.619L1349.4 117.713C1348.14 116.075 1349.22 110.546 1346.1 110.026C1342.58 111.342 1345.56 116.887 1344.52 118.951L1344.04 119.06C1342.52 118.022 1343.16 115.047 1342.02 113.572C1341.26 112.587 1340 112.818 1339.24 113.632C1338.11 115.869 1340.04 118.545 1338.89 119.78C1337.5 119.757 1338.18 117.53 1336.8 116.176C1336.17 115.888 1336.07 115.832 1335.39 115.917C1334.03 117.179 1335.51 118.956 1333.64 119.882C1332.85 119.876 1332.23 119.452 1331.53 119.076C1330.5 120.047 1329.95 120.935 1328.42 120.698C1327.09 119.614 1327.18 115.199 1324.62 114.561C1322.79 115.155 1323.03 117.737 1322.98 119.3C1319.76 116.386 1320.99 115.707 1318.97 112.036C1318.52 111.222 1317.42 110.247 1316.45 110.023C1314.77 110.523 1315.84 112.478 1314.33 113.728C1311.72 113.749 1310.61 107.702 1307.99 108.825C1306.42 110.775 1308.5 111.739 1307.46 112.865C1305.19 113.204 1301.84 110.148 1300.33 111.016C1299.77 112.335 1301.62 114.257 1302.27 114.368C1307.48 115.259 1310.62 117.28 1315.11 119.886C1312.74 119.763 1306.33 118.335 1304.66 119.197L1304.51 119.681C1305.4 122.435 1312.3 123.191 1314.82 123.557C1326.69 125.26 1338.79 124.538 1350.38 121.436C1356.31 119.858 1362.33 118.017 1368.43 117.322C1369.83 117.162 1376.56 117.046 1375.56 119.634C1374.08 123.477 1367.89 125.362 1364.85 128.387C1360.78 132.059 1358 136.65 1354.42 140.736C1346.06 150.249 1336.3 159.405 1323.84 162.98C1321.41 163.678 1318.67 163.71 1316.27 164.162C1310.11 165.319 1304.61 164.677 1298.58 163.206C1297.44 162.928 1295.32 162.827 1294 162.661C1293 161.948 1291.24 159.747 1290.11 159.955C1288.96 161.392 1289.35 167.405 1287.98 169.564C1287.47 170.381 1286.87 172.789 1287.54 173.677C1290.24 174.147 1292.54 169.349 1293.26 167.276C1294.85 167.256 1296.18 167.289 1297.77 167.374C1297.35 168.665 1296.02 171.83 1297.69 172.567C1299.26 172.212 1300.92 169.334 1302.36 168.172C1303.09 168.091 1303.38 168.011 1304.07 168.312C1304.61 169.965 1301.03 171.912 1300.85 174.368C1302.82 178.715 1308.5 168.447 1310.74 169.065C1310.85 170.298 1304.04 175.22 1306.35 177.988C1309.73 178.949 1316.43 167.924 1319.4 167.423L1319.65 167.679C1318.5 170.611 1310.75 174.564 1311.03 178.66C1311.42 179.399 1311.18 179.192 1311.9 179.483C1313.66 179.284 1315.09 177.8 1316.21 176.526C1318.4 174.038 1320.78 171.879 1323.25 169.686L1323.81 170.152C1318.88 175.523 1314.2 182.632 1311.09 189.298C1310.33 190.93 1309.32 196.777 1310.56 198.248L1311.04 198.178C1312.63 196.613 1314.83 188.71 1316.65 185.853C1320.12 180.409 1322.55 176.081 1327.86 172.083C1329.45 170.887 1330.61 169.542 1332.6 168.235C1338.72 164.205 1347.58 163.662 1354.72 164.052C1358.68 164.269 1364.35 166.349 1368.53 166.709C1371.87 167.142 1376.18 165.294 1379.42 165.863C1387.75 167.324 1392.53 167.532 1400.73 165.264V224.064C1400.45 224.774 1400.06 225.675 1399.88 226.407C1398.37 232.216 1394.39 236.766 1388.98 239.236C1382.28 242.3 1374.27 240.134 1367.46 241.558H1192.98C1191.75 241.314 1188.81 241.317 1187.43 241.203C1183.05 240.838 1178.7 240.671 1174.31 240.55C1176.72 240.266 1180.74 240.364 1183.42 240.215C1185.54 236.055 1188.05 228.8 1189.39 224.116C1191.32 217.367 1192.18 210.218 1195.32 203.683C1195.74 202.796 1196.16 201.372 1196.82 200.696C1197.86 200.387 1197.78 200.777 1199.03 200.88L1199.25 200.479C1199.3 197.026 1194.92 194.708 1193.76 191.947C1191.36 186.22 1188.58 180.634 1185.91 175.049C1184.9 172.941 1185 169.517 1183.78 167.089C1179.51 164.493 1174.87 156.617 1173.98 151.721C1173.48 148.975 1174.34 136.643 1175.83 134.583C1176.71 133.938 1178.22 134.033 1178.89 134.847C1180.96 137.369 1180.84 142.43 1180.86 145.457C1182.53 147.938 1182.99 149.668 1183.43 152.555C1184.28 153.465 1184.8 154.02 1185.43 155.13C1186.37 156.815 1186.47 159.496 1188.19 160.363L1188.73 160.144C1189.49 159.197 1190.63 156.603 1191.3 155.341C1192.15 153.737 1194.15 152.221 1194.17 150.817L1193.68 150.574C1192.57 150.526 1191.74 150.893 1190.7 151.257C1189.97 149.083 1188.77 146.384 1188.25 144.281C1187.73 142.134 1188.09 138.707 1187.66 136.361C1187.13 133.5 1185.4 130.629 1185.44 127.779C1185.53 125.295 1186.62 122.915 1187.17 120.506C1187.67 118.348 1187.48 114.838 1189.58 113.548C1192.23 113.302 1194.22 117.933 1194.97 120.049C1191.28 125.048 1191.46 127.652 1195.98 131.933C1195.97 134.424 1197.44 145.71 1200.75 145.174C1202.71 143.178 1200.36 136.678 1199.61 134.402C1201.19 135.435 1204.45 137.085 1205.44 138.676C1207.73 142.594 1201.34 142.829 1201.04 146.94C1200.52 154.37 1206.91 157.47 1213.19 158.395C1210.56 160.934 1208.66 164.617 1209.48 168.414C1210.05 171.066 1212.99 171.925 1215.12 173.164C1215.71 174.799 1214.2 179.265 1214.15 181.267C1214.11 182.708 1214.2 183.317 1214.41 184.743C1213.84 184.048 1212.46 182.345 1211.81 181.852C1209 179.738 1206.8 179.274 1204.68 176.288C1203.9 175.176 1201.37 172.66 1200.01 172.671C1199.8 172.673 1199.72 172.831 1199.53 173.019C1199.29 174.505 1200.14 175.915 1200.31 177.351C1200.53 179.312 1200.08 179.496 1201.17 181.234C1203.36 182.51 1205.86 183.383 1208.07 184.698C1211.79 186.906 1212.89 190.551 1217.26 190.809C1217.88 190.845 1220.67 192.376 1221.73 192.568C1225.81 193.31 1230.2 193.502 1234.36 193.705C1232.34 199.576 1235.25 204.875 1234.03 210.655C1231.94 220.505 1228.39 230.334 1226.29 240.187C1229.33 240.257 1233.55 240.482 1236.48 240.201C1241.57 235.624 1240.77 224.859 1242.28 218.76C1243.82 212.226 1247.53 207.228 1252.51 202.883C1253.36 202.138 1254.15 200.782 1255.3 201.889C1255.97 204.304 1252.3 207.186 1253.85 209.131C1255.23 209.144 1256.3 206.834 1257.91 205.943L1258.27 206.08C1258.81 207.701 1257.2 210.83 1258.67 212.509L1259.31 212.526C1260.35 212.119 1261.24 210.838 1261.99 209.946C1262.07 211.621 1261.72 215.575 1263.82 215.657C1264.76 215.338 1265.45 214.329 1266.11 213.544C1266.67 214.888 1267.13 217.828 1268.15 218.537C1268.8 218.983 1269.39 216.802 1270.76 216.53C1272.04 217.394 1271.69 220.116 1273.8 220.551C1274.84 220.199 1274.96 219.811 1275.75 218.945C1277.1 220.124 1278.05 222.099 1279.25 222.371C1279.83 222.068 1280.13 221.856 1280.8 221.859C1281.88 222.283 1282.47 223.752 1282.96 224.769C1284.88 224.934 1288.21 226.555 1289.2 225.921C1289.21 225.806 1289.27 225.465 1289.22 225.352C1287.71 221.812 1283.62 219.131 1280.79 217.216C1275.73 213.786 1271.84 212.833 1267.2 208.909C1260.43 203.175 1259.35 193.848 1250.39 190.737C1247.51 189.736 1244.33 190.003 1241.36 189.754C1239.37 189.616 1237.25 189.1 1235.26 189.085C1229.77 189.044 1222.33 190.69 1218.82 185.108C1216.79 181.864 1219.25 178.161 1219.51 174.782C1219.59 173.701 1219.06 172.288 1218.94 171.196C1218.85 170.395 1219.58 170.03 1220.11 169.41C1220.27 168.744 1220.27 168.665 1220.02 168.027C1218.18 166.655 1215.84 168.402 1213.55 167.505C1212.87 166.842 1213.07 167.205 1212.85 166.288C1211.81 162.049 1220.19 161.483 1219.17 158.894C1217.29 154.099 1210.82 154.682 1207.31 152.204C1200.68 147.299 1208 145.699 1209.78 142.771C1212.74 137.938 1203.89 131.983 1200.27 130.616C1198.52 130.158 1194.76 125.782 1197.01 124.209C1202.18 120.607 1208.1 117.607 1213.05 113.531C1216.64 110.579 1221.63 108.657 1224.48 104.918C1225.6 103.449 1223.62 99.7178 1223.15 98.0709C1224.41 91.9305 1238.98 75.5915 1239.05 74.0808L1238.6 73.8167C1236.8 73.8742 1234.83 75.3598 1233.27 76.355C1228.74 69.2322 1227.71 64.2484 1231.11 56.2494C1231.99 56.9941 1233.8 58.9961 1234.74 59.9221C1238.06 63.1879 1240.96 65.0682 1245.17 66.9385C1244.81 67.8412 1244.39 68.3706 1245.14 69.0853C1246.48 69.305 1249.49 67.1755 1250.79 66.3839C1251.32 68.9805 1252.28 75.8156 1255.21 76.4575L1255.53 76.1895C1255.75 75.357 1255.28 72.6814 1255.18 71.6954C1254.09 61.3206 1255.49 58.6375 1261.63 51.0071ZM1308.88 137.763C1307.99 137.545 1307.44 137.346 1306.54 137.512L1306.46 137.759C1307.18 138.129 1307.45 138.159 1308.23 138.319L1308.88 137.763Z" fill="#FEFEFE"/>
<path d="M1233.47 91.3941C1234.92 91.1328 1236.37 90.8488 1237.82 90.5423L1238.69 91.0113C1240.03 91.0789 1242.9 91.2648 1243.76 92.3682C1243.33 94.2835 1236.68 94.8653 1235.37 96.6124L1235.5 96.8058C1236.79 96.6173 1237.94 95.9981 1239.13 95.8626C1247.28 94.9308 1255.38 100.553 1257.76 108.266C1259.04 109.32 1261.58 110.749 1261.98 112.076C1261.51 113.384 1256.61 113.06 1255.3 113.009C1250.57 119.344 1246.46 121.956 1238.39 121.838C1246.08 127.437 1249.29 122.06 1252.37 123.312L1252.51 123.617C1252.06 124.842 1249.7 126.179 1248.51 126.765C1245.46 128.263 1242.39 127.757 1239.26 128.372C1239.89 129.386 1241.9 131.931 1240.57 132.826C1237.07 132.649 1233.42 126.466 1232.53 123.381C1232.28 122.523 1232.87 121.272 1232.99 120.368C1232.38 119.342 1230.48 118.489 1230.21 117.076C1229.88 115.353 1232.2 112.425 1232.61 110.839C1233.02 109.289 1232.96 106.317 1232.75 104.742C1230.07 103.116 1224.43 101.542 1227.21 96.9864C1228.34 95.1331 1231.8 92.8951 1233.84 92.1174L1233.47 91.3941Z" fill="#DE516C"/>
<path d="M1233.47 91.3941C1234.92 91.1328 1236.37 90.8488 1237.82 90.5423L1238.69 91.0113C1236.78 91.3392 1235.67 91.5398 1233.84 92.1174L1233.47 91.3941Z" fill="#DE516C"/>
<path d="M1238.94 102.604C1245.36 102.331 1249.2 106.39 1253.06 110.978C1250.93 115.187 1247 118.16 1242.26 118.565C1240.24 118.181 1237 115.827 1235.94 116.869C1235.62 117.81 1235.94 119.547 1236.05 120.637L1235.8 120.792C1234.73 120.077 1234.09 117.57 1233.11 115.842C1234.11 114.707 1235.29 113.518 1235.66 112.038C1236.83 107.422 1233.37 105.076 1238.94 102.604Z" fill="#FEFEFE"/>
<path d="M1239.77 103.906C1240.11 103.953 1240.51 104.058 1240.85 104.135C1241.15 104.444 1241.49 104.69 1241.5 105.148C1241.56 108.221 1241.61 111.285 1241.74 114.36C1241.78 115.352 1241.78 115.449 1241.29 115.941C1240.57 116.225 1240.17 116.081 1239.42 115.94C1236.25 112.613 1235.69 106.744 1239.77 103.906Z" fill="#DE516C"/>
<path d="M1299.13 143.07C1301.02 138.738 1297.9 135.698 1299.95 132.344C1304.73 125.321 1317.25 129.502 1323.8 130.682C1332.26 132.208 1339.3 132.386 1347.37 129.467C1348.35 129.115 1349.91 128.859 1350.83 129.388L1350.85 129.87C1349.08 133.153 1344.62 133.356 1341.51 134.403C1336.63 136.051 1332.18 135.325 1327.27 134.89C1321.47 134.377 1315.77 134.016 1310.03 132.922C1313.34 134.387 1322.91 135.978 1324.14 137.595C1323.79 139.118 1320.56 139.95 1319.13 139.807C1315.75 139.47 1312.17 138.535 1308.88 137.763C1307.99 137.545 1307.44 137.346 1306.54 137.512L1306.46 137.759C1307.18 138.129 1307.45 138.159 1308.23 138.319C1308.85 138.525 1311.5 139.808 1310.92 140.648C1309.66 142.46 1306.76 142.178 1304.91 142.072C1306.16 143.03 1308.19 143.777 1307.39 145.697C1305.65 147.12 1302.62 146.71 1300.51 146.552C1301.61 147.056 1303.23 147.669 1303.91 148.616C1303.98 151.3 1300.29 150.638 1298.55 150.977C1297.03 151.272 1298.27 152.865 1297.66 153.876C1294.97 154.545 1293.5 150.917 1293.99 148.655C1294.6 145.819 1296.88 144.677 1299.13 143.07Z" fill="#DE516C"/>
<path d="M1233.47 91.3941C1232.46 91.5675 1232.18 91.4608 1231.45 90.857C1230.53 88.9893 1232.97 86.9653 1234.32 86.8047C1237.89 86.3808 1242.54 85.0664 1245.97 84.705C1250.98 84.1777 1254.2 90.6302 1256.51 94.0658C1257.64 95.7404 1263.77 102.006 1261.78 103.827C1259.81 104.194 1253.98 99.0157 1252.84 97.3864C1248.12 90.6755 1246.9 87.8889 1237.82 90.5423C1236.37 90.8488 1234.92 91.1328 1233.47 91.3941Z" fill="#DE516C"/>
<path d="M1273.01 81.7903C1276.29 79.8463 1278.99 77.8716 1280.09 73.9695C1281.46 69.1509 1279.01 68.0313 1276.78 64.6661C1278.2 63.3097 1281.83 64.8846 1283.11 66.2914C1290.67 74.5754 1269.3 92.5862 1262.09 87.4374C1261.25 85.5183 1264.81 84.5805 1266.12 84.1254L1265.91 83.7191C1267.89 83.3558 1270.62 82.0831 1272.28 80.9173L1273.01 81.7903Z" fill="#DE516C"/>
<path d="M1272.28 80.9173L1273.01 81.7903C1270.76 83.0786 1268.65 83.6199 1266.12 84.1254L1265.91 83.7191C1267.89 83.3558 1270.62 82.0831 1272.28 80.9173Z" fill="#F5E5F2"/>
<path d="M1274.93 182.996L1275.21 183.447C1275.2 185.2 1270.19 191.371 1269.27 193.97C1268.75 195.418 1267.29 199.231 1266.54 200.679C1266.47 200.801 1266 200.781 1265.78 200.795C1263.76 197.168 1264.85 192.626 1266.68 189.129C1268.43 185.801 1271.41 184.007 1274.93 182.996Z" fill="#DE516C"/>
<path d="M1228.89 198.089C1229.92 198.057 1230.42 197.898 1230.87 198.909C1230.66 200.128 1228.1 201.603 1227.07 202.414C1222.51 206.012 1217.57 208.827 1211.63 208.544C1210.69 208.072 1209.44 207.579 1209.19 206.452C1209.66 205.067 1211.48 205.249 1212.83 205.304C1217.59 205.496 1219.78 203.177 1223.55 201.099C1225.64 199.939 1226.7 199.523 1228.89 198.089Z" fill="#DE516C"/>
<path d="M1284.23 159.864C1284.58 160.095 1284.86 160.206 1284.99 160.634C1286.72 166.151 1281.67 174.808 1276.79 176.954L1276.22 176.659C1275.72 174.92 1278.33 171.674 1279.19 169.861C1280.57 166.948 1281.79 161.76 1284.23 159.864Z" fill="#DE516C"/>
<path d="M1328.54 226.385C1332.43 226.327 1337.52 232.557 1340.04 235.325C1340.37 235.684 1340.08 236.385 1339.96 236.789C1335.87 237.433 1326.92 231.241 1328.54 226.385Z" fill="#DE516C"/>
<path d="M1205.53 127.253C1208.11 127.021 1209.48 127.566 1211.65 129.048C1213.24 130.137 1216.32 133.158 1214.8 135.186C1214.03 135.47 1214.3 135.407 1213.41 135.163C1208.91 130.715 1208.43 134.023 1203.47 131.426C1202.86 131.103 1202.84 130.685 1202.74 130.138C1203.13 128.84 1204.44 127.932 1205.53 127.253Z" fill="#DE516C"/>
<path d="M1274.92 168.26C1277.02 168.268 1276.07 170.888 1275.58 172.042C1273.9 176.024 1271.42 179.229 1267.35 180.942C1267.16 180.905 1266.77 180.77 1266.57 180.705C1265.93 179.385 1267.12 177.819 1267.77 176.61C1269.69 172.991 1271.59 170.639 1274.92 168.26Z" fill="#DE516C"/>
<path d="M1265.91 83.7191C1265.43 83.0721 1264.82 83.0406 1264.38 82.1181C1264.9 81.3021 1267.42 80.827 1268.56 80.2678C1273.65 77.7621 1274.9 74.8417 1276.48 69.6705C1276.64 69.1406 1277.04 68.4736 1277.6 68.2202C1277.86 68.3076 1278.02 68.2934 1278.17 68.5168C1280.9 72.4926 1275.29 78.8115 1272.28 80.9173C1270.62 82.0831 1267.89 83.3558 1265.91 83.7191Z" fill="#DE516C"/>
<path d="M1292.49 127.137C1292.67 127.167 1292.96 127.274 1293.15 127.336C1293.38 128.777 1290.77 133.328 1290.36 135.051C1289.66 137.977 1289.48 141.339 1288.54 144.183C1288.32 144.823 1287.93 144.846 1287.37 145.05C1283.74 139.835 1288 130.733 1292.49 127.137Z" fill="#DE516C"/>
<path d="M1316.86 221.942C1321.01 222.592 1325.11 227.975 1327.04 231.553C1327.22 231.886 1327.15 232.613 1327.1 233.001C1323.3 233.065 1319.11 228.559 1317.14 225.556C1316.4 224.426 1316.49 223.195 1316.86 221.942Z" fill="#DE516C"/>
<path d="M1264.07 184.877C1264.96 184.823 1265.75 184.573 1266.14 185.448C1265.85 186.709 1261.71 195.512 1260.94 196.58C1256.07 194.483 1260.26 186.805 1264.07 184.877Z" fill="#DE516C"/>
<path d="M1266.56 172.226C1267.43 172.19 1267.37 172.24 1267.9 172.8C1268.81 176.084 1262.62 182.201 1259.68 183.485C1259.33 183.341 1259.17 183.203 1258.85 182.995C1257.74 180.605 1264.61 173.508 1266.56 172.226Z" fill="#DE516C"/>
<path d="M1265.96 70.316C1266.48 71.4316 1266.86 72.5781 1267.23 73.7502C1267.72 75.2605 1268.98 76.5735 1267.41 77.8855C1264.04 78.4226 1259.91 68.4234 1261.71 65.7649L1262.21 65.7877C1263.2 66.4336 1264.09 67.7166 1264.84 68.6711L1265.96 70.316Z" fill="#DE516C"/>
<path d="M1265.41 67.4988C1264.7 65.4758 1264.35 64.768 1264.58 62.6054L1264.86 62.2395C1265.77 62.5491 1267.28 65.2329 1267.49 65.9122C1268.35 68.5888 1272.67 70.9353 1272.37 73.6642C1271.29 75.4704 1269.95 74.8451 1268.52 73.9057C1267.76 72.4837 1266.99 71.0862 1266.33 69.6112L1265.96 70.316L1264.84 68.6711C1265.01 68.3866 1265.26 67.8204 1265.41 67.4988Z" fill="#DE516C"/>
<path d="M1265.41 67.4988L1266.33 69.6112L1265.96 70.316L1264.84 68.6711C1265.01 68.3866 1265.26 67.8204 1265.41 67.4988Z" fill="#F5E5F2"/>
<path d="M1258.17 175.752C1258.82 175.736 1259.09 175.674 1259.61 176.075C1260.68 178.674 1255.54 183.46 1253.39 184.482C1252.7 184.481 1252.33 184.558 1251.79 184.166C1250.77 181.652 1256.13 176.878 1258.17 175.752Z" fill="#DE516C"/>
<path d="M1258.76 67.771C1260.95 68.8199 1262.23 75.5195 1263.19 77.7761C1263.67 78.9126 1263.41 79.5725 1262.86 80.5714C1259.63 80.2597 1258.26 73.6592 1258.13 70.9626C1258.06 69.6262 1258.28 69.0075 1258.76 67.771Z" fill="#DE516C"/>
<path d="M1216.46 199.321C1217 199.351 1217.06 199.401 1217.56 199.621L1217.71 200.07C1217.47 200.735 1216.53 201.405 1215.92 201.711C1212.83 203.27 1211.71 204.146 1208.34 203.315C1207.41 202.606 1206.43 201.875 1207.07 200.686C1208.75 199.592 1211.49 200.204 1213.43 199.99C1214.31 199.893 1215.59 199.546 1216.46 199.321Z" fill="#DE516C"/>
<path d="M1220.36 128.021C1225.3 129.638 1223.05 135.188 1220.15 137.851C1219.54 138.275 1218.98 138.386 1218.27 138.254L1217.96 137.787C1217.94 137.106 1218.29 136.556 1218.63 135.977C1220.04 133.557 1219.44 130.462 1220.36 128.021Z" fill="#DE516C"/>
<path d="M1204.36 194.616C1205.16 194.589 1206.11 194.819 1207.02 194.909C1208.54 195.062 1211.32 194.598 1212.6 195.51C1212.73 195.602 1212.7 195.876 1212.71 196.088C1212.29 196.877 1211.42 197.249 1210.63 197.692C1206.52 199.426 1199.24 197.649 1204.36 194.616Z" fill="#DE516C"/>
<path d="M1338.71 219.637C1341.74 219.607 1345.69 224.297 1344.68 227.22C1341.24 227.055 1337.55 222.981 1338.71 219.637Z" fill="#DE516C"/>
<path d="M1313.4 144.023C1309.47 140.665 1318.02 138.887 1319.57 141.187C1321.05 143.397 1317.92 144.124 1316.5 144.494C1315.91 144.593 1315.13 144.641 1314.71 144.996C1314.58 144.992 1313.49 144.744 1313.29 144.701L1313.4 144.023Z" fill="#DE516C"/>
<path d="M1313.4 144.023C1314.53 144.257 1315.33 144.443 1316.5 144.494C1315.91 144.593 1315.13 144.641 1314.71 144.996C1314.58 144.992 1313.49 144.744 1313.29 144.701L1313.4 144.023Z" fill="#F5E5F2"/>
<path d="M1253.83 168.453C1257.12 170.62 1254.07 175.791 1251.42 177.073C1250.72 176.73 1249.7 176.199 1249.74 175.317C1249.82 173.166 1252.46 169.919 1253.83 168.453Z" fill="#DE516C"/>
<path d="M1270 160.068C1273.2 161.582 1270.29 167.639 1268.23 169.38C1264.87 167.383 1267.9 161.851 1270 160.068Z" fill="#DE516C"/>
<path d="M1277.67 154.261C1281.07 156.01 1278.23 162.064 1276.1 164.076C1275.42 164.06 1275.69 164.126 1275.04 163.655C1274.02 161.601 1276.17 155.937 1277.67 154.261Z" fill="#DE516C"/>
<path d="M1275.82 135.526C1278.39 136.957 1273.49 143.395 1271.89 144.315C1268.59 141.239 1272.98 137.027 1275.82 135.526Z" fill="#DE516C"/>
<path d="M1322.4 215.651C1325.17 215.557 1328.88 220.203 1327.79 222.91C1324.46 223.098 1321.15 219.005 1322.4 215.651Z" fill="#DE516C"/>
<path d="M1299.02 176.643C1303.26 177.371 1300.55 182.148 1298.43 183.867C1295.15 184.232 1295.91 178.575 1299.02 176.643Z" fill="#DE516C"/>
<path d="M1331.06 218.473C1333.68 219.054 1337.65 222.652 1335.84 225.516C1333.03 225.123 1328.54 221.08 1331.06 218.473Z" fill="#DE516C"/>
<path d="M1314.71 144.996C1315.49 145.414 1315.87 145.559 1316.39 146.272C1317 149.116 1310.22 150.021 1309.37 147.208C1309.77 144.823 1311.21 144.568 1313.29 144.701C1313.49 144.744 1314.58 144.992 1314.71 144.996Z" fill="#DE516C"/>
<path d="M1248.88 178.994C1249.88 179.078 1249.68 178.927 1250.44 179.445C1250.95 181.624 1246.96 184.678 1245.16 185.397C1244.51 185.378 1244.18 185.428 1243.65 185.022C1242.82 182.971 1247.29 179.878 1248.88 178.994Z" fill="#DE516C"/>
<path d="M1261.33 165.187C1264.51 166.226 1262.1 171.914 1260.06 173.534C1259.67 173.301 1259.29 173.044 1258.92 172.794C1257.61 170.647 1259.75 166.725 1261.33 165.187Z" fill="#DE516C"/>
<path d="M1244.93 80.3279C1247.27 80.1403 1252.47 81.7714 1252.3 84.4362C1251.82 84.9228 1252.03 84.7685 1251.18 84.9054C1249.59 84.5438 1243.87 82.8297 1243.55 81.2578C1244.11 80.4975 1243.96 80.7174 1244.93 80.3279Z" fill="#DE516C"/>
<path d="M1303.88 179.477C1304.71 179.488 1305.34 179.627 1305.95 180.172C1307 182.437 1304.8 184.443 1303.28 185.911C1302.71 186.333 1302.21 186.155 1301.68 185.854C1300.43 183.824 1302.04 180.736 1303.88 179.477Z" fill="#DE516C"/>
<path d="M1294.55 173.631C1298.62 173.674 1296.1 178.704 1293.79 180.278C1289.63 179.715 1292.96 175.179 1294.55 173.631Z" fill="#DE516C"/>
<path d="M1266.22 140.124C1266.8 140.142 1266.89 140.14 1267.42 140.387C1268.54 142.223 1266.4 146.411 1264.76 147.566C1264.21 147.423 1264.04 147.3 1263.54 147.015C1261.97 144.743 1264.68 141.743 1266.22 140.124Z" fill="#DE516C"/>
<path d="M1309.27 149.358C1310.68 149.491 1312.09 149.692 1312.86 151.008C1312.97 152.71 1311.44 152.896 1310.08 153.227C1308.42 153.293 1306.71 153.483 1306.15 151.548C1306.27 149.859 1307.91 149.569 1309.27 149.358Z" fill="#DE516C"/>
<path d="M1324.45 103.377C1327.25 103.641 1329.36 107.586 1327.37 109.687C1324.02 109.397 1322.04 105.952 1324.45 103.377Z" fill="#DE516C"/>
<path d="M1347.71 99.4397C1350.37 99.6754 1352.28 104.169 1350.33 106.322C1347.34 106.375 1345.73 101.806 1347.71 99.4397Z" fill="#DE516C"/>
<path d="M1200.47 189.045C1201.81 188.992 1206.91 188.765 1207.12 190.206C1206.79 191.006 1206.22 191.298 1205.51 191.8C1202.87 192.96 1197.83 193.201 1200.47 189.045Z" fill="#DE516C"/>
<path d="M1337.85 94.6741C1340.7 94.9686 1343.71 98.5871 1341.36 101.06C1339.06 100.436 1335.82 96.9179 1337.85 94.6741Z" fill="#DE516C"/>
<path d="M1221.95 236.006C1222.87 235.971 1223.1 236.069 1223.7 236.582C1223.96 238.848 1220.66 240.192 1218.78 240.415C1218.05 240.387 1217.85 240.361 1217.13 240.21C1216.53 239.669 1216.64 239.927 1216.59 239.255C1217.38 237.677 1220.33 236.554 1221.95 236.006Z" fill="#DE516C"/>
<path d="M1342.1 82.5183C1344.73 82.582 1348.23 85.6428 1346.93 88.6722C1344.6 88.7212 1343.46 87.1449 1342.32 85.2267C1341.59 84.0037 1341.71 83.799 1342.1 82.5183Z" fill="#DE516C"/>
<path d="M1342.92 91.9998C1346.05 92.1058 1348.37 95.0036 1347.16 97.8763C1346.83 97.9028 1345.78 98.0165 1345.54 97.9031C1343.34 96.886 1342.27 94.2585 1342.92 91.9998Z" fill="#DE516C"/>
<path d="M1258.74 143.611C1259.07 143.687 1259.48 143.904 1259.8 144.053C1261.12 145.858 1259.58 149.61 1257.89 150.843C1254.49 149.308 1256.93 145.416 1258.74 143.611Z" fill="#DE516C"/>
<path d="M1337.49 104.859C1341.01 104.952 1341.4 108.636 1339.69 111.012C1336.04 110.914 1336.14 107.365 1337.49 104.859Z" fill="#DE516C"/>
<path d="M1348.02 90.1604C1351.69 90.2106 1352.55 93.2842 1351.73 96.3824C1348.5 96.4728 1347.22 92.8433 1348.02 90.1604Z" fill="#DE516C"/>
<path d="M1320.03 107.082C1321.5 107.184 1321.76 107.501 1322.84 108.487C1323.52 110.47 1324.17 111.606 1322.73 113.38C1319.64 112.704 1318.32 109.814 1320.03 107.082Z" fill="#DE516C"/>
<path d="M1309.48 181.499C1310.45 181.48 1310.56 181.488 1311.29 181.943C1312.4 183.801 1309.95 186.576 1308.75 187.93C1308.16 188.168 1307.71 187.928 1307.24 187.635C1306.39 185.703 1308.29 182.972 1309.48 181.499Z" fill="#DE516C"/>
<path d="M1283.19 128.709C1283.5 128.776 1283.74 128.876 1284.03 128.983C1285.35 130.925 1282.2 135.709 1280.82 137.235C1280.07 137.015 1280.32 137.203 1279.91 136.529C1279.62 134.149 1281.78 130.575 1283.19 128.709Z" fill="#DE516C"/>
<path d="M1266.47 221.265C1267.57 221.461 1267.28 221.263 1268.08 221.948C1268.99 224.004 1267.68 226.225 1266.2 227.636C1262.81 226.249 1264.31 223.02 1266.47 221.265Z" fill="#DE516C"/>
<path d="M1261.08 218.211C1264.5 219.1 1262.63 223.058 1260.83 224.664C1257.37 223.825 1259.23 219.801 1261.08 218.211Z" fill="#DE516C"/>
<path d="M1263.54 134.563C1264.47 134.583 1264.57 134.598 1264.87 135.422C1264.66 137.029 1261.95 139.828 1260.79 141.133C1260.27 141.137 1260.19 141.055 1259.71 140.801C1258.3 138.597 1261.87 135.655 1263.54 134.563Z" fill="#DE516C"/>
<path d="M1256 214.993C1259.85 214.878 1258.09 219.245 1256.24 220.896C1255.49 221.141 1255.25 221.009 1254.63 220.67C1253.57 218.95 1254.74 216.335 1256 214.993Z" fill="#DE516C"/>
<path d="M1333.28 97.6195C1336.23 97.4414 1337.85 101.169 1336.85 103.459C1333.84 103.737 1332.24 100.227 1333.28 97.6195Z" fill="#DE516C"/>
<path d="M1248.47 218.92C1252.38 218.891 1251.03 223.183 1249.82 225.294C1248.98 225.661 1249.3 225.648 1248.52 225.501C1247.08 224.307 1247.8 220.453 1248.47 218.92Z" fill="#DE516C"/>
<path d="M1252.45 210.098C1255.12 211.54 1253.02 215.75 1251.2 216.794C1247.73 215.442 1250.76 211.62 1252.45 210.098Z" fill="#DE516C"/>
<path d="M1313.5 210.967L1314.49 211.161C1316.45 212.525 1317.36 215.597 1316.22 217.766C1313.48 217.063 1312.08 213.373 1313.5 210.967Z" fill="#DE516C"/>
<path d="M1215.97 220.457C1216.79 220.43 1216.96 220.481 1217.74 220.665C1218.43 221.256 1218.22 220.951 1218.52 221.878C1218.32 223.487 1217.3 224.156 1215.81 224.468C1214.35 224.459 1213.59 224.586 1212.99 223.097C1213.15 221.404 1214.53 220.872 1215.97 220.457Z" fill="#DE516C"/>
<path d="M1332.27 87.6184C1334.95 87.6275 1338.1 91.1408 1335.7 92.9936C1333.61 92.7612 1330.37 89.9515 1332.27 87.6184Z" fill="#DE516C"/>
<path d="M1328.78 100.801C1330.94 100.896 1332.32 102.449 1332.71 104.54C1332.86 105.32 1332.46 105.611 1332.01 106.172C1329.32 106.853 1327.32 103.089 1328.78 100.801Z" fill="#DE516C"/>
<path d="M1328.31 111.288C1331.6 111.317 1331.85 114.88 1330.43 117.127C1326.94 117.891 1327.34 113.268 1328.31 111.288Z" fill="#DE516C"/>
<path d="M1327.53 90.6378C1330.39 90.5241 1332.9 93.2202 1331.38 95.9484C1328.64 96.2561 1326.66 93.154 1327.53 90.6378Z" fill="#DE516C"/>
<path d="M1342.37 102.748C1345.57 102.446 1346.49 106.235 1344.97 108.529C1342.03 108.506 1341.23 105.046 1342.37 102.748Z" fill="#DE516C"/>
<path d="M1333.13 107.778C1335.96 108.063 1336.63 111.924 1334.37 113.844C1333.77 113.659 1333.46 113.476 1333 113.055C1332.32 112.434 1331.93 111.564 1331.92 110.647C1331.88 109.292 1332.25 108.725 1333.13 107.778Z" fill="#DE516C"/>
<path d="M1250.9 147.802C1253.96 147.94 1252.58 152.433 1251.27 153.961C1247.86 153.193 1248.76 149.606 1250.9 147.802Z" fill="#DE516C"/>
<path d="M1310.91 104.446C1313.85 104.212 1316.11 106.364 1314.6 109.196C1311.7 109.879 1309.93 107.052 1310.91 104.446Z" fill="#DE516C"/>
<path d="M1383.62 232.212C1384.48 232.308 1384.63 232.305 1385.27 232.901C1385.98 234.959 1383.71 236.466 1382.19 237.449C1381.38 237.391 1381.3 237.365 1380.68 236.824C1380.05 234.808 1382.07 233.131 1383.62 232.212Z" fill="#DE516C"/>
<path d="M1323.51 93.6028C1326.04 94.1869 1328.7 96.4035 1326.45 98.9752C1323.91 98.8839 1321.65 96.059 1323.51 93.6028Z" fill="#DE516C"/>
<path d="M1319.1 97.4223C1321.81 97.367 1324.12 99.7668 1322.43 102.346C1319.84 102.541 1317.5 99.9385 1319.1 97.4223Z" fill="#DE516C"/>
<path d="M1302.76 153.494C1304.22 153.478 1307.45 153.527 1307.43 155.565C1307.07 156.306 1306.79 156.406 1306.08 156.829C1304.43 157.063 1301.84 157.009 1301.59 154.916C1301.89 154.103 1302.08 154.012 1302.76 153.494Z" fill="#DE516C"/>
<path d="M1314.99 100.65C1317.35 100.609 1320.05 103.108 1318.09 105.488C1315.32 105.973 1313.5 103.207 1314.99 100.65Z" fill="#DE516C"/>
<path d="M1245.12 174.066C1246.02 174.203 1245.97 174.253 1246.45 174.806C1246.91 176.854 1244.61 178.737 1242.99 179.571C1242.52 179.4 1242.4 179.316 1241.96 179.051C1240.97 177.111 1243.7 175.222 1245.12 174.066Z" fill="#DE516C"/>
<path d="M1276.8 226.216C1277.49 226.135 1277.91 226.022 1278.55 226.32C1279.88 228.041 1278.48 230.297 1277.32 231.764C1276.72 231.841 1276.62 231.774 1276.06 231.515C1274.68 230.18 1275.84 227.489 1276.8 226.216Z" fill="#DE516C"/>
<path d="M1347.82 221.719C1350.31 222.017 1352.76 224.753 1352.29 227.239C1349.09 227.556 1347.55 224.532 1347.82 221.719Z" fill="#DE516C"/>
<path d="M1271.85 223.859C1272.49 223.83 1272.67 223.787 1273.24 224.06C1274.32 225.838 1272.71 228.05 1271.49 229.378C1270.74 229.196 1270.66 229.153 1270.03 228.704C1268.78 226.833 1270.35 224.963 1271.85 223.859Z" fill="#DE516C"/>
<path d="M1281.86 227.014C1285.07 228.183 1283.82 230.784 1282.32 232.826C1279.04 232.448 1280.06 228.679 1281.86 227.014Z" fill="#DE516C"/>
<path d="M1291.06 181.063C1294.49 182.501 1291.32 185.336 1289.65 186.526C1288.81 186.49 1288.72 186.389 1288.26 185.799C1287.93 183.997 1289.47 181.81 1291.06 181.063Z" fill="#DE516C"/>
<path d="M1338.21 228.48C1340.79 228.465 1343.5 230.239 1342.6 233.06C1339.76 233.013 1337.43 231.582 1338.21 228.48Z" fill="#DE516C"/>
<path d="M1390.09 231.252C1390.82 231.227 1390.94 231.248 1391.65 231.451C1393.09 233.006 1390.67 235.377 1389.56 236.666C1388.73 236.901 1389.06 236.908 1388.27 236.687C1387.31 234.897 1388.9 232.567 1390.09 231.252Z" fill="#DE516C"/>
<path d="M1216.62 214.893L1216.74 214.881C1218.28 214.734 1218.77 214.368 1219.81 215.57C1219.89 217.243 1218.71 217.682 1217.34 218.189C1216.21 218.301 1215.43 218.269 1214.62 217.402C1214.18 215.7 1215.23 215.418 1216.62 214.893Z" fill="#DE516C"/>
<path d="M1226.99 211.06C1227.73 211.051 1227.84 211.043 1228.49 211.391C1229.3 213.113 1226.22 214.844 1224.9 215.525C1224.14 215.511 1223.97 215.535 1223.33 215.073C1222.62 213.3 1225.67 211.736 1226.99 211.06Z" fill="#DE516C"/>
<path d="M1225.77 217.595C1226.49 217.768 1226.67 217.78 1227.2 218.344C1227.6 220.365 1225.02 221.507 1223.43 222.02C1222.57 221.726 1222.35 221.613 1221.93 220.94C1222.02 219.493 1224.58 218.154 1225.77 217.595Z" fill="#DE516C"/>
<path d="M1223.29 229.923C1223.9 229.901 1224.38 230.174 1224.71 230.669C1224.78 232.67 1222 233.767 1220.39 234.106C1219.51 233.86 1219.23 233.678 1219.01 232.855C1219.52 231.551 1222 230.571 1223.29 229.923Z" fill="#DE516C"/>
<path d="M1328.6 210.304C1328.99 210.304 1329.21 210.395 1329.58 210.502C1331.12 212.015 1331.63 214.162 1330.68 216.125C1327.65 215.893 1327.36 212.532 1328.6 210.304Z" fill="#DE516C"/>
<path d="M1379.27 224.556C1380.06 224.549 1380.4 224.484 1381.07 224.932C1382.06 226.714 1379.66 227.968 1378.32 228.513C1377.57 228.567 1377.45 228.565 1376.72 228.393C1376.18 227.824 1376.3 228.117 1376.31 227.278C1377.13 225.738 1377.73 225.382 1379.27 224.556Z" fill="#DE516C"/>
<path d="M1244.37 152.426C1244.96 152.441 1245.05 152.529 1245.55 152.856C1246.73 154.54 1245.78 156.694 1244.49 158.02C1241.53 156.692 1242.46 154.163 1244.37 152.426Z" fill="#DE516C"/>
<path d="M1263.78 229.803C1264.5 229.858 1264.67 229.846 1265.29 230.242C1266.59 231.885 1265.89 234.02 1264.83 235.599C1264.61 235.576 1264.12 235.462 1263.88 235.413C1262.23 234.038 1263.01 231.454 1263.78 229.803Z" fill="#DE516C"/>
<path d="M1256.21 186.906C1256.87 187.04 1256.95 187.078 1257.52 187.454C1258.53 189.344 1256.88 190.767 1255.39 191.753C1252.42 190.479 1254.23 188.001 1256.21 186.906Z" fill="#DE516C"/>
<path d="M1347.56 229.111C1349.56 229.411 1352.25 230.949 1351.61 233.305C1349.32 233.225 1345.58 232.093 1347.56 229.111Z" fill="#DE516C"/>
<path d="M1282.64 149.814C1284.78 150.73 1285.01 154.87 1284.25 156.887C1283.74 156.902 1283.69 156.883 1283.19 156.758C1282.13 155.469 1281.9 151.249 1282.64 149.814Z" fill="#DE516C"/>
<path d="M1224.73 224.071C1225.32 224.117 1225.35 224.158 1225.86 224.495C1226.46 226.379 1223.7 227.736 1222.27 228.324C1221.26 227.813 1220.88 227.758 1220.99 226.581C1221.81 225.29 1223.35 224.727 1224.73 224.071Z" fill="#DE516C"/>
<path d="M1317.08 88.5501C1319.62 88.7474 1321.73 90.0966 1320.83 92.8561C1320.74 92.8522 1320.64 92.8482 1320.55 92.8443L1320.4 92.831C1318.26 92.6567 1316.1 90.8694 1317.08 88.5501Z" fill="#DE516C"/>
<path d="M1258.67 227.011C1259.23 227.115 1259.31 227.174 1259.8 227.48C1261.01 229.209 1260.26 231.569 1259.1 233.121C1256.61 231.99 1257.69 228.861 1258.67 227.011Z" fill="#DE516C"/>
<path d="M1299.91 187.986C1300.29 188.114 1300.56 188.329 1300.9 188.554C1301.89 190.333 1300.2 192.226 1298.9 193.314C1298.59 193.207 1298.23 192.972 1297.94 192.803C1296.78 191.133 1298.68 189.046 1299.91 187.986Z" fill="#DE516C"/>
<path d="M1329.54 136.738C1330.59 136.771 1331.36 136.713 1331.69 137.812C1331.15 139.178 1330.02 139.592 1328.77 140.215C1327.94 140.154 1327.81 140.057 1327.09 139.666C1326.63 138.992 1326.7 139.297 1326.78 138.528C1327.57 137.236 1328.08 137.185 1329.54 136.738Z" fill="#DE516C"/>
<path d="M1227.48 205.54C1228.29 205.413 1228.79 205.288 1229.23 206.009C1228.92 207.432 1226.63 208.54 1225.4 209.013C1224.5 209.06 1223.99 209.207 1223.61 208.316C1224.04 206.894 1226.2 206.026 1227.48 205.54Z" fill="#DE516C"/>
<path d="M1306.83 99.4881C1309.23 99.5306 1310.6 101.723 1308.68 103.687C1305.82 103.637 1305.28 101.739 1306.83 99.4881Z" fill="#DE516C"/>
<path d="M1303.48 103.503C1305.94 104.08 1307.32 105.463 1305.54 107.866C1303.25 107.643 1301.56 105.32 1303.48 103.503Z" fill="#DE516C"/>
<path d="M1239.57 182.496C1240.34 182.593 1240.65 182.822 1240.94 183.484C1240.7 185.01 1238.48 185.932 1237.19 186.396L1236.56 186.196C1235.97 185.581 1236.06 185.852 1236.06 185.173C1236.77 183.84 1238.26 183.175 1239.57 182.496Z" fill="#DE516C"/>
<path d="M1253.83 223.97L1254.71 224.229C1256.16 225.437 1255.36 228.303 1254.32 229.533C1251.77 228.797 1252.84 225.572 1253.83 223.97Z" fill="#DE516C"/>
<path d="M1270.15 132.507C1271.21 132.72 1271.28 132.806 1271.43 133.768C1271 135.299 1269.8 136.201 1268.63 137.243C1268.29 137.266 1268.05 137.075 1267.74 136.905C1266.94 135.253 1268.84 133.327 1270.15 132.507Z" fill="#DE516C"/>
<path d="M1294.9 185.418C1298.02 185.92 1294.88 189.235 1293.9 190.298C1293.53 190.324 1293.34 190.184 1293.01 190.022C1291.9 188.405 1293.71 186.471 1294.9 185.418Z" fill="#DE516C"/>
<path d="M1324.63 141.332C1325.58 141.503 1325.79 141.51 1326.58 142.059C1326.97 142.815 1326.93 142.476 1326.71 143.334C1326.2 144.007 1325.61 144.134 1324.81 144.425C1323.72 144.522 1323.31 144.5 1322.51 143.883C1322.19 142.266 1323.36 141.862 1324.63 141.332Z" fill="#DE516C"/>
<path d="M1309.44 95.7119C1311.69 95.8802 1313.62 97.0997 1312.5 99.6022C1310.06 99.5485 1308.65 98.2167 1309.44 95.7119Z" fill="#DE516C"/>
<path d="M1320.69 207.249C1322.81 207.861 1323.27 210.835 1322.59 212.615C1319.95 212.245 1319.78 209.212 1320.69 207.249Z" fill="#DE516C"/>
<path d="M1211.01 232.738C1212.18 232.663 1214.35 232.352 1214.78 233.693C1214.56 234.354 1214.19 234.558 1213.65 234.984C1212.4 235.286 1210.27 235.456 1209.83 233.93C1210.08 233.23 1210.39 233.116 1211.01 232.738Z" fill="#DE516C"/>
<path d="M1252.96 140.806C1253.81 140.868 1253.95 141.143 1254.24 141.839C1254.16 143.407 1253.24 144.421 1252.3 145.626L1251.45 145.432C1250.23 143.848 1251.81 141.984 1252.96 140.806Z" fill="#DE516C"/>
<path d="M1311.65 156.045C1312.59 156.074 1312.93 156.038 1313.75 156.474C1314.3 157.175 1314.22 156.871 1314.19 157.626C1313.79 158.368 1313.5 158.473 1312.78 158.901C1311.88 158.927 1311.2 159.046 1310.47 158.535C1309.94 157.783 1310.02 158.124 1310.13 157.263C1310.57 156.536 1310.89 156.437 1311.65 156.045Z" fill="#DE516C"/>
<path d="M1317.08 150.897C1318.28 150.946 1319.82 150.896 1319.77 152.458C1319.38 153.151 1318.81 153.274 1318.06 153.566C1316.93 153.879 1316.36 154.037 1315.65 153.107C1315.58 151.832 1316.11 151.516 1317.08 150.897Z" fill="#DE516C"/>
<path d="M1375.94 235.432L1376.79 235.575C1377.38 236.085 1377.23 235.822 1377.38 236.55C1377.07 237.923 1376.12 238.716 1375.07 239.576C1374.12 239.48 1373.98 239.278 1373.79 238.442C1374.05 237.084 1374.93 236.306 1375.94 235.432Z" fill="#DE516C"/>
<path d="M1255.81 160.992C1258.53 161.758 1256.49 164.585 1255.49 165.84C1254.72 165.585 1254.63 165.283 1254.33 164.629C1254.31 163.145 1254.98 162.185 1255.81 160.992Z" fill="#DE516C"/>
<path d="M1321.94 77.6261C1324.22 77.5353 1325.86 78.7401 1324.69 81.1808C1322.66 81.0741 1321.38 79.6842 1321.94 77.6261Z" fill="#DE516C"/>
<path d="M1352.25 98.2739C1354.72 98.8157 1354.83 100.956 1353.71 102.842C1351.49 102.155 1351.38 100.122 1352.25 98.2739Z" fill="#DE516C"/>
<path d="M1327.03 82.4885C1329.04 82.6124 1331.16 83.5326 1330.26 85.9521C1327.97 86.1445 1326.88 84.6401 1327.03 82.4885Z" fill="#DE516C"/>
<path d="M1248.36 165.16C1250.45 166.553 1248.7 168.439 1247.56 169.884C1245.2 169.079 1247.09 166.165 1248.36 165.16Z" fill="#DE516C"/>
<path d="M1320.95 145.779C1321.82 145.792 1321.97 145.793 1322.8 146.08C1323.38 146.663 1323.27 146.384 1323.29 147.11C1322.97 147.873 1322.37 148.148 1321.67 148.6C1320.4 148.627 1319.73 148.481 1319.57 147.147C1319.86 146.359 1320.23 146.22 1320.95 145.779Z" fill="#DE516C"/>
<path d="M1269.68 232.589C1271.92 233.161 1271.29 235.848 1270.24 237.219C1267.91 236.378 1268.58 234.15 1269.68 232.589Z" fill="#DE516C"/>
<path d="M1210.68 238.332C1211.8 238.307 1212.99 238.521 1212.95 239.899C1212.29 240.489 1212.45 240.308 1211.36 240.357C1209.96 240.389 1209.41 240.584 1208.42 239.75L1208.5 239.283C1209.03 238.639 1209.85 238.546 1210.68 238.332Z" fill="#DE516C"/>
<path d="M1294.9 195.68C1295.49 195.707 1295.6 195.786 1296.12 196.06C1296.91 197.461 1295.72 198.533 1294.79 199.564C1293.89 199.44 1294.21 199.589 1293.54 199.034C1293.33 197.609 1294.06 196.873 1294.9 195.68Z" fill="#DE516C"/>
<path d="M1383.41 218.285C1383.98 218.315 1384.02 218.354 1384.56 218.6C1385.23 219.977 1383.77 220.895 1382.73 221.568L1381.79 221.204C1380.87 219.759 1382.26 219.063 1383.41 218.285Z" fill="#DE516C"/>
<path d="M1324.1 151.436C1325.12 151.351 1326.56 150.994 1327.07 152.001C1326.86 152.7 1326.45 152.92 1325.87 153.358C1324.82 153.778 1323.96 154.084 1323.37 152.931C1323.4 152.204 1323.65 151.99 1324.1 151.436Z" fill="#DE516C"/>
<path d="M1243.21 75.1605C1244.28 75.14 1245.12 74.8802 1245.42 76.0053C1245.2 76.7539 1244.67 77.078 1244.05 77.576C1243.59 77.5663 1243.13 77.4691 1242.67 77.3901C1242.01 76.8253 1242.15 77.1007 1242.04 76.3721C1242.33 75.6981 1242.62 75.5649 1243.21 75.1605Z" fill="#DE516C"/>
<path d="M1218.13 209.434C1218.62 209.443 1218.81 209.503 1219.29 209.617C1219.9 210.258 1219.78 209.958 1219.84 210.735C1219.32 211.684 1219.53 211.386 1218.55 211.973C1217.56 211.966 1217.43 212.01 1216.74 211.487L1216.69 210.924C1217.05 210.081 1217.37 209.939 1218.13 209.434Z" fill="#DE516C"/>
<path d="M1270.35 153.643C1270.71 153.644 1271.15 153.682 1271.52 153.702C1272.66 154.716 1271.84 155.928 1271.21 157.059C1270.16 156.985 1270.12 156.863 1269.73 155.986C1269.74 155.04 1270.01 154.528 1270.35 153.643Z" fill="#DE516C"/>
<path d="M1337.13 214.94C1338.17 215.088 1338.8 215.294 1339.23 216.352C1339.21 217.511 1339.24 217.145 1338.62 218.215C1336.72 218.042 1336.53 216.393 1337.13 214.94Z" fill="#DE516C"/>
<path d="M1239.44 80.2588C1240.37 80.2867 1240.19 80.1428 1240.83 80.6314L1240.88 81.1618C1240.54 82.0038 1240.3 82.1175 1239.58 82.6579C1239.47 82.6567 1239.36 82.6541 1239.25 82.6504C1238.35 82.6177 1238.27 82.6081 1237.79 82.077L1237.81 81.5843C1238.2 80.822 1238.68 80.6602 1239.44 80.2588Z" fill="#DE516C"/>
<path d="M1337.41 136.982C1338.4 136.868 1339.27 136.529 1339.57 137.597C1339.32 138.281 1338.7 138.6 1338.1 139.011C1337.2 139.192 1337.37 139.296 1336.64 138.99L1336.46 138.54C1336.63 137.698 1336.81 137.582 1337.41 136.982Z" fill="#DE516C"/>
<path d="M1290.47 192.407C1290.62 192.507 1290.93 192.772 1291.09 192.903L1291.08 193.54C1290.66 194.481 1289.88 195.107 1289.13 195.814L1288.54 195.38C1288.01 193.815 1289.24 193.142 1290.47 192.407Z" fill="#DE516C"/>
<path d="M1247.57 75.9903C1248.53 75.938 1249.5 76.0347 1250.28 76.6355C1250.74 77.443 1250.63 77.1357 1250.51 78.1665C1248.51 78.7596 1247.84 77.7525 1247.57 75.9903Z" fill="#DE516C"/>
<path d="M1320.04 156.447C1321.03 156.539 1321.36 156.555 1321.42 157.513C1321.1 158.239 1320.73 158.383 1320.06 158.783C1319.14 158.684 1319.05 158.722 1318.47 158.18L1318.46 157.688C1318.86 156.907 1319.24 156.812 1320.04 156.447Z" fill="#DE516C"/>
<path d="M1308.56 87.6358C1309.59 87.6795 1310.13 87.7364 1310.83 88.5696C1311.14 89.3306 1311.04 89.5644 1310.86 90.3409C1309.07 90.36 1308.22 89.4073 1308.56 87.6358Z" fill="#DE516C"/>
<path d="M1210.85 209.871C1211.45 209.517 1212.22 209.717 1212.58 210.318C1212.93 210.919 1212.73 211.692 1212.12 212.042C1211.52 212.391 1210.76 212.189 1210.41 211.592C1210.05 210.994 1210.25 210.225 1210.85 209.871Z" fill="#DE516C"/>
<path d="M1208.95 215.02C1209.96 215.05 1210.38 215.036 1211.12 215.609C1211.37 216.315 1211.09 216.8 1210.82 217.493C1209.99 217.229 1209.14 217.06 1208.61 216.389C1208.48 215.56 1208.48 215.853 1208.95 215.02Z" fill="#DE516C"/>
<path d="M1301.05 95.5022C1301.92 95.581 1302.61 95.7335 1303.22 96.3696C1303.58 97.3676 1303.49 97.0274 1303.32 98.1251C1301.31 98.4386 1300.94 97.1524 1301.05 95.5022Z" fill="#DE516C"/>
<path d="M1206.96 220.759C1207.79 220.733 1208.47 220.81 1209.21 221.19C1209.78 222.019 1209.63 221.709 1209.57 222.858C1208.69 222.924 1207.96 223.022 1207.24 222.541C1206.77 221.665 1206.92 221.867 1206.96 220.759Z" fill="#DE516C"/>
<path d="M1202.32 237.291C1203.19 237.321 1203.9 237.442 1204.47 238.151C1204.57 239.092 1204.62 238.709 1204.23 239.613C1204.1 239.599 1203.97 239.585 1203.84 239.569C1203.07 239.478 1202.35 239.39 1201.86 238.767C1201.83 237.847 1201.8 238.153 1202.32 237.291Z" fill="#DE516C"/>
<path d="M1386.41 226.847C1387.38 226.855 1387.62 226.787 1387.88 227.705C1387.68 228.516 1387.33 228.764 1386.73 229.349C1385.82 229.303 1385.54 229.289 1385.27 228.461C1385.45 227.675 1385.82 227.411 1386.41 226.847Z" fill="#DE516C"/>
<path d="M1316.82 81.5808C1317.65 81.6745 1318.52 81.7029 1319.13 82.2553C1319.51 83.1883 1319.39 82.9419 1319.22 84.0587C1318.29 83.9725 1318.01 83.9239 1317.26 83.4021C1316.69 82.4401 1316.85 82.7643 1316.82 81.5808Z" fill="#DE516C"/>
<path d="M1262.95 157.822C1264.52 158.502 1263.43 160.397 1262.76 161.321C1261.14 160.156 1261.62 158.907 1262.95 157.822Z" fill="#DE516C"/>
<path d="M1274.95 233.935C1275.56 234.054 1275.73 234.049 1276.14 234.502C1276.49 235.267 1276.1 236.371 1275.89 237.238C1275.01 236.917 1275.31 237.136 1274.73 236.443C1274.46 235.624 1274.75 234.785 1274.95 233.935Z" fill="#DE516C"/>
<path d="M1305.09 91.9392C1305.97 92.005 1306.25 92.032 1306.78 92.5679C1306.98 93.2575 1306.77 93.8488 1306.61 94.5461C1305.8 94.1805 1305.35 93.8772 1304.85 93.1539C1304.75 92.3039 1304.67 92.6221 1305.09 91.9392Z" fill="#DE516C"/>
<path d="M1264.08 150.769C1264.85 150.992 1264.85 151.285 1265 151.948C1264.8 152.759 1264.78 152.888 1264.19 153.515C1263.39 153.187 1263.34 153.094 1263.13 152.32C1263.3 151.55 1263.56 151.339 1264.08 150.769Z" fill="#DE516C"/>
<path d="M1281.87 144.74C1283.42 145.384 1282.96 146.584 1282.48 147.821C1280.98 147.151 1281.37 145.97 1281.87 144.74Z" fill="#DE516C"/>
<path d="M1257.62 235.807C1258.55 236.083 1258.34 235.882 1258.91 236.554C1259.09 237.263 1258.87 237.835 1258.69 238.546C1258.2 238.507 1258.15 238.421 1257.74 238.109C1257.36 237.384 1257.53 236.636 1257.62 235.807Z" fill="#DE516C"/>
<path d="M1308.23 138.319C1307.45 138.159 1307.18 138.129 1306.46 137.759L1306.54 137.512C1307.44 137.346 1307.99 137.545 1308.88 137.763L1308.23 138.319Z" fill="#DE516C"/>
<path d="M1323.25 169.686C1324.35 168.655 1324.84 168.329 1326.07 167.523C1325.44 168.288 1324.5 169.506 1323.81 170.152L1323.25 169.686Z" fill="#DE516C"/>
<path d="M1198.33 105.143C1201.15 105.383 1203.2 107.45 1204.19 109.954C1205.95 114.432 1205.28 116.103 1201.25 117.747C1199.53 118.371 1197.8 119.089 1196.1 119.777C1197.35 115.006 1197.68 111.668 1197.46 106.753C1197.43 106.097 1197.85 105.56 1198.33 105.143Z" fill="#FEFEFE"/>
<path d="M1207.19 108.937C1208.94 109.068 1209.47 109.639 1210.84 110.696L1209.16 112.055L1207.01 113.633C1206.9 112.007 1206.77 110.516 1207.19 108.937Z" fill="#FEFEFE"/>
<path d="M230.027 3.55837H16.1062C14.5471 4.37781 12.6763 4.77368 11.0308 5.60185C5.19232 8.54126 2.23129 13.1028 0.211548 19.1247L0 19.7633V165.264V224.064C0.28123 224.774 0.669404 225.675 0.857666 226.408C2.36376 232.216 6.3474 236.766 11.7559 239.237C18.4563 242.3 26.4679 240.134 33.2695 241.558H207.753C208.984 241.314 211.925 241.317 213.309 241.203C217.688 240.838 222.036 240.671 226.428 240.55C226.428 240.55 1177.11 245.048 1178.87 240.059L1161.37 120.059L1203.87 3.55859C1201.42 -5.74532 238.953 6.47513 230.027 3.55837ZM91.8542 137.763C92.7474 137.545 93.2925 137.346 94.1978 137.512L94.2717 137.76C93.5528 138.129 93.2855 138.159 92.5024 138.319L91.8542 137.763Z" fill="#DE516C"/>
<path d="M139.107 51.0071C138.134 52.9006 137.085 54.8614 136.18 56.7593C134.414 60.4648 133.586 64.1582 130.17 66.7799C129.385 67.3819 128.154 68.3957 127.115 68.2819L126.795 67.8839C126.536 65.1916 129.679 61.6516 130.936 58.9306C125.171 56.2052 100.122 55.6755 93.0559 56.3307C88.3392 56.7967 83.6763 57.7013 79.1276 59.0331C67.3533 62.4959 57.1398 69.6803 51.6709 80.7813C47.1542 89.9496 44.3626 99.7297 44.7013 110.047C44.738 111.166 44.6887 115.257 45.6976 115.793C46.899 114.635 46.165 107.156 50.294 107.73C52.4283 109.422 49.1954 114.455 50.9662 117.619L51.3353 117.713C52.5978 116.075 51.517 110.546 54.6331 110.026C58.1527 111.342 55.177 116.887 56.2182 118.951L56.6945 119.06C58.2184 118.022 57.5739 115.047 58.7154 113.572C59.4772 112.587 60.7312 112.818 61.4975 113.632C62.6226 115.869 60.6898 118.545 61.841 119.78C63.2336 119.757 62.5533 117.53 63.9346 116.176C64.5687 115.888 64.6642 115.832 65.3485 115.917C66.7063 117.179 65.2255 118.956 67.0977 119.882C67.8846 119.876 68.5054 119.452 69.208 119.076C70.2367 120.047 70.7808 120.935 72.3155 120.698C73.6459 119.614 73.5581 115.199 76.1103 114.561C77.9455 115.155 77.6996 117.737 77.7589 119.3C80.9788 116.386 79.7428 115.707 81.7665 112.036C82.2148 111.222 83.3133 110.247 84.2832 110.023C85.9643 110.523 84.8949 112.478 86.4089 113.728C89.015 113.749 90.1253 107.702 92.744 108.825C94.3115 110.775 92.2364 111.739 93.2695 112.865C95.5452 113.204 98.8967 110.148 100.403 111.016C100.967 112.335 99.1119 114.257 98.463 114.368C93.2498 115.259 90.1156 117.28 85.6194 119.886C87.9922 119.763 94.4049 118.335 96.0758 119.197L96.2227 119.681C95.3371 122.435 88.4305 123.191 85.9138 123.557C74.0403 125.26 61.9446 124.538 50.3577 121.436C44.4205 119.858 38.4035 118.017 32.3025 117.322C30.9026 117.162 24.17 117.046 25.1699 119.634C26.6542 123.477 32.841 125.362 35.8808 128.387C39.9564 132.059 42.7303 136.65 46.318 140.736C54.6712 150.249 64.4381 159.405 76.8961 162.98C79.3279 163.678 82.0619 163.71 84.467 164.162C90.6276 165.319 96.122 164.677 102.15 163.206C103.298 162.928 105.413 162.827 106.737 162.661C107.735 161.948 109.492 159.747 110.62 159.955C111.776 161.392 111.389 167.405 112.752 169.564C113.267 170.381 113.864 172.789 113.19 173.677C110.495 174.147 108.199 169.349 107.477 167.276C105.882 167.256 104.554 167.289 102.961 167.374C103.383 168.665 104.712 171.83 103.046 172.567C101.474 172.212 99.8141 169.334 98.3693 168.172C97.6409 168.091 97.356 168.011 96.6664 168.312C96.122 169.965 99.7013 171.912 99.8891 174.368C97.9173 178.715 92.2304 168.447 89.9901 169.065C89.8859 170.298 96.6905 175.22 94.3868 177.988C91.0013 178.949 84.3006 167.924 81.3363 167.423L81.0822 167.679C82.2337 170.611 89.9882 174.564 89.7046 178.66C89.3116 179.399 89.5503 179.192 88.8368 179.483C87.0764 179.284 85.6482 177.8 84.5265 176.526C82.3366 174.038 79.9504 171.879 77.4816 169.686L76.9251 170.152C81.8541 175.523 86.533 182.632 89.6407 189.298C90.4017 190.93 91.4148 196.777 90.1765 198.248L89.6986 198.178C88.1074 196.613 85.9013 188.71 84.0819 185.853C80.6141 180.409 78.1844 176.081 72.8715 172.083C71.2824 170.887 70.1196 169.542 68.1338 168.235C62.0097 164.205 53.1516 163.662 46.0123 164.052C42.0568 164.269 36.3815 166.349 32.2035 166.709C28.8664 167.142 24.5547 165.294 21.311 165.863C12.9854 167.324 8.20682 167.532 0 165.264V224.064C0.28123 224.774 0.669404 225.675 0.857666 226.408C2.36376 232.216 6.3474 236.766 11.7559 239.237C18.4563 242.3 26.4679 240.134 33.2695 241.558H207.753C208.984 241.314 211.925 241.317 213.309 241.203C217.688 240.838 222.036 240.671 226.428 240.55C224.015 240.266 219.998 240.364 217.315 240.215C215.191 236.055 212.689 228.8 211.348 224.116C209.417 217.367 208.549 210.218 205.416 203.683C204.991 202.796 204.576 201.372 203.913 200.696C202.872 200.387 202.95 200.777 201.701 200.88L201.482 200.479C201.436 197.026 205.818 194.708 206.975 191.947C209.373 186.22 212.154 180.634 214.823 175.049C215.83 172.941 215.731 169.517 216.951 167.089C221.224 164.493 225.867 156.617 226.758 151.721C227.257 148.975 226.393 136.643 224.907 134.583C224.028 133.938 222.512 134.033 221.843 134.847C219.771 137.369 219.894 142.43 219.879 145.457C218.203 147.938 217.741 149.668 217.305 152.555C216.453 153.465 215.933 154.02 215.309 155.13C214.362 156.815 214.262 159.496 212.54 160.363L212.002 160.144C211.241 159.197 210.107 156.603 209.435 155.341C208.582 153.737 206.586 152.221 206.566 150.817L207.054 150.574C208.165 150.526 208.992 150.893 210.035 151.257C210.76 149.083 211.963 146.384 212.48 144.281C213.007 142.134 212.64 138.707 213.075 136.361C213.606 133.5 215.331 130.629 215.298 127.779C215.208 125.295 214.111 122.915 213.561 120.506C213.068 118.348 213.252 114.838 211.153 113.548C208.505 113.302 206.517 117.933 205.761 120.049C209.457 125.048 209.274 127.652 204.759 131.933C204.766 134.424 203.291 145.71 199.982 145.174C198.025 143.178 200.372 136.678 201.128 134.402C199.544 135.435 196.287 137.085 195.296 138.676C193.008 142.594 199.399 142.829 199.69 146.94C200.215 154.37 193.821 157.47 187.545 158.395C190.172 160.934 192.072 164.617 191.257 168.414C190.688 171.066 187.749 171.925 185.619 173.164C185.026 174.799 186.53 179.265 186.584 181.267C186.623 182.708 186.529 183.317 186.326 184.743C186.894 184.048 188.271 182.345 188.925 181.852C191.733 179.738 193.939 179.274 196.051 176.288C196.837 175.176 199.36 172.66 200.725 172.671C200.932 172.673 201.01 172.831 201.206 173.019C201.444 174.505 200.592 175.915 200.428 177.351C200.205 179.312 200.656 179.496 199.564 181.234C197.376 182.51 194.874 183.383 192.662 184.698C188.946 186.906 187.847 190.551 183.472 190.809C182.854 190.845 180.063 192.376 179.006 192.568C174.922 193.31 170.539 193.502 166.379 193.705C168.397 199.576 165.486 204.875 166.709 210.655C168.793 220.505 172.347 230.334 174.449 240.187C171.404 240.257 167.185 240.482 164.259 240.201C159.169 235.624 159.961 224.859 158.456 218.76C156.913 212.226 153.204 207.228 148.227 202.883C147.374 202.138 146.588 200.782 145.437 201.889C144.762 204.304 148.439 207.186 146.886 209.131C145.508 209.144 144.435 206.834 142.822 205.943L142.463 206.08C141.927 207.701 143.536 210.83 142.066 212.509L141.423 212.526C140.389 212.119 139.496 210.838 138.749 209.946C138.665 211.621 139.014 215.575 136.91 215.657C135.969 215.338 135.282 214.329 134.624 213.544C134.06 214.888 133.607 217.828 132.579 218.537C131.933 218.983 131.343 216.802 129.97 216.53C128.694 217.394 129.044 220.116 126.931 220.551C125.893 220.199 125.779 219.811 124.982 218.945C123.63 220.124 122.685 222.099 121.483 222.371C120.9 222.068 120.6 221.856 119.929 221.859C118.857 222.283 118.262 223.752 117.779 224.769C115.859 224.934 112.529 226.555 111.538 225.921C111.521 225.806 111.467 225.465 111.516 225.352C113.02 221.812 117.116 219.131 119.943 217.216C125.007 213.786 128.895 212.833 133.532 208.909C140.308 203.175 141.386 193.848 150.343 190.737C153.224 189.736 156.405 190.003 159.375 189.754C161.363 189.616 163.488 189.1 165.471 189.085C170.963 189.044 178.407 190.69 181.91 185.108C183.945 181.864 181.486 178.161 181.224 174.782C181.141 173.701 181.675 172.288 181.793 171.196C181.885 170.395 181.158 170.03 180.628 169.41C180.463 168.744 180.465 168.665 180.718 168.027C182.55 166.655 184.895 168.402 187.181 167.505C187.86 166.842 187.66 167.205 187.885 166.288C188.923 162.049 180.549 161.483 181.564 158.894C183.444 154.099 189.919 154.682 193.423 152.204C200.053 147.299 192.739 145.699 190.949 142.771C187.996 137.938 196.841 131.983 200.46 130.616C202.213 130.158 205.976 125.782 203.72 124.209C198.55 120.607 192.635 117.607 187.681 113.531C184.094 110.579 179.101 108.657 176.254 104.918C175.136 103.449 177.111 99.7178 177.584 98.0709C176.326 91.9305 161.755 75.5915 161.689 74.0808L162.13 73.8167C163.932 73.8742 165.902 75.3598 167.463 76.355C171.995 69.2322 173.022 64.2484 169.621 56.2494C168.745 56.9941 166.932 58.9961 165.991 59.9221C162.674 63.1879 159.778 65.0682 155.568 66.9385C155.929 67.8412 156.344 68.3706 155.596 69.0853C154.255 69.305 151.247 67.1755 149.949 66.3839C149.415 68.9805 148.457 75.8156 145.52 76.4575L145.205 76.1895C144.981 75.357 145.452 72.6814 145.556 71.6954C146.647 61.3206 145.24 58.6375 139.107 51.0071ZM91.8542 137.763C92.7474 137.545 93.2925 137.346 94.1978 137.512L94.2717 137.76C93.5528 138.129 93.2855 138.159 92.5024 138.319L91.8542 137.763Z" fill="#FEFEFE"/>
<path d="M167.269 91.3941C165.814 91.1328 164.364 90.8488 162.917 90.5423L162.048 91.0113C160.707 91.0789 157.835 91.2648 156.978 92.3682C157.401 94.2835 164.053 94.8653 165.368 96.6124L165.235 96.8058C163.945 96.6173 162.795 95.9981 161.609 95.8626C153.459 94.9308 145.351 100.553 142.976 108.266C141.696 109.32 139.15 110.749 138.751 112.076C139.228 113.384 144.128 113.06 145.436 113.009C150.166 119.344 154.276 121.956 162.343 121.838C154.657 127.437 151.444 122.06 148.366 123.312L148.22 123.617C148.673 124.842 151.033 126.179 152.226 126.765C155.278 128.263 158.347 127.757 161.478 128.372C160.849 129.386 158.833 131.931 160.162 132.826C163.664 132.649 167.317 126.466 168.209 123.381C168.457 122.523 167.86 121.272 167.742 120.368C168.358 119.342 170.259 118.489 170.529 117.076C170.858 115.353 168.537 112.425 168.12 110.839C167.711 109.289 167.773 106.317 167.981 104.742C170.665 103.116 176.307 101.542 173.528 96.9864C172.397 95.1331 168.935 92.8951 166.896 92.1174L167.269 91.3941Z" fill="#DE516C"/>
<path d="M167.269 91.3941C165.814 91.1328 164.364 90.8488 162.917 90.5423L162.048 91.0113C163.95 91.3392 165.068 91.5398 166.896 92.1174L167.269 91.3941Z" fill="#DE516C"/>
<path d="M161.79 102.604C155.371 102.331 151.531 106.39 147.675 110.978C149.804 115.187 153.735 118.16 158.479 118.565C160.491 118.181 163.73 115.827 164.791 116.869C165.117 117.81 164.792 119.547 164.684 120.637L164.934 120.792C166.005 120.077 166.642 117.57 167.623 115.842C166.622 114.707 165.447 113.518 165.072 112.038C163.9 107.422 167.368 105.076 161.79 102.604Z" fill="#FEFEFE"/>
<path d="M160.963 103.906C160.628 103.953 160.221 104.058 159.883 104.135C159.586 104.444 159.24 104.69 159.232 105.148C159.179 108.221 159.126 111.285 158.997 114.36C158.955 115.352 158.95 115.449 159.443 115.941C160.162 116.225 160.565 116.081 161.311 115.94C164.483 112.613 165.047 106.744 160.963 103.906Z" fill="#DE516C"/>
<path d="M101.604 143.07C99.715 138.738 102.836 135.698 100.781 132.344C96.0088 125.321 83.4818 129.502 76.9372 130.682C68.4757 132.208 61.4365 132.386 53.3601 129.467C52.3839 129.115 50.8216 128.859 49.9094 129.388L49.8845 129.87C51.6548 133.153 56.1194 133.356 59.2229 134.403C64.1045 136.051 68.551 135.325 73.4658 134.89C79.2612 134.377 84.9628 134.016 90.7008 132.922C87.3964 134.387 77.8237 135.978 76.5916 137.595C76.944 139.118 80.1698 139.95 81.607 139.807C84.9874 139.47 88.5608 138.535 91.8542 137.763C92.7474 137.545 93.2925 137.346 94.1978 137.512L94.2717 137.76C93.5528 138.129 93.2855 138.159 92.5024 138.319C91.8875 138.525 89.2326 139.808 89.8157 140.648C91.0724 142.46 93.977 142.178 95.8268 142.072C94.5725 143.03 92.5395 143.777 93.3429 145.697C95.0843 147.12 98.1162 146.71 100.224 146.552C99.123 147.056 97.5063 147.669 96.823 148.616C96.7514 151.3 100.444 150.638 102.188 150.977C103.704 151.272 102.46 152.865 103.071 153.876C105.761 154.545 107.239 150.917 106.749 148.655C106.134 145.819 103.859 144.677 101.604 143.07Z" fill="#DE516C"/>
<path d="M167.269 91.3941C168.271 91.5675 168.555 91.4608 169.286 90.857C170.201 88.9893 167.763 86.9653 166.41 86.8047C162.841 86.3808 158.196 85.0664 154.762 84.705C149.751 84.1777 146.538 90.6302 144.222 94.0658C143.093 95.7404 136.963 102.006 138.95 103.827C140.923 104.194 146.753 99.0157 147.898 97.3864C152.613 90.6755 153.837 87.8889 162.917 90.5423C164.364 90.8488 165.814 91.1328 167.269 91.3941Z" fill="#DE516C"/>
<path d="M127.729 81.7903C124.444 79.8463 121.748 77.8716 120.642 73.9695C119.275 69.1509 121.729 68.0313 123.95 64.6661C122.532 63.3097 118.909 64.8846 117.625 66.2914C110.067 74.5754 131.439 92.5862 138.642 87.4374C139.485 85.5183 135.921 84.5805 134.619 84.1254L134.827 83.7191C132.84 83.3558 130.119 82.0831 128.457 80.9173L127.729 81.7903Z" fill="#DE516C"/>
<path d="M128.457 80.9173L127.729 81.7903C129.97 83.0786 132.083 83.6199 134.619 84.1254L134.827 83.7191C132.84 83.3558 130.119 82.0831 128.457 80.9173Z" fill="#F5E5F2"/>
<path d="M125.803 182.996L125.523 183.447C125.534 185.2 130.542 191.371 131.466 193.97C131.982 195.418 133.448 199.231 134.199 200.679C134.262 200.801 134.731 200.781 134.953 200.795C136.973 197.168 135.889 192.626 134.054 189.129C132.309 185.801 129.32 184.007 125.803 182.996Z" fill="#DE516C"/>
<path d="M171.841 198.089C170.812 198.057 170.315 197.898 169.864 198.909C170.074 200.128 172.637 201.603 173.664 202.414C178.224 206.012 183.162 208.827 189.107 208.544C190.048 208.072 191.291 207.579 191.54 206.452C191.07 205.067 189.257 205.249 187.906 205.304C183.145 205.496 180.953 203.177 177.189 201.099C175.09 199.939 174.035 199.523 171.841 198.089Z" fill="#DE516C"/>
<path d="M116.508 159.864C116.155 160.095 115.876 160.206 115.742 160.634C114.012 166.151 119.069 174.808 123.94 176.954L124.516 176.659C125.018 174.92 122.407 171.674 121.547 169.861C120.164 166.948 118.949 161.76 116.508 159.864Z" fill="#DE516C"/>
<path d="M72.1896 226.385C68.303 226.327 63.2156 232.557 60.6922 235.325C60.3649 235.684 60.6547 236.385 60.7777 236.789C64.8644 237.433 73.8186 231.241 72.1896 226.385Z" fill="#DE516C"/>
<path d="M195.209 127.253C192.628 127.021 191.253 127.566 189.084 129.048C187.491 130.137 184.414 133.158 185.932 135.186C186.705 135.47 186.437 135.407 187.329 135.163C191.829 130.715 192.305 134.023 197.26 131.426C197.876 131.103 197.894 130.685 197.993 130.138C197.602 128.84 196.298 127.932 195.209 127.253Z" fill="#DE516C"/>
<path d="M125.819 168.26C123.719 168.268 124.663 170.888 125.151 172.042C126.836 176.024 129.317 179.229 133.383 180.942C133.575 180.905 133.96 180.77 134.164 180.705C134.806 179.385 133.611 177.819 132.967 176.61C131.041 172.991 129.14 170.639 125.819 168.26Z" fill="#DE516C"/>
<path d="M134.827 83.7191C135.309 83.0721 135.919 83.0406 136.355 82.1181C135.83 81.3021 133.31 80.827 132.175 80.2678C127.089 77.7621 125.838 74.8417 124.259 69.6705C124.097 69.1406 123.695 68.4736 123.135 68.2202C122.87 68.3076 122.715 68.2934 122.562 68.5168C119.836 72.4926 125.447 78.8115 128.457 80.9173C130.119 82.0831 132.84 83.3558 134.827 83.7191Z" fill="#DE516C"/>
<path d="M108.246 127.137C108.061 127.167 107.774 127.274 107.585 127.336C107.354 128.777 109.96 133.328 110.371 135.051C111.07 137.977 111.256 141.339 112.198 144.183C112.41 144.823 112.8 144.846 113.364 145.05C116.993 139.835 112.731 130.733 108.246 127.137Z" fill="#DE516C"/>
<path d="M83.8699 221.942C79.7221 222.592 75.6199 227.975 73.6905 231.553C73.5111 231.886 73.5836 232.613 73.6371 233.001C77.4318 233.065 81.6196 228.559 83.5894 225.556C84.3306 224.426 84.2446 223.195 83.8699 221.942Z" fill="#DE516C"/>
<path d="M136.66 184.877C135.77 184.823 134.986 184.573 134.59 185.448C134.889 186.709 139.028 195.512 139.791 196.58C144.662 194.483 140.472 186.805 136.66 184.877Z" fill="#DE516C"/>
<path d="M134.175 172.226C133.308 172.19 133.363 172.24 132.833 172.8C131.924 176.084 138.109 182.201 141.054 183.485C141.403 183.341 141.568 183.203 141.881 182.995C142.991 180.605 136.124 173.508 134.175 172.226Z" fill="#DE516C"/>
<path d="M134.779 70.316C134.25 71.4316 133.879 72.5781 133.502 73.7502C133.016 75.2605 131.756 76.5735 133.327 77.8855C136.697 78.4226 140.823 68.4234 139.026 65.7649L138.522 65.7877C137.535 66.4336 136.645 67.7166 135.894 68.6711L134.779 70.316Z" fill="#DE516C"/>
<path d="M135.323 67.4988C136.03 65.4758 136.382 64.768 136.158 62.6054L135.874 62.2395C134.96 62.5491 133.458 65.2329 133.241 65.9122C132.386 68.5888 128.062 70.9353 128.365 73.6642C129.445 75.4704 130.781 74.8451 132.218 73.9057C132.977 72.4837 133.747 71.0862 134.4 69.6112L134.779 70.316L135.894 68.6711C135.723 68.3866 135.476 67.8204 135.323 67.4988Z" fill="#DE516C"/>
<path d="M135.323 67.4988L134.4 69.6112L134.779 70.316L135.894 68.6711C135.723 68.3866 135.476 67.8204 135.323 67.4988Z" fill="#F5E5F2"/>
<path d="M142.561 175.752C141.917 175.736 141.644 175.674 141.122 176.075C140.051 178.674 145.192 183.46 147.346 184.482C148.032 184.481 148.4 184.558 148.947 184.166C149.965 181.652 144.602 176.878 142.561 175.752Z" fill="#DE516C"/>
<path d="M141.977 67.771C139.788 68.8199 138.505 75.5195 137.548 77.7761C137.066 78.9126 137.321 79.5725 137.879 80.5714C141.108 80.2597 142.477 73.6592 142.605 70.9626C142.669 69.6262 142.457 69.0075 141.977 67.771Z" fill="#DE516C"/>
<path d="M184.27 199.321C183.733 199.351 183.674 199.401 183.172 199.621L183.02 200.07C183.261 200.735 184.205 201.405 184.812 201.711C187.906 203.27 189.027 204.146 192.399 203.315C193.32 202.606 194.302 201.875 193.662 200.686C191.981 199.592 189.246 200.204 187.301 199.99C186.425 199.893 185.146 199.546 184.27 199.321Z" fill="#DE516C"/>
<path d="M180.372 128.021C175.433 129.638 177.685 135.188 180.583 137.851C181.196 138.275 181.756 138.386 182.463 138.254L182.774 137.787C182.799 137.106 182.447 136.556 182.109 135.977C180.695 133.557 181.294 130.462 180.372 128.021Z" fill="#DE516C"/>
<path d="M196.375 194.616C195.575 194.589 194.62 194.819 193.712 194.909C192.191 195.062 189.415 194.598 188.133 195.51C188.005 195.602 188.037 195.876 188.023 196.088C188.444 196.877 189.313 197.249 190.105 197.692C194.213 199.426 201.494 197.649 196.375 194.616Z" fill="#DE516C"/>
<path d="M62.0262 219.637C58.991 219.607 55.0484 224.297 56.0495 227.22C59.4949 227.055 63.1844 222.981 62.0262 219.637Z" fill="#DE516C"/>
<path d="M87.3365 144.023C91.267 140.665 82.7097 138.887 81.1689 141.187C79.6879 143.397 82.8163 144.124 84.2355 144.494C84.82 144.593 85.6042 144.641 86.0235 144.996C86.1518 144.992 87.2428 144.744 87.4445 144.701L87.3365 144.023Z" fill="#DE516C"/>
<path d="M87.3365 144.023C86.203 144.257 85.4055 144.443 84.2355 144.494C84.82 144.593 85.6042 144.641 86.0235 144.996C86.1518 144.992 87.2428 144.744 87.4445 144.701L87.3365 144.023Z" fill="#F5E5F2"/>
<path d="M146.907 168.453C143.619 170.62 146.663 175.791 149.31 177.073C150.011 176.73 151.03 176.199 150.997 175.317C150.915 173.166 148.273 169.919 146.907 168.453Z" fill="#DE516C"/>
<path d="M130.738 160.068C127.536 161.582 130.442 167.639 132.5 169.38C135.86 167.383 132.833 161.851 130.738 160.068Z" fill="#DE516C"/>
<path d="M123.068 154.261C119.668 156.01 122.507 162.064 124.635 164.076C125.315 164.06 125.047 164.126 125.697 163.655C126.716 161.601 124.563 155.937 123.068 154.261Z" fill="#DE516C"/>
<path d="M124.912 135.526C122.343 136.957 127.248 143.395 128.84 144.315C132.148 141.239 127.756 137.027 124.912 135.526Z" fill="#DE516C"/>
<path d="M78.332 215.651C75.5636 215.557 71.8497 220.203 72.9423 222.91C76.2767 223.098 79.588 219.005 78.332 215.651Z" fill="#DE516C"/>
<path d="M101.71 176.643C97.4708 177.371 100.181 182.148 102.302 183.867C105.586 184.232 104.826 178.575 101.71 176.643Z" fill="#DE516C"/>
<path d="M69.674 218.473C67.0581 219.054 63.0839 222.652 64.8989 225.516C67.7033 225.123 72.196 221.08 69.674 218.473Z" fill="#DE516C"/>
<path d="M86.0235 144.996C85.2477 145.414 84.8686 145.559 84.3466 146.272C83.737 149.116 90.5097 150.021 91.3604 147.208C90.969 144.823 89.5289 144.568 87.4445 144.701C87.2428 144.744 86.1518 144.992 86.0235 144.996Z" fill="#DE516C"/>
<path d="M151.853 178.994C150.851 179.078 151.056 178.927 150.292 179.445C149.782 181.624 153.774 184.678 155.578 185.397C156.227 185.378 156.559 185.428 157.081 185.022C157.917 182.971 153.445 179.878 151.853 178.994Z" fill="#DE516C"/>
<path d="M139.408 165.187C136.221 166.226 138.63 171.914 140.678 173.534C141.064 173.301 141.439 173.044 141.815 172.794C143.127 170.647 140.989 166.725 139.408 165.187Z" fill="#DE516C"/>
<path d="M155.8 80.3279C153.462 80.1403 148.264 81.7714 148.434 84.4362C148.918 84.9228 148.704 84.7685 149.557 84.9054C151.145 84.5438 156.867 82.8297 157.182 81.2578C156.62 80.4975 156.778 80.7174 155.8 80.3279Z" fill="#DE516C"/>
<path d="M96.8526 179.477C96.0282 179.488 95.3978 179.627 94.7796 180.172C93.7311 182.437 95.9301 184.443 97.4589 185.911C98.026 186.333 98.5274 186.155 99.0496 185.854C100.304 183.824 98.6994 180.736 96.8526 179.477Z" fill="#DE516C"/>
<path d="M106.188 173.631C102.109 173.674 104.637 178.704 106.949 180.278C111.109 179.715 107.771 175.179 106.188 173.631Z" fill="#DE516C"/>
<path d="M134.517 140.124C133.93 140.142 133.841 140.14 133.31 140.387C132.197 142.223 134.331 146.411 135.976 147.566C136.525 147.423 136.691 147.3 137.19 147.015C138.762 144.743 136.054 141.743 134.517 140.124Z" fill="#DE516C"/>
<path d="M91.4684 149.358C90.0532 149.491 88.6491 149.692 87.8768 151.008C87.7676 152.71 89.2955 152.896 90.658 153.227C92.3182 153.293 94.0265 153.483 94.5889 151.548C94.4606 149.859 92.82 149.569 91.4684 149.358Z" fill="#DE516C"/>
<path d="M76.2841 103.377C73.4834 103.641 71.3721 107.586 73.3646 109.687C76.7178 109.397 78.6936 105.952 76.2841 103.377Z" fill="#DE516C"/>
<path d="M53.0208 99.4397C50.361 99.6754 48.4514 104.169 50.4065 106.322C53.3941 106.375 55.0003 101.806 53.0208 99.4397Z" fill="#DE516C"/>
<path d="M200.268 189.045C198.924 188.992 193.828 188.765 193.611 190.206C193.947 191.006 194.512 191.298 195.226 191.8C197.862 192.96 202.902 193.201 200.268 189.045Z" fill="#DE516C"/>
<path d="M62.8794 94.6741C60.0339 94.9686 57.0252 98.5871 59.3787 101.06C61.6724 100.436 64.914 96.9179 62.8794 94.6741Z" fill="#DE516C"/>
<path d="M178.783 236.006C177.859 235.971 177.636 236.069 177.038 236.582C176.773 238.848 180.078 240.192 181.952 240.415C182.688 240.387 182.883 240.361 183.604 240.21C184.207 239.669 184.092 239.927 184.144 239.255C183.354 237.677 180.408 236.554 178.783 236.006Z" fill="#DE516C"/>
<path d="M58.6298 82.5183C56.0076 82.582 52.5061 85.6428 53.8033 88.6722C56.1301 88.7212 57.278 87.1449 58.4166 85.2267C59.1425 84.0037 59.0212 83.799 58.6298 82.5183Z" fill="#DE516C"/>
<path d="M57.8128 91.9998C54.6858 92.1058 52.3618 95.0036 53.5742 97.8763C53.8998 97.9028 54.9529 98.0165 55.1976 97.9031C57.394 96.886 58.4648 94.2585 57.8128 91.9998Z" fill="#DE516C"/>
<path d="M141.992 143.611C141.662 143.687 141.251 143.904 140.937 144.053C139.619 145.858 141.152 149.61 142.848 150.843C146.243 149.308 143.809 145.416 141.992 143.611Z" fill="#DE516C"/>
<path d="M63.2399 104.859C59.7239 104.952 59.3297 108.636 61.0435 111.012C64.6968 110.914 64.5952 107.365 63.2399 104.859Z" fill="#DE516C"/>
<path d="M52.7182 90.1604C49.0485 90.2106 48.1874 93.2842 49.002 96.3824C52.2385 96.4728 53.5152 92.8433 52.7182 90.1604Z" fill="#DE516C"/>
<path d="M80.7048 107.082C79.237 107.184 78.9727 107.501 77.8927 108.487C77.2147 110.47 76.5632 111.606 78.0042 113.38C81.0957 112.704 82.4145 109.814 80.7048 107.082Z" fill="#DE516C"/>
<path d="M91.2569 181.499C90.2863 181.48 90.1727 181.488 89.4475 181.943C88.334 183.801 90.7816 186.576 91.9837 187.93C92.5773 188.168 93.0227 187.928 93.4966 187.635C94.3458 185.703 92.4472 182.972 91.2569 181.499Z" fill="#DE516C"/>
<path d="M117.544 128.709C117.237 128.776 116.996 128.876 116.701 128.983C115.387 130.925 118.53 135.709 119.913 137.235C120.662 137.015 120.418 137.203 120.823 136.529C121.115 134.149 118.953 130.575 117.544 128.709Z" fill="#DE516C"/>
<path d="M134.268 221.265C133.165 221.461 133.457 221.263 132.657 221.948C131.741 224.004 133.052 226.225 134.537 227.636C137.925 226.249 136.42 223.02 134.268 221.265Z" fill="#DE516C"/>
<path d="M139.653 218.211C136.232 219.1 138.101 223.058 139.909 224.664C143.364 223.825 141.503 219.801 139.653 218.211Z" fill="#DE516C"/>
<path d="M137.198 134.563C136.264 134.583 136.166 134.598 135.865 135.422C136.079 137.029 138.782 139.828 139.947 141.133C140.467 141.137 140.543 141.055 141.021 140.801C142.433 138.597 138.867 135.655 137.198 134.563Z" fill="#DE516C"/>
<path d="M144.736 214.993C140.886 214.878 142.645 219.245 144.495 220.896C145.246 221.141 145.484 221.009 146.1 220.67C147.159 218.95 145.995 216.335 144.736 214.993Z" fill="#DE516C"/>
<path d="M67.4528 97.6195C64.5001 97.4414 62.8871 101.169 63.8823 103.459C66.8894 103.737 68.4915 100.227 67.4528 97.6195Z" fill="#DE516C"/>
<path d="M152.264 218.92C148.357 218.891 149.707 223.183 150.914 225.294C151.758 225.661 151.435 225.648 152.212 225.501C153.659 224.307 152.936 220.453 152.264 218.92Z" fill="#DE516C"/>
<path d="M148.288 210.098C145.615 211.54 147.715 215.75 149.53 216.794C153.006 215.442 149.97 211.62 148.288 210.098Z" fill="#DE516C"/>
<path d="M87.2302 210.967L86.242 211.161C84.2817 212.525 83.3753 215.597 84.5188 217.766C87.259 217.063 88.6505 213.373 87.2302 210.967Z" fill="#DE516C"/>
<path d="M184.765 220.457C183.948 220.43 183.776 220.481 182.996 220.665C182.3 221.256 182.519 220.951 182.214 221.878C182.412 223.487 183.435 224.156 184.929 224.468C186.381 224.459 187.145 224.586 187.744 223.097C187.58 221.404 186.2 220.872 184.765 220.457Z" fill="#DE516C"/>
<path d="M68.4617 87.6184C65.7889 87.6275 62.6377 91.1408 65.0363 92.9936C67.1251 92.7612 70.3643 89.9515 68.4617 87.6184Z" fill="#DE516C"/>
<path d="M71.955 100.801C69.7946 100.896 68.4185 102.449 68.0215 104.54C67.8737 105.32 68.276 105.611 68.7215 106.172C71.4146 106.853 73.4181 103.089 71.955 100.801Z" fill="#DE516C"/>
<path d="M72.4229 111.288C69.1362 111.317 68.8866 114.88 70.303 117.127C73.7923 117.891 73.3902 113.268 72.4229 111.288Z" fill="#DE516C"/>
<path d="M73.2069 90.6378C70.3457 90.5241 67.83 93.2202 69.3533 95.9484C72.0984 96.2561 74.0729 93.154 73.2069 90.6378Z" fill="#DE516C"/>
<path d="M58.3683 102.748C55.1662 102.446 54.2482 106.235 55.764 108.529C58.7067 108.506 59.5018 105.046 58.3683 102.748Z" fill="#DE516C"/>
<path d="M67.6083 107.778C64.776 108.063 64.0997 111.924 66.3674 113.844C66.965 113.659 67.2745 113.476 67.7354 113.055C68.4101 112.434 68.8015 111.564 68.8187 110.647C68.855 109.292 68.4848 108.725 67.6083 107.778Z" fill="#DE516C"/>
<path d="M149.832 147.802C146.776 147.94 148.152 152.433 149.46 153.961C152.872 153.193 151.975 149.606 149.832 147.802Z" fill="#DE516C"/>
<path d="M89.8218 104.446C86.8847 104.212 84.6255 106.364 86.137 109.196C89.0318 109.879 90.7996 107.052 89.8218 104.446Z" fill="#DE516C"/>
<path d="M17.1106 232.212C16.2532 232.308 16.104 232.305 15.4595 232.901C14.7527 234.959 17.023 236.466 18.5456 237.449C19.3495 237.391 19.4392 237.365 20.0587 236.824C20.6853 234.808 18.6669 233.131 17.1106 232.212Z" fill="#DE516C"/>
<path d="M77.2268 93.6028C74.6967 94.1869 72.0355 96.4035 74.2848 98.9752C76.8264 98.8839 79.0818 96.059 77.2268 93.6028Z" fill="#DE516C"/>
<path d="M81.6321 97.4223C78.9286 97.367 76.6193 99.7668 78.3011 102.346C80.891 102.541 83.2319 99.9385 81.6321 97.4223Z" fill="#DE516C"/>
<path d="M97.9716 153.494C96.5189 153.478 93.2797 153.527 93.3034 155.565C93.6653 156.306 93.9488 156.406 94.657 156.829C96.3026 157.063 98.8896 157.009 99.1486 154.916C98.8464 154.103 98.6582 154.012 97.9716 153.494Z" fill="#DE516C"/>
<path d="M85.749 100.65C83.3878 100.609 80.6854 103.108 82.6427 105.488C85.4143 105.973 87.2297 103.207 85.749 100.65Z" fill="#DE516C"/>
<path d="M155.616 174.066C154.719 174.203 154.76 174.253 154.285 174.806C153.821 176.854 156.127 178.737 157.74 179.571C158.215 179.4 158.339 179.316 158.773 179.051C159.765 177.111 157.03 175.222 155.616 174.066Z" fill="#DE516C"/>
<path d="M123.933 226.216C123.242 226.135 122.825 226.022 122.186 226.32C120.855 228.041 122.254 230.297 123.412 231.764C124.018 231.841 124.116 231.774 124.677 231.515C126.054 230.18 124.898 227.489 123.933 226.216Z" fill="#DE516C"/>
<path d="M52.913 221.719C50.4212 222.017 47.9793 224.753 48.444 227.239C51.64 227.556 53.1867 224.532 52.913 221.719Z" fill="#DE516C"/>
<path d="M128.882 223.859C128.246 223.83 128.062 223.787 127.497 224.06C126.41 225.838 128.027 228.05 129.246 229.378C129.991 229.196 130.078 229.153 130.699 228.704C131.952 226.833 130.383 224.963 128.882 223.859Z" fill="#DE516C"/>
<path d="M118.878 227.014C115.665 228.183 116.913 230.784 118.409 232.826C121.692 232.448 120.678 228.679 118.878 227.014Z" fill="#DE516C"/>
<path d="M109.676 181.063C106.247 182.501 109.416 185.336 111.08 186.526C111.921 186.49 112.011 186.389 112.473 185.799C112.801 183.997 111.269 181.81 109.676 181.063Z" fill="#DE516C"/>
<path d="M62.528 228.48C59.9402 228.465 57.2334 230.239 58.1362 233.06C60.9766 233.013 63.3011 231.582 62.528 228.48Z" fill="#DE516C"/>
<path d="M10.6472 231.252C9.91042 231.227 9.79885 231.248 9.08764 231.451C7.64895 233.006 10.0661 235.377 11.1725 236.666C12.0092 236.901 11.6722 236.908 12.4671 236.687C13.4246 234.897 11.8302 232.567 10.6472 231.252Z" fill="#DE516C"/>
<path d="M184.116 214.893L183.998 214.881C182.457 214.734 181.968 214.368 180.928 215.57C180.848 217.243 182.027 217.682 183.399 218.189C184.525 218.301 185.3 218.269 186.111 217.402C186.552 215.7 185.508 215.418 184.116 214.893Z" fill="#DE516C"/>
<path d="M173.747 211.06C173.003 211.051 172.894 211.043 172.242 211.391C171.433 213.113 174.517 214.844 175.839 215.525C176.596 215.511 176.766 215.535 177.406 215.073C178.116 213.3 175.066 211.736 173.747 211.06Z" fill="#DE516C"/>
<path d="M174.964 217.595C174.241 217.768 174.06 217.78 173.53 218.344C173.138 220.365 175.715 221.507 177.303 222.02C178.165 221.726 178.387 221.613 178.806 220.94C178.716 219.493 176.153 218.154 174.964 217.595Z" fill="#DE516C"/>
<path d="M177.446 229.923C176.836 229.901 176.356 230.174 176.023 230.669C175.951 232.67 178.731 233.767 180.349 234.106C181.22 233.86 181.506 233.678 181.725 232.855C181.21 231.551 178.73 230.571 177.446 229.923Z" fill="#DE516C"/>
<path d="M72.134 210.304C71.7484 210.304 71.5204 210.395 71.1555 210.502C69.6127 212.015 69.1023 214.162 70.0531 216.125C73.0855 215.893 73.3723 212.532 72.134 210.304Z" fill="#DE516C"/>
<path d="M6.83553 224.556C6.0453 224.549 5.69898 224.484 5.02728 224.932C4.04646 226.714 6.43808 227.968 7.78148 228.513C8.5322 228.567 8.65306 228.565 9.38519 228.393C9.91744 227.824 9.80123 228.117 9.78961 227.278C8.97148 225.738 8.37184 225.382 6.83553 224.556Z" fill="#DE516C"/>
<path d="M156.367 152.426C155.779 152.441 155.686 152.529 155.189 152.856C154 154.54 154.955 156.694 156.241 158.02C159.207 156.692 158.27 154.163 156.367 152.426Z" fill="#DE516C"/>
<path d="M136.957 229.803C136.239 229.858 136.063 229.846 135.441 230.242C134.143 231.885 134.844 234.02 135.908 235.599C136.129 235.576 136.619 235.462 136.859 235.413C138.503 234.038 137.724 231.454 136.957 229.803Z" fill="#DE516C"/>
<path d="M144.528 186.906C143.86 187.04 143.781 187.078 143.213 187.454C142.205 189.344 143.855 190.767 145.341 191.753C148.315 190.479 146.5 188.001 144.528 186.906Z" fill="#DE516C"/>
<path d="M53.1744 229.111C51.1747 229.411 48.4883 230.949 49.1215 233.305C51.4143 233.225 55.1521 232.093 53.1744 229.111Z" fill="#DE516C"/>
<path d="M118.098 149.814C115.949 150.73 115.725 154.87 116.485 156.887C116.994 156.902 117.048 156.883 117.547 156.758C118.609 155.469 118.835 151.249 118.098 149.814Z" fill="#DE516C"/>
<path d="M176.001 224.071C175.411 224.117 175.386 224.158 174.877 224.495C174.27 226.379 177.035 227.736 178.461 228.324C179.469 227.813 179.852 227.758 179.74 226.581C178.925 225.29 177.384 224.727 176.001 224.071Z" fill="#DE516C"/>
<path d="M83.6532 88.5501C81.1159 88.7474 79.0067 90.0966 79.9069 92.8561C79.9984 92.8522 80.09 92.8482 80.1816 92.8443L80.3326 92.831C82.4702 92.6567 84.6329 90.8694 83.6532 88.5501Z" fill="#DE516C"/>
<path d="M142.069 227.011C141.504 227.115 141.424 227.174 140.934 227.48C139.722 229.209 140.474 231.569 141.634 233.121C144.121 231.99 143.044 228.861 142.069 227.011Z" fill="#DE516C"/>
<path d="M100.828 187.986C100.444 188.114 100.172 188.329 99.8352 188.554C98.8488 190.333 100.532 192.226 101.834 193.314C102.142 193.207 102.505 192.972 102.795 192.803C103.952 191.133 102.058 189.046 100.828 187.986Z" fill="#DE516C"/>
<path d="M71.192 136.738C70.1419 136.771 69.3712 136.713 69.0474 137.812C69.5829 139.178 70.7118 139.592 71.9655 140.215C72.7931 140.154 72.9254 140.057 73.6408 139.666C74.1033 138.992 74.0294 139.297 73.9541 138.528C73.1669 137.236 72.6537 137.185 71.192 136.738Z" fill="#DE516C"/>
<path d="M173.254 205.54C172.448 205.413 171.944 205.288 171.505 206.009C171.816 207.432 174.102 208.54 175.334 209.013C176.238 209.06 176.741 209.207 177.128 208.316C176.697 206.894 174.533 206.026 173.254 205.54Z" fill="#DE516C"/>
<path d="M93.9017 99.4881C91.4996 99.5306 90.133 101.723 92.0565 103.687C94.9165 103.637 95.4506 101.739 93.9017 99.4881Z" fill="#DE516C"/>
<path d="M97.253 103.503C94.7961 104.08 93.4095 105.463 95.1963 107.866C97.4822 107.643 99.1737 105.32 97.253 103.503Z" fill="#DE516C"/>
<path d="M161.164 182.496C160.39 182.593 160.087 182.822 159.795 183.484C160.03 185.01 162.252 185.932 163.539 186.396L164.177 186.196C164.764 185.581 164.672 185.852 164.676 185.173C163.965 183.84 162.476 183.175 161.164 182.496Z" fill="#DE516C"/>
<path d="M146.901 223.97L146.023 224.229C144.576 225.437 145.369 228.303 146.415 229.533C148.964 228.797 147.891 225.572 146.901 223.97Z" fill="#DE516C"/>
<path d="M130.581 132.507C129.525 132.72 129.458 132.806 129.3 133.768C129.733 135.299 130.936 136.201 132.105 137.243C132.441 137.266 132.685 137.075 132.991 136.905C133.794 135.253 131.891 133.327 130.581 132.507Z" fill="#DE516C"/>
<path d="M105.837 185.418C102.717 185.92 105.859 189.235 106.838 190.298C107.202 190.324 107.397 190.184 107.727 190.022C108.833 188.405 107.027 186.471 105.837 185.418Z" fill="#DE516C"/>
<path d="M76.1049 141.332C75.1557 141.503 74.9449 141.51 74.1579 142.059C73.76 142.815 73.8009 142.476 74.0275 143.334C74.5351 144.007 75.1255 144.134 75.9227 144.425C77.0114 144.522 77.422 144.5 78.2246 143.883C78.5463 142.266 77.3707 141.862 76.1049 141.332Z" fill="#DE516C"/>
<path d="M91.2895 95.7119C89.0395 95.8802 87.1192 97.0997 88.2336 99.6022C90.6699 99.5485 92.0893 98.2167 91.2895 95.7119Z" fill="#DE516C"/>
<path d="M80.0487 207.249C77.9271 207.861 77.4611 210.835 78.1451 212.615C80.7868 212.245 80.9535 209.212 80.0487 207.249Z" fill="#DE516C"/>
<path d="M189.724 232.738C188.553 232.663 186.386 232.352 185.95 233.693C186.179 234.354 186.539 234.558 187.08 234.984C188.337 235.286 190.463 235.456 190.905 233.93C190.658 233.23 190.346 233.116 189.724 232.738Z" fill="#DE516C"/>
<path d="M147.774 140.806C146.921 140.868 146.781 141.143 146.49 141.839C146.571 143.407 147.491 144.421 148.431 145.626L149.288 145.432C150.503 143.848 148.928 141.984 147.774 140.806Z" fill="#DE516C"/>
<path d="M89.0834 156.045C88.1442 156.074 87.805 156.038 86.9848 156.474C86.4324 157.175 86.516 156.871 86.5486 157.626C86.9423 158.368 87.2324 158.473 87.9529 158.901C88.8591 158.927 89.5305 159.046 90.2671 158.535C90.7935 157.783 90.7117 158.124 90.609 157.263C90.166 156.536 89.8397 156.437 89.0834 156.045Z" fill="#DE516C"/>
<path d="M83.659 150.897C82.4581 150.946 80.9106 150.896 80.9599 152.458C81.3525 153.151 81.924 153.274 82.6771 153.566C83.8045 153.879 84.3747 154.037 85.0805 153.107C85.1582 151.832 84.6229 151.516 83.659 150.897Z" fill="#DE516C"/>
<path d="M24.798 235.432L23.9401 235.575C23.3554 236.085 23.5032 235.822 23.3563 236.55C23.6619 237.923 24.6121 238.716 25.6603 239.576C26.6158 239.48 26.751 239.278 26.9437 238.442C26.6811 237.084 25.8021 236.306 24.798 235.432Z" fill="#DE516C"/>
<path d="M144.923 160.992C142.201 161.758 144.245 164.585 145.248 165.84C146.017 165.585 146.108 165.283 146.401 164.629C146.421 163.145 145.758 162.185 144.923 160.992Z" fill="#DE516C"/>
<path d="M78.7991 77.6261C76.5132 77.5353 74.8726 78.7401 76.0407 81.1808C78.0735 81.0741 79.356 79.6842 78.7991 77.6261Z" fill="#DE516C"/>
<path d="M48.4876 98.2739C46.0109 98.8157 45.9061 100.956 47.0252 102.842C49.2488 102.155 49.3515 100.122 48.4876 98.2739Z" fill="#DE516C"/>
<path d="M73.707 82.4885C71.6905 82.6124 69.572 83.5326 70.4782 85.9521C72.7594 86.1445 73.8562 84.6401 73.707 82.4885Z" fill="#DE516C"/>
<path d="M152.376 165.16C150.287 166.553 152.038 168.439 153.173 169.884C155.539 169.079 153.648 166.165 152.376 165.16Z" fill="#DE516C"/>
<path d="M79.7865 145.779C78.9095 145.792 78.7652 145.793 77.9331 146.08C77.353 146.663 77.4648 146.384 77.4464 147.11C77.766 147.873 78.3596 148.148 79.062 148.6C80.3324 148.627 81.0051 148.481 81.1659 147.147C80.8712 146.359 80.5093 146.22 79.7865 145.779Z" fill="#DE516C"/>
<path d="M131.051 232.589C128.814 233.161 129.443 235.848 130.489 237.219C132.823 236.378 132.155 234.15 131.051 232.589Z" fill="#DE516C"/>
<path d="M190.052 238.332C188.937 238.307 187.746 238.521 187.789 239.899C188.441 240.489 188.287 240.308 189.376 240.357C190.771 240.389 191.321 240.584 192.311 239.75L192.239 239.283C191.702 238.639 190.888 238.546 190.052 238.332Z" fill="#DE516C"/>
<path d="M105.833 195.68C105.244 195.707 105.137 195.786 104.61 196.06C103.824 197.461 105.014 198.533 105.949 199.564C106.847 199.44 106.524 199.589 107.197 199.034C107.406 197.609 106.671 196.873 105.833 195.68Z" fill="#DE516C"/>
<path d="M2.69619 218.285C2.11979 218.315 2.07796 218.354 1.54106 218.6C0.867041 219.977 2.32665 220.895 3.37022 221.568L4.30689 221.204C5.22961 219.759 3.83739 219.063 2.69619 218.285Z" fill="#DE516C"/>
<path d="M76.6365 151.436C75.6162 151.351 74.1728 150.994 73.661 152.001C73.8758 152.7 74.2869 152.92 74.8615 153.358C75.9139 153.778 76.7697 154.084 77.3644 152.931C77.334 152.204 77.0834 151.99 76.6365 151.436Z" fill="#DE516C"/>
<path d="M157.525 75.1605C156.458 75.14 155.617 74.8802 155.314 76.0053C155.537 76.7539 156.068 77.078 156.68 77.576C157.146 77.5663 157.601 77.4691 158.062 77.3901C158.721 76.8253 158.583 77.1007 158.695 76.3721C158.407 75.6981 158.116 75.5649 157.525 75.1605Z" fill="#DE516C"/>
<path d="M182.6 209.434C182.112 209.443 181.925 209.503 181.446 209.617C180.834 210.258 180.955 209.958 180.896 210.735C181.419 211.684 181.203 211.386 182.186 211.973C183.17 211.966 183.3 212.01 183.991 211.487L184.044 210.924C183.686 210.081 183.365 209.939 182.6 209.434Z" fill="#DE516C"/>
<path d="M130.381 153.643C130.023 153.644 129.58 153.682 129.217 153.702C128.071 154.716 128.894 155.928 129.522 157.059C130.573 156.985 130.616 156.863 130.999 155.986C130.994 155.04 130.729 154.528 130.381 153.643Z" fill="#DE516C"/>
<path d="M63.6032 214.94C62.5677 215.088 61.9362 215.294 61.5042 216.352C61.5255 217.511 61.4942 217.145 62.1173 218.215C64.0155 218.042 64.2035 216.393 63.6032 214.94Z" fill="#DE516C"/>
<path d="M161.293 80.2588C160.36 80.2867 160.545 80.1428 159.906 80.6314L159.857 81.1618C160.198 82.0038 160.435 82.1175 161.159 82.6579C161.266 82.6567 161.374 82.6541 161.48 82.6504C162.385 82.6177 162.461 82.6081 162.949 82.077L162.925 81.5843C162.535 80.822 162.056 80.6602 161.293 80.2588Z" fill="#DE516C"/>
<path d="M63.3208 136.982C62.3339 136.868 61.4653 136.529 61.1664 137.597C61.4114 138.281 62.0324 138.6 62.6377 139.011C63.5392 139.192 63.3631 139.296 64.0994 138.99L64.2716 138.54C64.1033 137.698 63.9258 137.582 63.3208 136.982Z" fill="#DE516C"/>
<path d="M110.267 192.407C110.11 192.507 109.807 192.772 109.649 192.903L109.652 193.54C110.074 194.481 110.856 195.107 111.609 195.814L112.19 195.38C112.728 193.815 111.497 193.142 110.267 192.407Z" fill="#DE516C"/>
<path d="M153.162 75.9903C152.201 75.938 151.23 76.0347 150.456 76.6355C149.995 77.443 150.105 77.1357 150.227 78.1665C152.227 78.7596 152.891 77.7525 153.162 75.9903Z" fill="#DE516C"/>
<path d="M80.6925 156.447C79.7021 156.539 79.3793 156.555 79.3105 157.513C79.6298 158.239 80.0045 158.383 80.6727 158.783C81.5929 158.684 81.6877 158.722 82.2641 158.18L82.2704 157.688C81.8783 156.907 81.4941 156.812 80.6925 156.447Z" fill="#DE516C"/>
<path d="M92.1785 87.6358C91.144 87.6795 90.6069 87.7364 89.9017 88.5696C89.5896 89.3306 89.6937 89.5644 89.8741 90.3409C91.6635 90.36 92.5102 89.4073 92.1785 87.6358Z" fill="#DE516C"/>
<path d="M189.884 209.871C189.285 209.517 188.511 209.717 188.158 210.318C187.805 210.919 188.008 211.692 188.611 212.042C189.21 212.391 189.978 212.189 190.329 211.592C190.68 210.994 190.481 210.225 189.884 209.871Z" fill="#DE516C"/>
<path d="M191.783 215.02C190.773 215.05 190.359 215.036 189.613 215.609C189.368 216.315 189.645 216.8 189.915 217.493C190.748 217.229 191.591 217.06 192.126 216.389C192.252 215.56 192.259 215.853 191.783 215.02Z" fill="#DE516C"/>
<path d="M99.6797 95.5022C98.8116 95.581 98.1227 95.7335 97.5147 96.3696C97.1556 97.3676 97.2411 97.0274 97.4101 98.1251C99.4224 98.4386 99.7936 97.1524 99.6797 95.5022Z" fill="#DE516C"/>
<path d="M193.777 220.759C192.941 220.733 192.268 220.81 191.526 221.19C190.955 222.019 191.105 221.709 191.165 222.858C192.041 222.924 192.774 223.022 193.494 222.541C193.96 221.665 193.814 221.867 193.777 220.759Z" fill="#DE516C"/>
<path d="M198.41 237.291C197.541 237.321 196.835 237.442 196.268 238.151C196.163 239.092 196.114 238.709 196.501 239.613C196.632 239.599 196.762 239.585 196.893 239.569C197.664 239.478 198.389 239.39 198.877 238.767C198.908 237.847 198.933 238.153 198.41 237.291Z" fill="#DE516C"/>
<path d="M14.3286 226.847C13.3573 226.855 13.1156 226.787 12.8506 227.705C13.0575 228.516 13.4061 228.764 14.0072 229.349C14.9129 229.303 15.1904 229.289 15.4619 228.461C15.2804 227.675 14.9097 227.411 14.3286 226.847Z" fill="#DE516C"/>
<path d="M83.9185 81.5808C83.0834 81.6745 82.216 81.7029 81.6024 82.2553C81.2193 83.1883 81.3402 82.9419 81.5113 84.0587C82.4444 83.9725 82.7217 83.9239 83.478 83.4021C84.0437 82.4401 83.8873 82.7643 83.9185 81.5808Z" fill="#DE516C"/>
<path d="M137.784 157.822C136.211 158.502 137.309 160.397 137.97 161.321C139.598 160.156 139.119 158.907 137.784 157.822Z" fill="#DE516C"/>
<path d="M125.783 233.935C125.173 234.054 125.001 234.049 124.593 234.502C124.246 235.267 124.639 236.371 124.844 237.238C125.727 236.917 125.428 237.136 126.008 236.443C126.271 235.624 125.982 234.785 125.783 233.935Z" fill="#DE516C"/>
<path d="M95.6418 91.9392C94.7663 92.005 94.4862 92.032 93.9554 92.5679C93.7502 93.2575 93.96 93.8488 94.1267 94.5461C94.9385 94.1805 95.3862 93.8772 95.8824 93.1539C95.9847 92.3039 96.0602 92.6221 95.6418 91.9392Z" fill="#DE516C"/>
<path d="M136.658 150.769C135.88 150.992 135.881 151.285 135.732 151.948C135.937 152.759 135.959 152.888 136.543 153.515C137.346 153.187 137.398 153.094 137.602 152.32C137.436 151.55 137.173 151.339 136.658 150.769Z" fill="#DE516C"/>
<path d="M118.861 144.74C117.319 145.384 117.771 146.584 118.25 147.821C119.757 147.151 119.36 145.97 118.861 144.74Z" fill="#DE516C"/>
<path d="M143.118 235.807C142.185 236.083 142.391 235.882 141.825 236.554C141.647 237.263 141.865 237.835 142.049 238.546C142.538 238.507 142.587 238.421 142.995 238.109C143.371 237.384 143.2 236.636 143.118 235.807Z" fill="#DE516C"/>
<path d="M92.5024 138.319C93.2855 138.159 93.5528 138.129 94.2717 137.76L94.1978 137.512C93.2925 137.346 92.7474 137.545 91.8542 137.763L92.5024 138.319Z" fill="#DE516C"/>
<path d="M77.4816 169.686C76.3864 168.655 75.8969 168.329 74.6648 167.523C75.2931 168.288 76.2325 169.506 76.9251 170.152L77.4816 169.686Z" fill="#DE516C"/>
<path d="M202.399 105.143C199.587 105.383 197.533 107.45 196.548 109.954C194.786 114.432 195.453 116.103 199.487 117.747C201.208 118.371 202.931 119.089 204.631 119.777C203.382 115.006 203.057 111.668 203.272 106.753C203.301 106.097 202.881 105.56 202.399 105.143Z" fill="#FEFEFE"/>
<path d="M193.54 108.937C191.795 109.068 191.269 109.639 189.892 110.696L191.57 112.055L193.723 113.633C193.836 112.007 193.964 110.516 193.54 108.937Z" fill="#FEFEFE"/>
<path d="M271.613 150.558V92.2656H288.768C295.596 92.2656 301.203 93.4592 305.589 95.8465C310.031 98.1782 313.306 101.537 315.416 105.923C317.581 110.253 318.663 115.472 318.663 121.579C318.663 127.574 317.581 132.737 315.416 137.068C313.306 141.398 310.031 144.729 305.589 147.061C301.203 149.393 295.596 150.558 288.768 150.558H271.613ZM278.608 144.729H288.601C294.264 144.729 298.761 143.813 302.092 141.981C305.423 140.093 307.81 137.429 309.253 133.987C310.697 130.489 311.418 126.353 311.418 121.579C311.418 116.693 310.697 112.502 309.253 109.004C307.81 105.506 305.423 102.814 302.092 100.926C298.761 99.0387 294.264 98.0949 288.601 98.0949H278.608V144.729Z" fill="white"/>
<path d="M354.928 151.558C349.321 151.558 344.38 150.309 340.105 147.81C335.886 145.257 332.582 141.731 330.195 137.234C327.863 132.682 326.698 127.408 326.698 121.412C326.698 115.472 327.863 110.253 330.195 105.756C332.582 101.204 335.886 97.6508 340.105 95.097C344.38 92.5432 349.321 91.2663 354.928 91.2663C360.646 91.2663 365.615 92.5432 369.834 95.097C374.053 97.6508 377.329 101.204 379.661 105.756C382.048 110.253 383.242 115.472 383.242 121.412C383.242 127.408 382.048 132.682 379.661 137.234C377.329 141.731 374.053 145.257 369.834 147.81C365.615 150.309 360.646 151.558 354.928 151.558ZM354.928 145.395C359.147 145.395 362.839 144.452 366.004 142.564C369.223 140.621 371.694 137.873 373.415 134.32C375.192 130.711 376.08 126.409 376.08 121.412C376.08 116.415 375.192 112.141 373.415 108.588C371.694 104.979 369.223 102.231 366.004 100.343C362.839 98.4557 359.147 97.512 354.928 97.512C350.764 97.512 347.072 98.4557 343.852 100.343C340.688 102.231 338.217 104.979 336.441 108.588C334.72 112.141 333.859 116.415 333.859 121.412C333.859 126.409 334.72 130.711 336.441 134.32C338.217 137.873 340.688 140.621 343.852 142.564C347.072 144.452 350.764 145.395 354.928 145.395Z" fill="white"/>
<path d="M403.313 150.558L387.324 92.2656H394.819L407.393 142.231L421.633 92.2656H429.461L443.368 142.397L456.109 92.2656H463.604L447.282 150.558H439.288L425.381 102.342L411.141 150.558H403.313Z" fill="white"/>
<path d="M471.913 150.558V92.2656H478.908L509.97 138.983V92.2656H516.965V150.558H509.97L478.908 103.841V150.558H471.913Z" fill="white"/>
<path d="M529.49 150.558V92.2656H536.485V144.979H563.633V150.558H529.49Z" fill="white"/>
<path d="M593.938 151.558C588.331 151.558 583.39 150.309 579.115 147.81C574.896 145.257 571.592 141.731 569.205 137.234C566.873 132.682 565.708 127.408 565.708 121.412C565.708 115.472 566.873 110.253 569.205 105.756C571.592 101.204 574.896 97.6508 579.115 95.097C583.39 92.5432 588.331 91.2663 593.938 91.2663C599.656 91.2663 604.625 92.5432 608.844 95.097C613.064 97.6508 616.339 101.204 618.671 105.756C621.058 110.253 622.252 115.472 622.252 121.412C622.252 127.408 621.058 132.682 618.671 137.234C616.339 141.731 613.064 145.257 608.844 147.81C604.625 150.309 599.656 151.558 593.938 151.558ZM593.938 145.395C598.157 145.395 601.849 144.452 605.014 142.564C608.234 140.621 610.704 137.873 612.425 134.32C614.202 130.711 615.09 126.409 615.09 121.412C615.09 116.415 614.202 112.141 612.425 108.588C610.704 104.979 608.234 102.231 605.014 100.343C601.849 98.4557 598.157 97.512 593.938 97.512C589.774 97.512 586.082 98.4557 582.862 100.343C579.698 102.231 577.227 104.979 575.451 108.588C573.73 112.141 572.869 116.415 572.869 121.412C572.869 126.409 573.73 130.711 575.451 134.32C577.227 137.873 579.698 140.621 582.862 142.564C586.082 144.452 589.774 145.395 593.938 145.395Z" fill="white"/>
<path d="M624.551 150.558L646.036 92.2656H653.447L674.849 150.558H667.438L649.7 101.01L631.879 150.558H624.551ZM634.377 135.569L636.376 129.906H662.774L664.773 135.569H634.377Z" fill="white"/>
<path d="M683.598 150.558V92.2656H700.753C707.581 92.2656 713.189 93.4592 717.575 95.8465C722.016 98.1782 725.291 101.537 727.401 105.923C729.566 110.253 730.649 115.472 730.649 121.579C730.649 127.574 729.566 132.737 727.401 137.068C725.291 141.398 722.016 144.729 717.575 147.061C713.189 149.393 707.581 150.558 700.753 150.558H683.598ZM690.593 144.729H700.586C706.249 144.729 710.746 143.813 714.077 141.981C717.408 140.093 719.795 137.429 721.239 133.987C722.682 130.489 723.404 126.353 723.404 121.579C723.404 116.693 722.682 112.502 721.239 109.004C719.795 105.506 717.408 102.814 714.077 100.926C710.746 99.0387 706.249 98.0949 700.586 98.0949H690.593V144.729Z" fill="white"/>
<path d="M763.051 150.558V92.2656H798.527V98.0116H770.046V118.497H794.28V124.16H770.046V150.558H763.051Z" fill="white"/>
<path d="M833.599 151.558C827.991 151.558 823.05 150.309 818.776 147.81C814.556 145.257 811.253 141.731 808.866 137.234C806.534 132.682 805.368 127.408 805.368 121.412C805.368 115.472 806.534 110.253 808.866 105.756C811.253 101.204 814.556 97.6508 818.776 95.097C823.05 92.5432 827.991 91.2663 833.599 91.2663C839.317 91.2663 844.286 92.5432 848.505 95.097C852.724 97.6508 856 101.204 858.331 105.756C860.719 110.253 861.912 115.472 861.912 121.412C861.912 127.408 860.719 132.682 858.331 137.234C856 141.731 852.724 145.257 848.505 147.81C844.286 150.309 839.317 151.558 833.599 151.558ZM833.599 145.395C837.818 145.395 841.51 144.452 844.674 142.564C847.894 140.621 850.365 137.873 852.086 134.32C853.862 130.711 854.75 126.409 854.75 121.412C854.75 116.415 853.862 112.141 852.086 108.588C850.365 104.979 847.894 102.231 844.674 100.343C841.51 98.4557 837.818 97.512 833.599 97.512C829.435 97.512 825.743 98.4557 822.523 100.343C819.358 102.231 816.888 104.979 815.111 108.588C813.39 112.141 812.53 116.415 812.53 121.412C812.53 126.409 813.39 130.711 815.111 134.32C816.888 137.873 819.358 140.621 822.523 142.564C825.743 144.452 829.435 145.395 833.599 145.395Z" fill="white"/>
<path d="M872.106 150.558V92.2656H890.926C895.479 92.2656 899.199 93.0428 902.085 94.5973C904.972 96.0963 907.11 98.1226 908.498 100.676C909.885 103.23 910.579 106.117 910.579 109.337C910.579 112.446 909.858 115.305 908.414 117.914C907.026 120.524 904.861 122.606 901.919 124.16C898.976 125.715 895.201 126.492 890.593 126.492H879.101V150.558H872.106ZM902.918 150.558L890.094 124.493H897.922L911.162 150.558H902.918ZM879.101 120.996H890.427C894.868 120.996 898.116 119.913 900.17 117.748C902.28 115.583 903.335 112.807 903.335 109.42C903.335 105.978 902.307 103.258 900.253 101.259C898.255 99.2052 894.951 98.1782 890.344 98.1782H879.101V120.996Z" fill="white"/>
<path d="M943.671 150.558V92.2656H951.832L972.401 132.987L993.053 92.2656H1001.3V150.558H994.302V104.757L975.066 142.397H969.819L950.666 104.923V150.558H943.671Z" fill="white"/>
<path d="M1009.94 150.558L1031.43 92.2656H1038.84L1060.24 150.558H1052.83L1035.09 101.01L1017.27 150.558H1009.94ZM1019.77 135.569L1021.77 129.906H1048.17L1050.17 135.569H1019.77Z" fill="white"/>
<path d="M1090.97 151.558C1085.31 151.558 1080.4 150.309 1076.23 147.81C1072.12 145.257 1068.96 141.731 1066.74 137.234C1064.52 132.682 1063.41 127.408 1063.41 121.412C1063.41 115.416 1064.52 110.17 1066.74 105.673C1068.96 101.121 1072.12 97.5952 1076.23 95.097C1080.4 92.5432 1085.31 91.2663 1090.97 91.2663C1097.63 91.2663 1103.05 92.8485 1107.21 96.013C1111.37 99.1775 1114.04 103.647 1115.21 109.42H1107.46C1106.57 105.812 1104.77 102.925 1102.05 100.76C1099.33 98.539 1095.64 97.4287 1090.97 97.4287C1086.81 97.4287 1083.2 98.4002 1080.15 100.343C1077.09 102.231 1074.73 104.979 1073.07 108.588C1071.4 112.141 1070.57 116.415 1070.57 121.412C1070.57 126.409 1071.4 130.711 1073.07 134.32C1074.73 137.873 1077.09 140.621 1080.15 142.564C1083.2 144.452 1086.81 145.395 1090.97 145.395C1095.64 145.395 1099.33 144.34 1102.05 142.231C1104.77 140.066 1106.57 137.207 1107.46 133.653H1115.21C1114.04 139.261 1111.37 143.647 1107.21 146.811C1103.05 149.975 1097.63 151.558 1090.97 151.558Z" fill="white"/>
</svg>
