<svg width="144" height="114" viewBox="0 0 144 114" fill="none" xmlns="http://www.w3.org/2000/svg">
<path d="M70.2782 2.1543C71.8092 1.94419 73.894 1.96198 75.8729 2.13379C77.8815 2.30818 80.0156 2.65959 81.536 3.20605H81.537C88.2847 5.63221 93.1694 9.45559 98.0702 13.5039C104.392 18.7264 108.381 22.252 110.336 26.7822C112.304 31.3429 112.105 36.6518 111.193 45.0039C111.107 45.7925 111.007 46.6235 111.004 47.4336C111.004 47.4845 111.004 47.5344 111.005 47.583C113.311 46.3437 115.767 45.3191 118.089 44.335C120.924 43.1329 123.572 41.9852 125.872 40.5273C127.252 39.6528 128.367 38.2812 130.023 36.5615C131.541 34.9865 133.473 33.1966 136.132 32.5264L136.356 32.4756C138.67 32.0263 140.658 33.7001 140.953 35.8057L141.012 36.2266L140.894 36.6357C140.633 37.5454 140.103 38.3826 139.587 39.0752C139.055 39.7892 138.421 40.4999 137.827 41.1494C137.207 41.8268 136.645 42.4229 136.141 43.0088C135.633 43.6 135.297 44.0541 135.117 44.3936C134.692 45.1935 134.275 46.1479 133.841 47.1797C133.42 48.1788 132.975 49.2767 132.534 50.2334C129.43 57.0696 126.367 64.4571 119.786 69.752C119.454 70.0188 117.855 71.3803 116.229 72.3467C115.448 72.811 114.432 73.3269 113.421 73.4795C112.896 73.5587 112.197 73.5684 111.499 73.2539C110.737 72.9108 110.218 72.2916 109.942 71.5693C109.39 70.1225 109.568 68.7662 110.162 67.6133C110.705 66.5586 111.57 65.7233 112.325 65.083C113.009 64.5031 114.024 63.7571 114.555 63.3301C115.242 62.7769 115.597 62.4074 115.748 62.1494L115.879 61.9043C116.164 61.3143 116.32 60.5931 116.481 59.5977C116.648 58.5745 116.832 57.1329 117.399 55.8115L117.435 55.7266L117.48 55.6455C118.209 54.3063 119.643 52.7814 120.65 51.625C120.845 51.4018 121.029 51.1841 121.205 50.9736C120.49 51.388 119.842 51.8353 119.473 52.0928C117.196 53.6787 115.165 55.3861 113.426 57.3877C113.79 58.0258 114.092 58.6226 114.475 59.4082L114.973 60.4277L114.353 61.3779C113.656 62.4483 112.995 63.156 112.367 63.7686C111.727 64.3928 111.271 64.7868 110.709 65.4346C110.187 66.0358 109.845 67.1942 109.641 69.0166C109.543 69.883 109.489 70.7527 109.416 71.6787C109.346 72.5657 109.259 73.5088 109.092 74.3613C108.631 76.7076 107.71 78.3304 106.705 79.75C105.66 81.2256 104.818 82.1416 103.938 83.6641C103.807 83.912 103.664 84.3096 103.512 84.9082C103.358 85.5098 103.227 86.1745 103.067 86.9434C102.774 88.358 102.379 90.215 101.535 91.6582C99.1393 95.7556 96.0819 98.1514 92.7802 99.9746C91.1562 100.871 89.4589 101.637 87.7919 102.384C86.1039 103.14 84.4364 103.881 82.7548 104.764C82.4478 104.925 81.5938 105.531 80.4969 106.342C79.5023 107.077 78.3802 107.926 77.7479 108.363L77.7108 108.389L77.6727 108.413C73.1379 111.256 67.6356 111.77 62.5048 110.342L62.0096 110.197C61.0233 109.897 60.1304 109.3 59.3934 108.714C58.6366 108.112 57.9002 107.402 57.2421 106.747C56.5524 106.061 55.9755 105.464 55.4198 104.946C54.8419 104.408 54.488 104.152 54.3085 104.065C49.4464 101.726 46.058 99.2145 42.3016 95.2881V95.2871C41.7686 94.7323 40.7795 93.7871 39.9852 92.8838C39.1817 91.9698 38.2601 90.7648 37.8534 89.4121C37.4488 88.0663 37.3792 86.5551 37.2909 85.4385C37.1955 84.232 37.0746 83.3355 36.7733 82.6143C34.4707 78.5859 31.9289 74.3773 30.1923 69.7383C29.0985 66.888 29.0811 64.6957 29.746 62.582C30.0561 61.5962 30.4984 60.6776 30.9423 59.8086C31.2238 59.2574 31.5019 58.7297 31.7831 58.1738C30.9074 57.157 29.7059 55.8915 28.4266 54.6846C26.665 53.0225 24.9847 51.689 23.9315 51.1836C23.4155 50.9361 22.1383 50.572 20.6757 50.3418C21.089 50.6487 21.5456 50.9805 22.0428 51.334C23.2623 52.201 24.6793 53.1965 25.829 54.2188C26.9001 55.1712 28.1506 56.4897 28.4843 58.0996L28.4882 58.1172L28.5116 58.2363H28.5106C28.733 59.323 28.8876 61.5886 29.0096 63.6787C29.1393 65.8998 29.2399 68.0796 29.3339 69.2451L29.6532 73.2012L26.2831 71.1035C17.3858 65.564 11.4856 54.7047 7.58777 46.1221C7.44432 45.8062 7.07783 45.2675 6.44714 44.4473C5.88694 43.7187 5.10953 42.7563 4.44812 41.8623C3.77496 40.9524 3.07942 39.929 2.61121 38.915C2.17561 37.9716 1.73218 36.6064 2.20203 35.2373L2.54578 34.2354L3.56824 33.957C4.08926 33.8152 4.57573 33.8535 4.91101 33.9082C5.26729 33.9663 5.61083 34.0697 5.91492 34.1807C6.52274 34.4025 7.15495 34.722 7.7196 35.041C8.83833 35.673 9.95478 36.4545 10.494 36.915C12.3307 38.4835 14.2991 39.3991 16.5009 40.1699C17.6191 40.5614 18.7532 40.902 19.9882 41.2871C21.2037 41.6662 22.4875 42.0795 23.8016 42.5957C25.2943 43.182 27.033 44.2788 28.4296 45.0771C29.5374 45.7105 30.4842 46.1892 31.2821 46.4629C31.3276 46.0028 31.3394 45.3942 31.3114 44.6553C31.2712 43.5934 31.1645 42.4766 31.076 41.4561C31.0331 40.9612 30.9936 40.4756 30.9745 40.0596C30.961 39.7667 30.9495 39.3829 30.9872 39.0176C30.7681 31.6235 32.9985 25.5547 37.9159 20.0029C42.5938 14.7215 47.0166 10.596 52.1395 7.62305C57.2865 4.63623 63.0308 2.87543 70.2782 2.1543Z" fill="white" stroke="#DE516C" stroke-width="4"/>
<path d="M79.2398 75.3615C81.3859 75.841 83.221 80.1855 86.2073 81.8432C89.1038 83.7771 92.9552 83.3956 95.9462 84.4175C97.39 84.9106 95.0011 92.2291 92.749 92.471C90.5721 91.4716 91.0005 87.7461 88.9316 87.4597C87.6455 88.4244 90.8487 92.4799 88.5949 93.0712C82.9191 94.5606 78.5649 92.954 73.2982 96.3195C74.847 97.2506 75.2572 97.4934 76.6363 98.6949C74.6162 101.611 72.6465 101.686 69.342 101.361C67.7553 101.204 62.2629 101.209 62.7172 98.8615C63.8431 97.5879 65.3506 97.3587 67.011 96.8561C64.6833 94.822 63.2803 93.7793 60.3182 92.8921C58.3374 92.6774 51.6961 92.8261 50.2068 91.7377C48.6593 90.607 51.4518 88.6417 51.3815 87.4034C50.6945 86.9819 51.0087 87.054 50.1968 87.1411C48.0108 88.4162 47.2714 90.7976 46.429 92.9357C45.3525 91.9434 44.5756 91.2722 43.8824 89.9813C42.1284 86.7166 41.8116 82.6998 46.6664 83.1008C52.3729 83.5721 55.9912 78.1453 60.6542 75.7303C61.7242 77.1838 62.8012 79.5611 63.9204 81.262C65.566 83.7631 68.2109 86.6432 69.3953 89.251C71.9422 86.3996 75.4161 83.5428 77.4832 80.632C78.0644 79.8136 77.9688 77.6707 79.2398 75.3615Z" fill="#DE516C"/>
<path d="M59.1302 82C60.5562 83.2425 63.3716 86.8372 64.5424 88.3857C62.7323 88.5674 61.7963 88.7101 60.0464 88.0658C57.9014 87.5278 56.0997 86.9967 54.0009 86.3401C55.4717 84.7571 57.4123 83.3387 59.1302 82Z" fill="white"/>
<path d="M82.2218 84.1728C82.3912 84.1543 82.6576 84.2292 82.8388 84.2663C85.6169 86.9038 80.5155 88.8883 78.4678 89.4963C77.8724 89.6156 77.5728 89.7132 76.9636 89.5923L76.792 89.2198C77.2733 87.6866 80.877 85.1516 82.2218 84.1728Z" fill="white"/>
<path d="M48.0513 49.6777C56.8531 49.2843 62.8298 51.7401 68.7126 58.4498C67.0972 63.5207 66.7901 64.624 65.9529 69.9036C64.8192 70.526 63.7097 70.0784 62.4957 69.7408C60.672 70.3933 59.2877 71.4078 57.7187 72.5064C56.6839 73.2358 55.564 73.8971 54.4827 74.5603C53.1628 74.6695 48.4421 74.5057 47.4923 73.7462C45.2581 71.7257 42.1587 67.7035 41.1092 64.9009C40.3767 62.9451 38.3446 56.5499 39.5404 54.8346C41.1206 52.5682 45.4118 50.2877 48.0513 49.6777Z" fill="#DE516C"/>
<path d="M50.7373 55.3199C52.4045 55.0838 56.9039 57.3573 58.2698 58.5553C60.0506 60.1174 62.4267 62.4172 60.2836 64.7597C58.1701 67.07 54.4746 67.0791 51.5995 67.2319L51.3306 67.2099C47.07 66.8369 43.0452 62.0749 40.3608 58.8576C43.7714 55.3657 45.9655 55.545 50.7373 55.3199Z" fill="white"/>
<path d="M53.1399 57.7548C54.4258 57.6407 56.6533 59.6551 56.6557 61.1406C56.1998 62.4768 54.9084 63.3994 53.831 64.3073C53.1056 64.0689 51.4986 62.9744 51.1069 62.3373C49.7172 60.0775 51.5953 58.7154 53.1399 57.7548Z" fill="#DE516C"/>
<path d="M95.2806 49.638C97.5918 49.3385 101.561 53.6445 102.662 55.5092C102.336 56.887 101.442 58.4273 101.076 60.0145C100.749 61.4307 100.385 63.2979 99.9855 64.6274C98.9234 68.1578 95.0086 70.5284 92.4056 72.8862C90.839 74.305 89.7774 75.8186 88.0124 77.082C86.0312 76.2016 83.7284 74.2327 81.5689 73.025C80.1568 72.1835 78.3821 71.0515 76.8877 70.4729C75.7922 70.8998 74.3669 71.5906 73.2665 72.0844C72.5659 69.4521 72.0333 60.9369 71.8906 57.8163C74.8454 55.6113 77.7726 56.3062 80.9864 55.1723C86.567 53.2034 89.2838 50.9312 95.2806 49.638Z" fill="#DE516C"/>
<path d="M91.2191 55.2599C95.0346 54.9042 96.5947 55.7464 98.2466 59.2737C96.3938 64.0895 93.4744 69.1497 87.4979 68.9585C85.2873 68.6662 80.1913 64.2907 80.304 62.1951C81.1195 60.8171 89.6429 55.8588 91.2191 55.2599Z" fill="white"/>
<path d="M87.3568 58.4379C91.4784 58.085 92.6529 62.065 88.453 64.7457C87.0458 65.1946 85.5183 63.126 84.6379 62.1943C85.4242 60.3544 85.9881 59.809 87.3568 58.4379Z" fill="#DE516C"/>
<path d="M98.2887 21.0602C100.233 21.4338 101.763 24.0407 102.266 25.8042C102.604 27.0091 102.749 28.2607 102.693 29.5113C102.552 32.5693 101.669 35.8839 101.22 38.9289C100.941 40.8266 101.477 44.4994 100.497 46.1349C100.072 46.8389 99.3842 47.3444 98.5855 47.5395C96.746 47.2904 90.9359 41.5375 89.4886 39.9745C89.2504 39.6577 89.0132 39.3117 88.782 38.9869C88.5708 35.5398 96.3645 37.168 97.6376 32.9705C98.1497 31.2819 99.0894 27.7448 96.9703 26.6951C94.7449 26.4281 92.1696 30.3202 89.9365 29.6887L89.8549 29.3158C91.3382 27.2131 95.9917 22.2516 98.2887 21.0602Z" fill="#DE516C"/>
<path d="M41.8168 21.4273C43.3974 21.778 52.0726 26.7592 52.5199 28.9642C52.6408 29.5596 52.5715 29.9977 52.2361 30.5028C49.3122 31.6019 44.9237 25.9749 42.6596 27.3462C41.852 28.9247 43.3282 32.287 44.2234 33.6272C45.8805 36.1083 47.7052 36.061 50.363 36.5397C50.5588 36.6126 50.7535 36.689 50.9466 36.7687C51.7954 37.1213 51.9737 37.2989 52.2925 38.0586C52.0249 39.8338 49.5639 41.9987 48.1351 43.0033C40.2076 48.5376 39.7611 44.1828 39.3471 37.0976C39.0251 31.5816 37.7088 26.0692 41.8168 21.4273Z" fill="#DE516C"/>
<path d="M64.618 45.0067C67.7575 45.2253 69.5432 50.9588 66.6942 52.3276C64.0014 50.1812 60.9883 48.1536 64.618 45.0067Z" fill="#DE516C"/>
<path d="M74.2891 44.9465C76.1801 45.2459 76.2382 47.4477 75.7014 48.8529C75.1099 50.4012 74.6651 50.939 73.5253 52.0699C72.277 51.4991 72.1194 50.3487 71.6995 49.1248C72.3417 47.0456 72.623 46.2794 74.2891 44.9465Z" fill="#DE516C"/>
</svg>
