<svg width="98" height="101" viewBox="0 0 98 101" fill="none" xmlns="http://www.w3.org/2000/svg">
<path d="M96.5126 0C96.7136 0.121184 97.5572 0.954038 97.823 1.18587C98.0534 1.82703 96.9378 2.7025 96.3774 2.90494C95.7788 2.78398 95.6495 2.15657 94.9732 2.17081C93.3358 2.20529 91.6992 2.21527 90.0608 2.22349L79.3144 2.24234L37.2174 2.25048L22.6228 2.24426C20.3909 2.24293 18.1577 2.21067 15.9264 2.26428C14.5743 2.3039 13.8178 2.54988 13.0068 3.69299C11.5078 5.80627 11.5679 8.63631 13.7859 10.2259C15.1741 11.1918 17.2861 10.9954 18.1721 9.44863C19.3519 7.38914 19.0022 6.29258 17.0814 5.11661C16.937 5.68234 16.7172 6.8811 16.1826 7.13264C14.9453 7.71493 13.829 6.16655 14.3505 5.02274C14.7324 4.185 15.0902 4.02237 15.8588 3.67063C18.1939 3.71313 20.0772 4.43443 20.0899 7.08782C20.1084 8.39384 19.5982 9.65176 18.6751 10.5759C17.8164 11.4273 16.7247 11.8192 15.5229 11.8124C14.2667 11.8086 13.0655 11.2977 12.1913 10.3957C9.70237 7.81798 10.7814 4.07921 13.1385 1.86521C12.5977 2.01203 12.0208 2.14307 11.5653 2.45379C8.89364 4.27655 8.73881 7.86016 10.5196 10.3469C11.5911 11.8431 12.8697 12.5125 14.5903 12.858C18.389 13.6192 21.8147 10.9156 22.2029 7.1203C22.2733 6.43233 22.2028 4.97412 22.7602 4.60709C23.3028 4.68281 23.5635 5.47868 23.7437 5.97881C24.704 8.64411 28.5046 10.6076 30.255 7.56643C31.4882 5.42384 28.0027 2.56875 26.49 5.08075C26.2874 5.42278 26.2735 5.94833 26.4342 6.32201C27.2657 6.93647 28.6648 5.96637 29.3269 6.59401C29.3622 6.97728 29.0831 7.50041 28.7658 7.68445C27.3896 8.48232 26.1977 7.80226 25.3409 6.65012C25.0529 6.26294 25.0428 5.82335 25.1735 5.36614C26.1139 2.078 30.1133 2.39295 31.4431 5.21047C32.3245 7.07316 31.2123 9.0605 29.4522 9.87905C28.3903 10.3781 27.1728 10.4318 26.0711 10.0281C24.4963 9.44789 23.8435 8.36631 23.1964 6.9564C23.2025 7.79583 23.2103 8.2486 22.9907 9.07569C22.504 10.8422 21.3386 12.3446 19.7489 13.2556C17.5396 14.5238 15.233 14.2657 12.894 13.6274C12.9951 13.7297 13.094 13.8341 13.1907 13.9405C15.6442 16.5941 14.9581 21.6496 12.303 23.9649C10.7053 25.3583 9.49417 25.7005 7.4079 25.6062C9.42256 26.683 10.8635 27.7746 10.8729 30.4509C10.8844 33.7093 6.84248 34.9977 4.68007 32.9041C3.64414 31.9011 3.95453 29.2568 5.18411 28.2721C5.62516 27.9208 6.19153 27.7671 6.74956 27.847C7.97405 28.0128 8.84459 28.9882 9.07483 30.2032C9.32511 31.5249 6.85577 31.5914 6.63291 31.1982C6.94995 30.607 7.83441 30.6769 7.73474 29.7691C7.02104 28.475 4.29201 29.4869 5.13547 31.2914C5.60307 32.2919 5.65992 32.4178 6.71402 32.9046C6.88783 32.9033 7.06164 32.8975 7.23514 32.8871C10.2036 32.7293 10.8037 29.3632 8.63576 27.6681C7.8439 27.049 5.42776 25.9601 5.35485 25.1196C5.96023 24.2192 13.8726 25.9346 13.5799 17.2556C12.8848 11.8008 5.55719 9.68361 3.06339 15.5175C4.57699 14.4589 5.57164 13.3798 7.62949 13.4679C9.01535 13.5274 10.5212 14.2504 11.4514 15.2805C12.2375 16.1506 12.6339 17.3043 12.5483 18.4738C12.3858 20.8304 10.1016 23.089 7.66334 22.8064C5.91193 22.6033 3.93772 21.0017 4.16765 19.0856C4.25989 17.9783 5.4973 16.6024 6.68079 16.8C7.36181 16.9137 8.4128 17.9946 8.26114 18.7589C7.86352 19.4814 6.90028 19.3247 6.05473 19.806C5.8446 20.1094 5.87632 19.9711 5.92564 20.3214C6.32452 20.9341 6.94942 21.3289 7.66883 21.4803C9.85962 22.0364 11.0804 20.1984 11.4449 18.3042C11.7928 16.4959 9.77061 14.8042 8.07847 14.6332C6.10304 14.4335 3.63783 15.5107 3.19553 17.5696C3.06802 18.1632 3.15375 19.7548 3.15745 20.4386L3.16303 25.0975L3.15523 41.739L3.15127 91.3061C3.15025 93.9619 3.02452 97.0518 3.56854 99.6923C3.62864 99.9845 2.68585 100.671 2.38676 100.898C2.19954 100.753 1.48354 100.219 1.38365 100.069C1.01752 99.5194 1.59651 98.3981 1.59098 97.6311C1.55466 92.5847 1.5872 87.5146 1.59075 82.4695L1.57633 36.4473L1.52103 22.8165C1.51472 21.9303 1.5038 21.0442 1.49857 20.1541C1.47984 16.9682 0.991305 13.651 4.10043 11.6342C5.5683 10.6819 7.6143 10.4981 9.31794 10.8481C8.02194 8.37348 7.88367 5.1301 9.50082 2.74116C9.83853 2.2431 10.8711 1.19533 11.5073 1.10784C14.462 0.701546 17.7194 0.895366 20.7004 0.895345L37.0266 0.890325L95.551 0.981651C96.059 0.607226 96.1513 0.51686 96.5126 0Z" fill="black"/>
<path d="M4.5568 42.9791C4.88632 42.9807 5.18029 42.9502 5.4765 43.079C5.63159 43.3413 5.47467 45.28 5.46803 45.7711C5.45708 47.8345 5.457 49.8979 5.46779 51.9612L5.49297 74.5775C5.49186 78.2175 5.3292 83.5336 5.58722 87.0188L6.23532 87.8368L5.66764 88.6901C5.20527 88.875 4.90376 89.0777 4.44788 88.8312C4.33434 88.5944 4.14377 88.1927 4.15771 87.9304C4.18401 87.4355 4.53359 86.7022 4.53525 86.2079C4.54274 83.9957 4.54171 81.7746 4.54068 79.5633L4.5568 42.9791Z" fill="black"/>
<path d="M84.7334 2.82007C85.5301 3.07896 85.8999 3.58269 86.4421 4.19851L85.8659 5.12358L84.8457 5.58585L84.2906 4.90041C80.3981 4.66669 74.7798 4.83565 70.7428 4.83175L42.7513 4.91475C42.0225 4.93479 41.2724 4.97624 40.5481 4.91001C40.299 4.66701 40.2988 4.48244 40.4557 4.20801C41.4818 3.64192 79.7701 4.03725 84.4418 3.92915C84.5443 3.59244 84.6426 3.16768 84.7334 2.82007Z" fill="black"/>
<path d="M7.11641 2.66528L7.30035 2.81297C7.59123 3.45516 6.52515 5.14094 6.4779 6.19932C6.40829 7.76078 6.82352 8.20829 7.73846 9.33955C4.81009 9.26551 3.90625 9.48625 1.56319 11.4805C1.32826 11.6804 1.15419 11.8237 0.866732 11.7891L0.784677 11.6012C0.809251 10.9315 1.22888 10.1185 1.57286 9.55449C1.83124 9.17238 2.19973 8.75419 2.4997 8.39444C1.08135 7.29398 0.359332 5.92816 0 4.20026L0.581565 3.31351C1.97123 4.00177 3.02169 4.17179 4.19781 5.23481C5.00385 4.45223 6.18248 3.19059 7.11641 2.66528Z" fill="black"/>
<path d="M4.27087 33.9314C6.4997 35.36 7.28924 35.0263 9.84844 34.8778C8.84501 36.1324 7.99346 36.4911 6.59463 37.2863C5.56572 37.9718 5.00307 39.5692 4.43494 40.7002C4.30641 38.5266 4.42018 36.3034 4.27087 33.9314Z" fill="black"/>
<path d="M31.7751 3.62329C33.4342 3.76758 34.9962 3.75493 36.6515 3.70894C36.8721 3.70283 36.9302 3.72445 37.0891 3.86366C36.8955 4.24483 35.5973 4.9984 35.2025 5.39212C34.7885 5.80482 34.6548 5.96133 34.3107 6.44058C33.9461 7.04924 33.0437 8.70521 32.4508 8.96561C32.0304 8.60449 32.6209 6.7842 32.5124 5.99002C32.3565 4.8499 32.3753 4.65025 31.7751 3.62329Z" fill="black"/>
</svg>
