<svg width="37" height="90" viewBox="0 0 37 90" fill="none" xmlns="http://www.w3.org/2000/svg">
<path d="M8.68215 49.6602C10.4487 49.5521 12.3203 50.163 13.8374 51.0615C14.2629 51.3135 14.7769 51.7788 15.1577 52.1152C15.6172 51.3903 15.8907 50.8976 16.5513 50.3281C18.3474 48.7793 20.1613 50.6679 21.312 52.0527C23.6038 48.9931 29.1742 49.1503 32.0474 51.2021C37.2758 54.9364 36.9766 61.8831 34.4361 67.1152C33.6493 68.7355 32.4625 70.2246 31.4409 71.6973C28.6725 75.6886 25.1189 80.4849 25.48 85.5889C25.5987 87.1756 27.1411 88.2159 28.7085 87.9238C28.5106 87.0479 28.2265 85.7764 28.8775 85.0244C29.3934 84.4287 30.3773 84.6405 30.8882 85.1309C31.8069 86.0838 31.559 87.5125 30.7564 88.4053C29.2884 90.0384 26.882 90.0908 25.2847 88.502C21.8239 85.0605 24.8475 78.8796 26.6646 75.2637C27.0812 74.4348 27.4296 73.6518 27.8638 72.8398C28.6028 71.4231 29.47 70.0539 30.2202 68.6582C30.8736 67.4222 31.4526 66.1474 31.9536 64.8418C32.6222 63.0622 32.8569 61.4647 32.8589 59.5732C32.8522 59.433 32.8328 59.1159 32.6822 59.043C32.2431 58.8595 32.2513 59.1119 32.1909 59.4541C31.9441 60.853 31.3152 62.4286 30.4077 63.5391C29.2851 64.9137 26.8855 65.1116 25.523 63.9229C24.8926 63.3755 24.5094 62.5963 24.4614 61.7627C24.3224 59.5802 27.2085 59.17 27.5103 60.9355C27.5718 61.2963 27.4095 62.7296 27.4068 63.2422C27.9589 63.2037 28.7287 63.1438 29.1011 62.6982C31.8877 59.3617 29.6404 53.3274 25.0435 53.3047C24.0176 53.2995 23.2583 53.54 22.4243 54.1348C21.8752 54.5266 21.3677 55.0082 21.2427 55.6953C20.9262 57.6407 20.9267 59.6412 20.7105 61.5986C20.5783 62.7955 20.3966 63.9907 20.2525 65.1865C19.7102 67.9767 19.395 70.5807 19.2456 73.4199C19.1433 75.1674 19.0751 76.9169 19.0396 78.667L19.0298 82.5098C19.0288 83.5184 19.0067 84.6092 19.0894 85.6084C19.5341 85.8657 20.4296 86.1054 20.6724 86.3916C20.6807 86.8456 18.5902 88.8304 18.1294 89.4326C17.4838 88.1729 16.4999 87.8054 15.7447 86.4639C16.2107 86.1839 16.6953 85.8991 17.0982 85.5342C17.1932 85.0138 17.1804 84.4367 17.1841 83.9062C17.2164 79.2863 17.1527 74.6733 16.7056 70.0713C16.4874 68.1904 16.007 66.3755 15.8247 64.4883C15.726 63.4663 15.5626 62.4294 15.4517 61.4053C15.3388 60.2727 15.2625 59.1364 15.2241 57.999C15.1878 56.9328 15.3491 55.9177 14.6597 55.0176C12.0035 51.5513 6.46101 53.8094 5.88625 57.7871C5.66895 59.2915 5.76262 61.0377 6.68899 62.3037C7.27159 63.1047 7.93284 63.1853 8.84328 63.3135C8.90372 61.492 7.85492 60.4515 10.065 59.7549C10.877 59.9089 11.7311 60.3128 11.7857 61.2334C11.8861 62.9282 10.5092 64.7652 8.74075 64.7422C6.22236 64.7902 4.65892 62.7264 4.22024 60.4336C4.13767 60.0018 4.0273 59.2523 3.48586 59.251C3.26285 59.4925 3.38424 60.2954 3.4009 60.6777C3.56721 64.9724 6.08423 68.6264 8.04836 72.2529C10.2256 76.2729 12.8658 80.7951 12.3501 85.5059C11.9743 88.9371 7.817 91.2987 5.37746 88.2051C4.96708 87.6825 4.78416 87.017 4.87063 86.3584C4.94314 85.8042 5.21655 85.3155 5.64602 84.9717C6.18631 84.5505 7.17441 84.5452 7.5884 85.1553C8.02452 85.7971 7.70705 86.6549 7.60696 87.3516C7.58118 87.5307 7.54236 87.7097 7.51028 87.8867C8.48613 88.1135 9.2854 88.033 9.95364 87.2236C10.7012 86.3414 10.7211 85.1454 10.6314 84.0459C9.90548 75.158 0.847689 70.1141 0.0532455 61.2568C-0.44541 55.6961 2.57391 50.2748 8.46145 49.6768C8.53491 49.6704 8.60853 49.6649 8.68215 49.6602ZM13.6236 42.9775C13.8338 43.0693 14.0465 43.1556 14.2613 43.2363C16.8639 44.1855 20.204 44.1664 22.73 42.9863C22.537 43.9328 22.5179 44.9799 22.2993 45.9053C22.0186 47.0937 21.6376 48.1097 21.4077 49.3281C21.41 49.4768 21.4336 49.604 21.3501 49.7158C21.1673 49.6819 19.9242 48.3628 19.0835 48.1777C17.7898 47.893 16.9012 47.8454 15.8794 48.9717C15.7354 49.1303 15.4923 49.5297 15.3423 49.6064C15.1675 49.4172 15.0111 49.0898 14.8755 48.8584C13.9418 47.2642 13.5963 44.8417 13.6236 42.9775ZM7.0591 36.8125C7.42464 36.8864 8.22107 37.4648 8.65578 37.667C10.5572 38.5514 12.9359 39.3457 15.0142 39.6094C16.2285 39.7475 17.5145 39.6895 18.7261 39.7168C21.1887 39.7722 23.439 39.3396 25.7437 38.4902C26.3922 38.2512 27.0092 38.0506 27.6372 37.7236C28.1732 37.4446 28.7582 37.0399 29.3238 36.8438L29.3501 36.835C28.9908 37.5128 28.5442 38.0789 28.0396 38.6514C25.5041 41.2405 22.4788 42.1059 18.9322 42.5547C16.814 42.8224 13.5478 41.861 11.5484 41.1338C10.4085 40.7185 7.17073 38.0772 7.0591 36.8125ZM20.2378 16.0127C20.2368 16.7187 20.2518 17.4586 20.2974 18.1621C20.7207 24.6929 21.1327 31.2048 21.4654 37.7412C20.9271 37.7812 20.3704 37.788 19.8296 37.8018C18.0737 37.8996 16.3018 37.8271 14.5445 37.7812C14.5803 37.0582 14.6502 36.348 14.7212 35.6279C15.0944 31.8396 15.3634 28.0505 15.648 24.2559C15.8544 21.502 15.8427 18.7058 16.0757 15.9609L20.2378 16.0127ZM18.2212 0C18.3923 0.0535254 18.8049 1.46458 18.9146 1.7793C19.786 3.93303 20.7423 5.61237 21.314 7.88379C21.9469 10.3988 19.6334 15.0279 19.3667 9.99805C18.6234 10.4092 17.6518 11.099 17.812 12.0674C17.9332 12.5965 18.3821 13.2908 18.0454 13.791C17.7005 14.276 17.1845 13.9661 16.7798 13.7881C15.2941 13.1345 14.7711 11.8957 14.6782 10.3438C14.5 7.36254 15.7619 4.48986 17.1363 1.91211C17.4182 1.38318 17.8405 0.439688 18.2212 0Z" fill="#000000"/>
</svg>
