<svg width="247" height="238" viewBox="0 0 247 238" fill="none" xmlns="http://www.w3.org/2000/svg">
<g clip-path="url(#clip0_1317_966)">
<path d="M16.3375 0H230.261C231.817 0.820115 233.691 1.21727 235.336 2.04387C241.226 5.0059 244.171 9.61257 246.193 15.6836L246.367 16.2091V221.092C243.697 229.368 239.757 234.662 230.95 237.033C229.647 237.384 227.638 237.44 226.495 238H176.114H161.852H136.701H119.335H86.4442H54.6191H39.9099H20.2811C18.0776 237.31 15.9585 237.107 13.3295 236.192C7.7354 234.463 3.70292 230.175 1.36919 224.915C0.795517 223.622 0.665284 222.031 0 220.788V179.539V178.833V175.977V173.897V168.237V16.5467C2.44975 7.23864 7.40573 2.92078 16.3375 0ZM99.5223 141.99C99.4398 142.975 99.6116 142.82 99.0398 143.364C97.1347 143.35 92.8623 137.456 90.7752 135.851C94.5223 141.347 99.4296 147.67 98.0844 154.657C97.9709 155.246 97.9028 155.688 97.4745 156.109L97.0317 156.082C96.5448 155.38 96.222 153.249 96.026 152.334C94.1581 143.612 88.7482 136.079 80.4312 132.449C84.1156 135.779 85.815 137.403 87.0887 142.357C83.9396 140.052 81.7558 136.434 77.9266 134.746C76.3917 134.07 75.6085 133.905 75.6315 132.24L75.2603 132.012C72.3209 132.757 67.7635 134.227 64.8887 134.446C59.2469 134.892 53.037 134.03 47.5379 135.696C40.3608 137.871 33.8608 143.203 27.3607 146.704C15.9321 152.861 7.22911 156.763 0 168.237V173.897V175.977V178.833V179.539V220.788C0.665284 222.031 0.795517 223.622 1.36919 224.915C3.70292 230.175 7.7354 234.463 13.3295 236.192C15.9585 237.107 18.0776 237.31 20.2811 238H39.9099H54.6191H86.4442H119.335C121.201 237.547 125.472 237.805 127.982 237.382C126.334 234.051 125.365 230.543 123.982 227.075C122.446 223.226 120.311 219.837 118.013 216.385C114.018 210.384 107.282 205.126 103.725 199.074C102.214 196.504 101.698 189.947 100.85 186.665C99.8047 182.616 99.1356 177.594 97.6718 173.614C94.8065 165.822 89.4722 157.671 83.706 151.693C82.5714 150.516 80.0433 149.178 78.7938 147.894C78.2281 147.314 78.1844 147.248 78.1811 146.587C78.243 146.563 78.3048 146.539 78.3664 146.515C87.5384 147.969 92.2424 156.876 97.2042 163.708C98.023 164.835 98.5178 165.718 99.0949 166.017C99.543 165.694 99.6283 165.587 100.154 165.481C101.345 166.545 100.112 168.297 100.498 169.501C100.849 170.595 101.701 172.359 102.199 173.44C102.798 176.121 103.492 179.654 104.363 182.189C110.803 171.314 117.572 173.181 127.185 167.891C130.949 165.819 133.591 158.937 138.521 156.918C142.608 155.245 144.324 155.64 148.585 156.23C151.725 156.6 154.975 157.232 158.129 157.434C157.32 152.41 157.394 149.352 157.822 144.322C158.028 141.899 156.608 138.3 157.593 135.732C157.827 135.124 158.012 135.038 158.599 134.725C159.521 134.122 162.8 135.184 163.765 135.597C166.555 136.792 168.359 140.901 169.373 143.626C171.852 139.033 174.444 135.218 168.295 134.374C167.443 134.257 167.658 132.614 167.791 132.536C173.393 129.236 175.423 128.54 178.634 122.754C174.273 114.513 185.226 116.406 188.177 112.396C189.657 110.385 184.863 106.865 183.747 105.618C180.386 101.861 176.824 98.4964 173.069 95.1479C170.799 93.124 172.521 90.4321 173.628 88.3145C173.058 83.3783 170.255 81.6577 168.573 77.7044C166.692 73.2826 163.945 70.0148 161.85 66.0531L162.032 65.6013L162.586 65.4416C163.995 65.7201 165.436 67.0825 166.54 68.0159C171.457 62.3572 172.246 57.7889 170.486 50.6215C166.25 53.1832 162.879 57.7362 157.574 58.5694C157.009 58.6584 157.545 59.7812 157.111 60.6354C155.877 60.8264 153.193 58.4557 151.908 57.5809C151.518 59.1093 150.152 65.4349 147.74 64.5605C147.456 63.6487 148.361 60.1382 148.513 58.9178C149.285 52.7126 148.113 49.5354 144.44 44.7496C142.486 47.6639 138.308 57.6546 134.344 57.2743L134.002 56.8395C133.785 54.6666 137.008 52.3168 137.287 50.644C136.701 49.2983 135.022 49.1126 133.656 48.869C114.747 45.501 90.7296 43.117 77.3642 60.0329C69.3895 70.1261 67.3473 82.7264 68.5835 95.2279C68.6442 95.8861 68.8796 96.6157 69.4198 97.0015C70.1949 96.2366 70.0443 92.0921 71.4151 91.2486C75.6812 90.8323 71.2773 97.8619 73.7709 99.0982C74.9247 97.5558 74.1602 93.9335 76.2411 93.0696C79.0537 93.6226 76.7924 99.1291 77.8999 100.325C78.4749 99.7434 79.2721 96.8697 79.5998 95.8884C80.3743 95.3587 80.685 95.1175 81.5113 95.6516C82.3561 96.9822 81.8546 99.0494 81.8885 100.724L82.153 100.963C83.2456 100.219 83.0427 97.699 84.6715 97.8394C85.3558 98.4128 85.4964 100.145 85.6191 101.036L86.0052 101.236C88.0791 100.37 87.7379 100.885 89.5742 101.955C91.5333 101.987 91.2769 96.8786 93.4073 97.4182C94.5513 98.5434 94.5155 99.6741 94.7314 101.252C96.0741 99.4608 97.6978 94.5497 99.4629 94.205C101.27 94.9825 100.302 96.2768 101.364 97.1888C102.659 96.6087 104.039 93.9849 105.801 93.2948C107.193 93.6188 106.457 95.673 106.211 96.7212C107.983 96.413 111.194 95.1177 111.908 95.336C112.363 96.3014 111.771 97.4894 110.978 97.6957C106.693 98.8102 104.054 99.487 100.332 102.048C101.762 101.702 107.76 100.32 108.379 101.932C107.389 103.551 102.615 104.151 100.841 104.435C89.1631 106.301 78.4075 103.917 67.4044 100.068C65.4279 99.3762 51.8101 94.2322 52.4246 99.316C53.8768 101.453 59.7726 104.591 62.1891 107.148C64.7606 109.868 66.2263 112.292 68.5126 115.018C75.495 123.344 84.1339 130.394 95.0099 132.78C101.62 134.231 107.724 134.072 114.369 132.273C114.835 132.147 116.696 130.935 117.198 130.609C117.247 133.117 116.996 135.3 117.491 137.747C117.628 138.426 117.972 140.161 117.733 140.745C115.177 141.74 114.562 137.488 113.594 136.163C112.924 135.838 111.418 135.955 110.606 135.967C110.859 137.004 111.446 138.659 110.286 139.248C108.831 139.005 107.445 136.67 105.462 135.471L105.358 135.409C105.804 136.576 107.495 139.735 107.388 140.635C105.073 143.449 103.403 136.62 101.191 136.733C100.759 137.755 103.988 139.671 103.752 141.936C102.692 143.309 101.727 142.605 100.572 141.851C98.4481 138.847 96.8723 136.221 93.4822 134.673C96.2101 137.853 97.2281 137.864 99.5223 141.99Z" fill="#DE516C"/>
<path d="M93.4822 134.673C96.8723 136.221 98.4481 138.847 100.572 141.851L99.5224 141.99C97.2281 137.864 96.2101 137.853 93.4822 134.673Z" fill="#FEFEFE"/>
<path d="M144.44 44.7495C148.113 49.5353 149.285 52.7125 148.513 58.9177C148.361 60.1382 147.456 63.6487 147.74 64.5605C150.152 65.4348 151.518 59.1092 151.908 57.5808C153.193 58.4557 155.877 60.8264 157.111 60.6353C157.545 59.7812 157.009 58.6583 157.574 58.5693C162.879 57.7361 166.25 53.1832 170.486 50.6214C172.246 57.7888 171.457 62.3571 166.54 68.0159C165.436 67.0825 163.995 65.72 162.586 65.4416L162.032 65.6012L161.85 66.0531C163.945 70.0147 166.692 73.2826 168.573 77.7044C170.255 81.6576 173.058 83.3783 173.628 88.3144C172.521 90.432 170.799 93.1239 173.069 95.1479C176.824 98.4964 180.386 101.861 183.747 105.618C184.863 106.865 189.657 110.385 188.177 112.396C185.226 116.406 174.273 114.513 178.634 122.754C175.423 128.54 173.393 129.236 167.791 132.535C167.658 132.614 167.443 134.257 168.295 134.374C174.444 135.218 171.852 139.033 169.373 143.626C168.359 140.901 166.555 136.792 163.765 135.597C162.8 135.184 159.521 134.122 158.599 134.725C158.012 135.038 157.827 135.123 157.593 135.732C156.608 138.3 158.028 141.899 157.822 144.322C157.394 149.352 157.32 152.41 158.129 157.434C154.975 157.232 151.725 156.6 148.585 156.23C144.324 155.64 142.608 155.245 138.521 156.918C133.591 158.937 130.949 165.819 127.185 167.891C117.572 173.181 110.803 171.314 104.363 182.188C103.492 179.654 102.798 176.121 102.199 173.44C101.701 172.359 100.849 170.595 100.498 169.501C100.112 168.297 101.345 166.545 100.154 165.481C99.6283 165.587 99.543 165.694 99.0949 166.017C98.5178 165.718 98.023 164.835 97.2042 163.708C92.2424 156.876 87.5384 147.969 78.3664 146.515C78.3048 146.539 78.243 146.563 78.1811 146.587C78.1844 147.248 78.2281 147.314 78.7938 147.894C80.0433 149.178 82.5714 150.516 83.706 151.693C89.4722 157.671 94.8065 165.822 97.6718 173.613C99.1356 177.594 99.8047 182.616 100.85 186.665C101.698 189.947 102.214 196.504 103.725 199.074C107.282 205.125 114.018 210.384 118.013 216.385C120.311 219.837 122.446 223.226 123.982 227.075C125.365 230.543 126.334 234.051 127.982 237.382C125.472 237.805 121.201 237.547 119.335 238H86.4442H54.6191H39.9099H20.2811C18.0776 237.31 15.9585 237.107 13.3295 236.192C7.7354 234.462 3.70292 230.175 1.36919 224.915C0.795517 223.622 0.665284 222.031 0 220.787V179.539V178.833V175.977V173.897V168.237C7.22911 156.763 15.9321 152.861 27.3607 146.704C33.8608 143.203 40.3608 137.871 47.5379 135.696C53.037 134.03 59.2469 134.892 64.8887 134.446C67.7635 134.227 72.3209 132.757 75.2603 132.012L75.6315 132.24C75.6085 133.905 76.3917 134.069 77.9266 134.746C81.7558 136.434 83.9396 140.052 87.0887 142.356C85.815 137.403 84.1156 135.779 80.4312 132.449C88.7482 136.079 94.1581 143.612 96.026 152.334C96.222 153.249 96.5448 155.38 97.0317 156.082L97.4745 156.109C97.9028 155.688 97.9709 155.246 98.0844 154.657C99.4296 147.67 94.5223 141.347 90.7752 135.851C92.8623 137.456 97.1347 143.35 99.0398 143.364C99.6116 142.82 99.4398 142.975 99.5223 141.99L100.572 141.851C101.727 142.605 102.692 143.309 103.752 141.936C103.988 139.671 100.759 137.755 101.191 136.733C103.403 136.62 105.073 143.449 107.388 140.634C107.495 139.735 105.804 136.576 105.358 135.409L105.462 135.471C107.445 136.67 108.831 139.005 110.286 139.248C111.446 138.659 110.859 137.004 110.606 135.967C111.418 135.955 112.924 135.837 113.594 136.163C114.562 137.487 115.177 141.74 117.733 140.745C117.972 140.161 117.628 138.426 117.491 137.747C116.996 135.3 117.247 133.117 117.198 130.609C116.696 130.935 114.835 132.147 114.369 132.273C107.724 134.072 101.62 134.231 95.0099 132.78C84.1339 130.394 75.495 123.344 68.5126 115.018C66.2263 112.292 64.7606 109.868 62.1891 107.148C59.7726 104.591 53.8768 101.453 52.4246 99.3159C51.8101 94.2321 65.4279 99.3761 67.4044 100.068C78.4075 103.917 89.1631 106.301 100.841 104.435C102.615 104.151 107.389 103.551 108.379 101.932C107.76 100.32 101.762 101.702 100.332 102.048C104.054 99.487 106.693 98.8101 110.978 97.6957C111.771 97.4893 112.363 96.3014 111.908 95.3359C111.194 95.1177 107.983 96.4129 106.211 96.7211C106.457 95.6729 107.193 93.6188 105.801 93.2948C104.039 93.9848 102.659 96.6086 101.364 97.1888C100.302 96.2767 101.27 94.9824 99.4629 94.2049C97.6978 94.5496 96.0741 99.4607 94.7314 101.251C94.5155 99.6741 94.5513 98.5433 93.4073 97.4182C91.2769 96.8785 91.5333 101.987 89.5742 101.955C87.7379 100.885 88.0791 100.369 86.0052 101.236L85.6191 101.036C85.4964 100.145 85.3558 98.4127 84.6715 97.8393C83.0427 97.6989 83.2456 100.219 82.153 100.963L81.8885 100.724C81.8546 99.0493 82.3561 96.9821 81.5113 95.6515C80.685 95.1174 80.3743 95.3587 79.5998 95.8884C79.2721 96.8697 78.4749 99.7433 77.8999 100.325C76.7924 99.129 79.0537 93.6225 76.2411 93.0696C74.1602 93.9335 74.9247 97.5558 73.7709 99.0981C71.2773 97.8619 75.6812 90.8323 71.4151 91.2485C70.0443 92.092 70.1949 96.2365 69.4198 97.0014C68.8796 96.6156 68.6442 95.886 68.5835 95.2278C67.3473 82.7263 69.3895 70.126 77.3642 60.0329C90.7296 43.117 114.747 45.5009 133.656 48.869C135.022 49.1125 136.701 49.2982 137.287 50.644C137.008 52.3167 133.785 54.6665 134.002 56.8394L134.344 57.2743C138.308 57.6545 142.486 47.6638 144.44 44.7495ZM100.866 112.302C101.589 112.256 102.382 112.305 102.94 111.915C102.331 111.566 101.38 111.717 100.632 111.758L100.866 112.302ZM160.121 81.3415C161.367 81.5921 162.608 81.8615 163.846 82.1492C164.086 82.0918 166.16 81.9919 166.654 81.9428C164.13 81.7666 162.326 81.2116 159.898 80.5973L160.121 81.3415Z" fill="#FEFEFE"/>
<path d="M36.9221 206.936C36.0424 205.975 34.4896 204.509 34.391 203.233L34.6081 202.773C37.9445 201.861 42.999 206.844 45.6023 208.589C56.6533 215.993 61.5985 227.239 69.0205 237.782C72.8708 237.375 76.6402 237.526 80.5019 237.665C82.4342 237.735 82.6869 237.863 84.2532 236.696C85.1192 237.119 85.6377 237.463 86.4442 238H54.6191L54.7598 237.512C54.9722 237.321 55.5 235.911 55.5656 235.59C55.8012 234.43 57.5818 232.792 57.2146 231.719C55.706 232.356 53.9321 235.488 52.2735 234.249C51.0001 231.367 54.7007 229.658 55.038 227.727C53.9409 227.85 52.8253 229.905 50.9936 229.832C49.6267 227.992 52.0929 225.98 52.3523 224.158C51.1428 224.022 49.8822 225.707 48.1706 225.353L47.9517 224.845C48.0463 223.142 48.8909 222.19 49.8368 220.791C48.264 219.258 48.1608 219.398 45.9814 219.115C45.4578 219.047 44.434 217.85 43.8952 217.402C41.3646 216.469 25.1785 224.45 21.9842 222.447C21.2717 218.936 28.4131 219.161 30.411 218.587C31.8788 218.165 33.9957 216.996 35.4206 216.296C34.7434 215.632 34.193 214.889 33.6112 214.142C35.8288 213.15 38.7412 212.146 41.1238 211.136L39.0169 208.901C38.625 208.631 37.3335 207.333 36.9221 206.936Z" fill="#DE516C"/>
<path d="M39.9099 238C41.7346 236.724 45.7773 237.563 47.7876 237.507C49.174 237.47 48.7842 236.745 49.7745 235.495C52.4476 233.944 51.5712 236.592 51.9502 237.268C52.7126 237.758 53.8196 237.568 54.7597 237.512L54.6191 238H39.9099Z" fill="#DE516C"/>
<path d="M0 178.832C0.940651 177.492 1.48218 176.402 3.02953 175.868L3.53937 175.954C4.6393 177.726 2.21373 181.772 0 179.539V178.832Z" fill="#DE516C"/>
<path d="M102.199 173.441C102.302 171.548 102.174 170.257 103.116 168.639C103.819 168.183 103.49 168.288 104.415 168.32C104.31 170.128 104.372 173.278 102.199 173.441Z" fill="#DE516C"/>
<path d="M0 173.897C0.663372 173.398 1.24308 172.817 2.04027 172.83L2.48619 173.105C2.73465 174.659 1.29396 175.552 0 175.977V173.897Z" fill="#DE516C"/>
<path d="M163.807 86.7371C162.082 85.5555 156.084 83.4274 155.615 82.1122L155.906 81.7103C157.574 81.2085 158.39 81.3098 160.121 81.3417C161.367 81.5922 162.608 81.8616 163.846 82.1493L164.058 82.2472C170.296 85.1731 173.834 90.1546 165.096 92.9446C164.688 97.6045 164.657 98.1799 166.605 102.521C165.632 105.119 163.901 105.068 163.717 108.249C163.591 110.422 158.055 116.326 155.811 115.86L155.602 115.414C155.842 114.095 156.825 113.149 157.694 112.089C154.864 111.805 148.184 111.051 147.038 107.964C147.243 107.634 147.455 107.373 147.895 107.5C152.696 108.885 154.345 109.157 159.222 107.273C151.359 106.327 150.28 105.267 144.982 99.4617C143.541 99.4267 140.097 99.5717 139.622 97.9898C140.184 96.5063 141.928 95.9089 143.364 95.1884C146.549 86.2716 155.479 84.1656 163.807 86.7371Z" fill="#DE516C"/>
<path d="M161.89 103.962C161.84 103.653 161.725 103.228 161.649 102.912C160.174 102.039 157.713 104.315 155.869 104.088C153.417 103.787 147.25 100.405 147.448 97.6302C149.041 93.9498 158.541 88.3858 161.734 92.6215C162.862 94.1187 162 96.2895 161.801 97.9597C161.589 99.7494 162.745 100.454 163.78 101.727C163.895 102.598 163.902 102.293 163.471 103.15C162.848 104.401 162.503 105.333 161.198 105.932L161.005 105.683C161.306 104.85 161.4 104.695 161.89 103.962Z" fill="#FEFEFE"/>
<path d="M161.89 103.962L162.238 104.198C162.641 103.839 163.052 103.49 163.471 103.15C162.848 104.401 162.503 105.333 161.198 105.932L161.005 105.683C161.306 104.85 161.4 104.695 161.89 103.962Z" fill="#FEFEFE"/>
<path d="M158.015 92.1489C159.871 92.3195 160.464 93.463 161.29 94.9577C161.381 97.6817 161.065 99.5451 159.362 101.699C158.419 102.269 157.569 102.618 156.839 101.688C156.544 100.432 157.275 98.7813 157.351 97.5118C157.479 95.3698 156.922 94.1059 158.015 92.1489Z" fill="#DE516C"/>
<path d="M95.0399 112.476C88.4658 112.563 82.2357 113.998 75.9989 110.945C74.8487 110.382 72.8689 109.582 72.442 108.318L72.551 107.761C73.2543 107.366 74.706 107.857 75.5429 108.121C79.1157 109.246 81.5699 110.145 85.4102 110.107C88.4161 110.147 90.9862 109.624 93.9686 109.288C99.091 108.713 108.208 105.716 111.674 111.147C113.086 113.36 110.306 115.915 111.524 118.263C112.587 120.313 115.504 121.637 115.155 124.097C114.977 125.156 112.907 127.167 111.846 127.014C111.24 125.859 112.119 125.63 111.381 124.51C109.512 124.101 108.537 123.978 106.751 123.227L110.068 120.97C108.514 121.242 106.945 121.692 105.515 120.996C105.003 120.367 105.112 120.66 105.056 119.898C105.519 119.15 105.692 119.01 106.325 118.419C105.21 117.504 103.908 118.692 102.839 116.965C103.084 115.892 104.101 115.405 105.059 114.755C102.979 115.179 100.896 115.585 98.8086 115.973L96.6076 116.26C95.5435 116.246 93.1907 115.997 92.8797 114.823C93.6493 113.664 96.2347 113.249 97.5849 112.919C96.9139 112.418 95.9049 112.5 95.0399 112.476ZM100.866 112.302C101.589 112.256 102.382 112.305 102.94 111.915C102.331 111.566 101.38 111.717 100.632 111.758L100.866 112.302Z" fill="#DE516C"/>
<path d="M100.632 111.758C101.38 111.717 102.331 111.566 102.94 111.915C102.382 112.305 101.589 112.256 100.866 112.302L100.632 111.758Z" fill="#FEFEFE"/>
<path d="M100.632 111.758L100.866 112.302C100.007 112.511 98.3902 112.983 97.5849 112.919C96.9139 112.418 95.9049 112.5 95.0399 112.476C96.873 112.187 98.7842 111.981 100.632 111.758Z" fill="#FEFEFE"/>
<path d="M159.898 80.5974C152.231 78.7633 151.525 80.8161 146.625 86.3289C145.547 87.5424 140.809 91.2597 139.201 90.9448C137.353 89.1819 142.466 84.8047 143.506 83.3911C148.291 76.8851 150.534 73.5445 159.09 76.6969C161.488 77.5803 168.167 77.6586 166.654 81.9429C164.13 81.7667 162.326 81.2117 159.898 80.5974Z" fill="#DE516C"/>
<path d="M139.443 69.9065C140.249 70.3858 142.325 71.4087 142.694 72.0537C142.483 72.499 142.128 72.7072 141.643 72.852C135.219 74.7732 122.867 62.7452 126.21 56.3068C127.014 54.7587 130.03 53.2379 131.789 54.3417C131.875 55.005 131.893 54.7533 131.36 55.4559L131.211 56.4012C131.38 56.5751 131.551 56.7471 131.725 56.917C132.417 60.3796 132.946 63.3418 136.038 65.7471C137.06 66.5418 140.096 67.4399 140.58 68.3328C140.502 68.6754 140.501 68.8397 140.257 69.0949C140.005 69.3248 139.621 69.6409 139.443 69.9065Z" fill="#DE516C"/>
<path d="M134.33 66.728C132.209 64.7724 127.863 59.0574 131.725 56.9167C132.417 60.3794 132.946 63.3416 136.038 65.7469C137.06 66.5416 140.096 67.4396 140.58 68.3326C140.502 68.6752 140.501 68.8395 140.257 69.0947C140.005 69.3246 139.621 69.6407 139.443 69.9063C137.323 69.2128 135.813 68.6966 133.898 67.5559L134.33 66.728Z" fill="#DE516C"/>
<path d="M134.33 66.728C136.412 68.0328 137.717 68.9584 140.257 69.0948C140.005 69.3246 139.621 69.6407 139.443 69.9064C137.323 69.2128 135.813 68.6966 133.898 67.5559L134.33 66.728Z" fill="#FEFEFE"/>
<path d="M131.36 55.4558L131.211 56.4011C131.38 56.5749 131.551 56.7469 131.725 56.9168C127.863 59.0574 132.209 64.7724 134.33 66.728L133.898 67.5559C129.601 64.6242 126.751 59.5406 131.36 55.4558Z" fill="#FEFEFE"/>
<path d="M138.299 61.3817C137.532 62.1741 137.231 62.7384 136.108 62.4785C135.569 61.9723 135.352 61.8296 135.144 61.097C135.273 60.3409 139.856 54.8314 140.688 53.8357C141.02 53.4376 141.124 53.5073 141.525 53.5229C141.785 54.1822 141.687 54.0407 141.487 54.8532C141.646 55.6009 141.564 56.2559 142.35 56.5171C143.153 56.1053 142.937 56.0528 143.607 56.2626C144.523 58.4053 141.446 64.2928 139.333 65.2209C138.499 65.1756 138.793 65.3052 138.213 64.7614C137.924 63.7761 138.36 62.753 138.787 61.8554L138.299 61.3817Z" fill="#DE516C"/>
<path d="M142.35 56.5171C143.153 56.1053 142.937 56.0528 143.607 56.2626C144.523 58.4053 141.446 64.2928 139.333 65.2209C138.499 65.1756 138.793 65.3052 138.213 64.7614C137.924 63.7761 138.36 62.753 138.787 61.8554C139.877 59.7229 140.989 58.4518 142.35 56.5171Z" fill="#DE516C"/>
<path d="M138.299 61.3815C139.752 59.0097 140.792 57.5201 141.487 54.853C141.646 55.6007 141.563 56.2557 142.35 56.5169C140.989 58.4516 139.877 59.7227 138.787 61.8552L138.299 61.3815Z" fill="#FEFEFE"/>
<path d="M124.796 148.156C130.63 149.228 131.934 156.889 129.544 161.532C129.131 162.017 129.067 162.091 128.517 162.409L128.203 162.227C127.994 161.84 127.547 158.122 127.405 157.231C127.035 154.925 124.803 149.866 124.796 148.156Z" fill="#DE516C"/>
<path d="M120.632 131.356L121.326 131.546C122.854 132.659 124.42 140.349 125.158 142.354C125.397 143.001 125.26 143.22 124.973 143.674C120.168 141.351 119.373 136.028 120.632 131.356Z" fill="#DE516C"/>
<path d="M131.854 146.113C131.898 146.468 131.793 146.791 131.715 147.145L131.299 147.355C127.35 146.706 123.901 137.844 126.924 137.896C128.843 138.991 129.91 141.037 130.679 142.992C131.042 144.03 131.394 145.119 131.854 146.113Z" fill="#DE516C"/>
<path d="M117.087 107.593C118.22 107.904 119.537 109.995 119.996 111.035C121.414 114.253 121.734 116.924 120.505 120.238C120.322 120.336 119.907 120.495 119.696 120.583L119.316 120.367C119.158 119.971 118.831 118.657 118.869 118.265C119.078 116.121 116.852 108.902 117.087 107.593Z" fill="#DE516C"/>
<path d="M131.404 141.215C133.647 141.471 135.194 144.778 136.347 146.642L137.276 149.111L136.749 149.615C134.534 150.08 133.213 147.804 132.404 146.124L131.854 146.113C131.394 145.119 131.042 144.03 130.679 142.992C131.379 142.326 131.181 142.359 131.404 141.215Z" fill="#DE516C"/>
<path d="M130.679 142.992C131.379 142.326 131.181 142.359 131.404 141.215C131.545 143.459 131.784 143.978 132.404 146.124L131.854 146.113C131.394 145.119 131.042 144.03 130.679 142.992Z" fill="#FEFEFE"/>
<path d="M131.101 150.037C133.948 150.542 134.463 152.293 135.275 154.828C135.041 156.354 134.817 157.31 134.116 158.684L133.507 159.232L133.068 159.106C132.05 157.999 131.101 151.499 131.101 150.037Z" fill="#DE516C"/>
<path d="M178.227 111.603C179.316 111.556 181.756 111.594 182.14 112.853C181.5 113.879 178.161 114.587 176.61 115.243C175.666 115.944 175.508 116.315 174.452 116.482C173.756 116.113 173.968 116.352 173.686 115.56C173.988 112.957 175.994 112.151 178.227 111.603Z" fill="#DE516C"/>
<path d="M145.365 57.7542C145.676 57.9675 145.779 58.1383 146.025 58.4275C146.692 60.5909 145.185 64.2675 143.996 66.1195C143.531 66.8435 142.939 67.0703 142.162 67.3546C141.675 67.0608 141.645 66.9852 141.405 66.4649C141.338 65.0176 144.448 59.0573 145.365 57.7542Z" fill="#DE516C"/>
<path d="M136.946 144.907C137.63 144.302 137.309 144.425 138.142 144.375C139.81 145.075 141.95 149.163 141.366 150.963L140.991 151.139C139.572 150.623 139.068 150.081 138.146 148.9L137.276 149.111L136.347 146.642C136.949 146.061 136.784 145.935 136.946 144.907Z" fill="#DE516C"/>
<path d="M136.347 146.642C136.949 146.061 136.784 145.935 136.946 144.907C137.137 146.549 137.241 147.442 138.146 148.9L137.276 149.111L136.347 146.642Z" fill="#FEFEFE"/>
<path d="M170.432 110.518L170.77 110.608C171.177 111.454 170.355 114.305 170.607 115.274C170.867 116.277 172.141 117.352 172.352 118.529L172.02 118.894L170.967 118.895C166.588 117.077 167.416 113.296 170.432 110.518Z" fill="#DE516C"/>
<path d="M152.2 71.8527C153.493 71.7316 155.31 71.709 156.444 72.4021L156.532 72.7766C155.743 74.0038 153.575 74.2062 152.213 74.4872C150.98 74.9606 149.616 75.5382 148.453 74.8017C148.026 72.807 150.744 72.1411 152.2 71.8527Z" fill="#DE516C"/>
<path d="M59.4795 208.842C62.0929 208.926 65.9162 211.23 65.4574 214.237C62.5747 214.705 59.3894 211.811 59.4795 208.842Z" fill="#DE516C"/>
<path d="M42.1197 218.511C42.8672 218.591 43.2507 218.871 43.2979 219.654C43.4371 221.971 39.9687 222.174 38.3657 222.319C37.5598 222.207 37.3634 222.016 36.9479 221.486C37.0704 219.556 40.5671 218.824 42.1197 218.511Z" fill="#DE516C"/>
<path d="M52.3214 203.042C54.8788 203.086 57.8975 205.136 57.5728 208.006C54.8639 207.801 51.5584 206.267 52.3214 203.042Z" fill="#DE516C"/>
<path d="M96.6075 116.26L98.8086 115.973C99.3341 116.263 99.6685 116.475 100.25 116.654C100.991 117.057 101.302 117.143 101.61 117.925C101.646 120.163 97.2548 119.846 95.9184 118.578C95.6713 117.922 95.6871 118.212 95.9328 117.464C96.2926 117.164 96.4516 117.02 96.8562 116.789L96.6075 116.26Z" fill="#DE516C"/>
<path d="M96.6075 116.26L98.8086 115.973C99.3341 116.263 99.6685 116.475 100.25 116.654L96.8562 116.789L96.6075 116.26Z" fill="#FEFEFE"/>
<path d="M38.3201 176.97C38.7933 176.971 39.1696 177.059 39.6298 177.145C41.5043 178.446 40.6029 181.447 39.9847 183.244C36.6894 183.013 37.4095 179.052 38.3201 176.97Z" fill="#DE516C"/>
<path d="M128.27 114.676C131.562 114.926 132.801 117.972 132.304 120.931C129.603 120.855 128.211 116.911 128.27 114.676Z" fill="#DE516C"/>
<path d="M141.52 140.013C143.746 140.304 145.144 144.341 143.664 146.245C140.516 145.43 140.038 142.616 141.52 140.013Z" fill="#DE516C"/>
<path d="M46.2654 197.018C48.8739 197.05 51.7385 199.169 50.8904 202.035C48.3726 202.05 45.5136 199.632 46.2654 197.018Z" fill="#DE516C"/>
<path d="M63.1042 204.856C65.1427 205.025 68.947 207.305 67.7484 209.804C65.0372 209.783 62.3021 207.823 63.1042 204.856Z" fill="#DE516C"/>
<path d="M52.1025 208.209C54.8806 208.325 57.4521 210.161 57.2592 213.156C54.5097 213.119 51.8533 211.21 52.1025 208.209Z" fill="#DE516C"/>
<path d="M74.011 84.7935C77.1273 85.5321 75.6196 88.7316 74.0375 90.2007C70.5428 89.3664 71.988 86.3412 74.011 84.7935Z" fill="#DE516C"/>
<path d="M81.7095 81.2817C82.6983 81.3324 82.6597 81.3273 83.2112 81.906C83.7249 83.6208 82.1879 85.5274 80.721 86.2739C80.0354 86.088 79.9143 86.0634 79.3379 85.6555C78.3522 83.8258 80.249 82.1092 81.7095 81.2817Z" fill="#DE516C"/>
<path d="M130.795 132.793C133.599 133.521 133.36 137.205 132.546 139.362C129.614 139.005 129.815 134.811 130.795 132.793Z" fill="#DE516C"/>
<path d="M10.7711 162.677C11.4744 162.606 11.8455 162.521 12.3159 163.033C12.3107 164.477 9.52879 166.757 8.34077 167.48C7.35042 167.408 7.59741 167.562 6.87562 167.02C6.66215 164.928 9.14776 163.509 10.7711 162.677Z" fill="#DE516C"/>
<path d="M107.884 141.904C110.537 142.602 110.787 145.862 108.464 147.33C106.244 146.225 105.635 143.503 107.884 141.904Z" fill="#DE516C"/>
<path d="M125.753 127.916C128.044 128.881 128.343 133.219 127.264 135.107C124.493 133.714 124.922 130.387 125.753 127.916Z" fill="#DE516C"/>
<path d="M73.0023 77.1296C73.6682 77.148 73.7498 77.174 74.3583 77.4481C75.7298 79.1182 74.0357 80.8946 72.7892 82.0684C72.0752 82.0753 71.919 82.11 71.3623 81.6839C70.325 80.1042 71.6468 78.0626 73.0023 77.1296Z" fill="#DE516C"/>
<path d="M92.2678 88.6785C95.8591 89.018 93.9101 92.0909 92.5369 93.636C91.5779 93.7248 91.4106 93.6091 90.7684 92.9845C90.2754 91.4127 91.1645 89.7681 92.2678 88.6785Z" fill="#DE516C"/>
<path d="M102.344 123.199C103.781 123.083 105.992 123.138 105.814 125.12C105.328 125.856 104.95 125.928 104.122 126.243C102.84 126.208 100.578 126.082 100.584 124.42C101.053 123.664 101.521 123.55 102.344 123.199Z" fill="#DE516C"/>
<path d="M72.3592 229.743C74.7529 229.888 76.4373 233.024 75.4288 235.257C72.9577 234.641 71.5067 232.188 72.3592 229.743Z" fill="#DE516C"/>
<path d="M40.3726 185.585C40.4716 185.597 40.5704 185.61 40.6694 185.622L40.8133 185.647C42.9562 186.01 43.7304 189.342 42.8758 191.189C40.1283 190.712 39.6279 187.903 40.3726 185.585Z" fill="#DE516C"/>
<path d="M143.162 147.682C146.013 148.007 147.692 150.289 147.246 153.115C144.976 152.865 143.141 149.91 143.162 147.682Z" fill="#DE516C"/>
<path d="M95.8171 91.7522L97.0294 92.1046C98.4871 93.6406 96.7898 95.3747 95.6593 96.5777C95.0808 96.5371 95.0136 96.4857 94.4695 96.2558C93.1714 94.608 94.4372 92.882 95.8171 91.7522Z" fill="#DE516C"/>
<path d="M78.3959 71.3369L79.0734 71.7039C79.9875 73.6593 77.5587 75.3304 76.0893 76.3126C73.4072 74.698 76.6197 72.0365 78.3959 71.3369Z" fill="#DE516C"/>
<path d="M81.9024 89.1882C82.5321 89.2112 82.645 89.2001 83.1859 89.5125C84.4112 90.9681 83.7786 93.052 82.6636 94.3729C79.6043 92.8668 80.2274 91.5643 81.9024 89.1882Z" fill="#DE516C"/>
<path d="M32.2581 221.978C33.3228 221.912 33.9327 221.746 34.6023 222.656C34.484 224.295 32.6767 224.626 31.4053 224.897C30.431 224.987 29.8625 225.082 29.1304 224.376L29.2113 223.802C30.1242 222.574 30.7792 222.402 32.2581 221.978Z" fill="#DE516C"/>
<path d="M85.9168 75.7004C86.4686 75.7578 86.8212 75.958 87.3272 76.1825C88.3996 77.7018 86.6887 79.002 85.6256 80.1269C84.9672 80.2076 84.7231 80.2785 84.09 80.0219C82.927 78.4988 84.6943 76.6141 85.9168 75.7004Z" fill="#DE516C"/>
<path d="M99.7596 119.953C101.077 119.911 103.408 119.782 103.624 121.501C103.237 122.228 102.95 122.322 102.233 122.726C100.918 122.729 98.6854 122.921 98.2587 121.391C98.645 120.537 98.8776 120.583 99.7596 119.953Z" fill="#DE516C"/>
<path d="M134.958 118.389L135.136 118.472C137.447 119.57 138.177 122.062 137.064 124.32C134.838 123.379 133.602 120.449 134.958 118.389Z" fill="#DE516C"/>
<path d="M136.677 136.798C138.636 137.657 139.163 141.474 137.76 143.011C137.449 142.875 137.155 142.703 136.884 142.499C135.288 141.304 135.577 138.313 136.677 136.798Z" fill="#DE516C"/>
<path d="M58.4027 214.64C61.2306 214.694 62.664 216.518 62.9185 219.24L62.059 219.377C59.8851 218.733 58.6115 216.83 58.4027 214.64Z" fill="#DE516C"/>
<path d="M77.198 78.9453L78.1853 79.135C79.4637 80.6989 77.5992 82.8467 76.4515 83.9589C73.4937 83.035 75.648 80.1063 77.198 78.9453Z" fill="#DE516C"/>
<path d="M45.5693 225.89C46.4825 225.881 46.9113 225.985 47.5577 226.604C48.1223 228.242 46.8711 229.058 45.6921 229.939C45.0415 230.206 44.4858 230.024 43.9698 229.641C43.5108 228.286 44.6217 226.755 45.5693 225.89Z" fill="#DE516C"/>
<path d="M77.8472 87.259C78.3204 87.3457 78.5691 87.4777 79.0128 87.669C80.2595 89.1651 79.4641 91.0856 78.3371 92.3853C75.5557 91.3708 76.2002 89.0152 77.8472 87.259Z" fill="#DE516C"/>
<path d="M85.144 83.8098C86.2859 83.9574 86.4918 84.1089 86.8247 85.1653C86.6594 86.6595 86.0242 87.3619 84.9732 88.3781C84.5669 88.3723 84.2109 88.2935 83.8118 88.2233C82.2815 86.8081 83.9643 84.8641 85.144 83.8098Z" fill="#DE516C"/>
<path d="M103.618 143.527C106.268 143.832 106.656 146.735 105.132 148.551C102.794 147.654 102.167 145.59 103.618 143.527Z" fill="#DE516C"/>
<path d="M70.736 208.142C72.55 208.556 75.2289 210.448 74.3952 212.598C71.9295 212.629 69.6987 210.738 70.736 208.142Z" fill="#DE516C"/>
<path d="M89.316 86.3613C92.1987 87.4277 89.5368 90.0547 88.2803 91.225C85.349 89.4618 87.5417 87.7017 89.316 86.3613Z" fill="#DE516C"/>
<path d="M93.5301 81.0508C94.611 81.3362 94.8014 81.3876 94.9997 82.4841C94.6717 83.8134 93.6962 84.6443 92.6627 85.4791C89.7509 84.2852 91.5338 81.9979 93.5301 81.0508Z" fill="#DE516C"/>
<path d="M137.2 114.699C139.988 114.941 141.021 117.587 140.756 120.071C138.73 119.95 136.893 116.349 137.2 114.699Z" fill="#DE516C"/>
<path d="M123.393 109.046C125.482 109.715 126.349 113.704 126.001 115.648C123.71 114.934 122.928 111.217 123.393 109.046Z" fill="#DE516C"/>
<path d="M98.7974 144.712C99.1465 144.724 99.5712 144.795 99.9256 144.844C101.443 145.973 102.347 147.598 101.305 149.39L100.298 149.352C98.7205 148.593 98.1499 146.234 98.7974 144.712Z" fill="#DE516C"/>
<path d="M89.1512 94.4761C91.7976 95.3195 91.3339 97.8095 89.8627 99.5417C87.3332 98.761 87.7095 96.117 89.1512 94.4761Z" fill="#DE516C"/>
<path d="M35.6951 185.333L36.6522 185.628C38.0944 187 38.3352 189.147 37.3321 190.845C34.831 190.055 34.8614 187.382 35.6951 185.333Z" fill="#DE516C"/>
<path d="M89.8703 78.4856L90.7982 78.6757C91.4148 79.2868 91.2623 78.9769 91.3688 79.8413C90.883 81.34 90.239 81.8634 88.9444 82.7071C87.8522 82.2478 87.6166 82.2285 87.4841 81.0222C87.8969 79.7295 88.7708 79.2022 89.8703 78.4856Z" fill="#DE516C"/>
<path d="M99.5263 86.8179C100.627 86.7761 101.534 86.9964 101.647 88.1841C101.327 89.2546 100.527 89.9335 99.7471 90.7356C99.3404 91.0896 99.4896 90.9806 98.9011 91.0903L98.4472 90.6687C97.6855 89.0122 98.274 87.9161 99.5263 86.8179Z" fill="#DE516C"/>
<path d="M33.7046 177.878C34.1758 177.969 34.2969 178.07 34.721 178.311C35.7493 179.781 35.6602 182.194 34.4651 183.542C32.1186 182.833 32.8677 179.487 33.7046 177.878Z" fill="#DE516C"/>
<path d="M140.083 121.661L140.947 121.867C142.548 123.203 142.587 125.239 141.804 127.038L140.961 126.897C139.471 125.875 139.407 123.16 140.083 121.661Z" fill="#DE516C"/>
<path d="M110.812 140.314C113.384 140.501 113.942 142.753 113.105 144.855C110.373 144.875 110.098 142.367 110.812 140.314Z" fill="#DE516C"/>
<path d="M85.5245 91.9426C88.4468 92.1685 87.4016 94.8921 86.3517 96.4797C83.5527 95.8971 84.2943 93.6721 85.5245 91.9426Z" fill="#DE516C"/>
<path d="M102.756 89.8881C103.548 89.8637 103.689 89.9748 104.165 90.4927C104.572 92.0569 103.565 93.103 102.411 93.9506C101.699 93.7384 101.613 93.6892 101.019 93.2422C100.269 91.6531 101.621 90.8778 102.756 89.8881Z" fill="#DE516C"/>
<path d="M96.8676 84.0186C97.9514 84.3939 98.1067 84.6149 98.2817 85.6613C97.9193 86.9685 97.3592 87.3392 96.2591 88.0908C95.9684 88.0685 95.6172 87.9874 95.3241 87.9314C93.8501 86.403 95.613 84.9517 96.8676 84.0186Z" fill="#DE516C"/>
<path d="M67.9067 211.849C70.4538 212.129 71.3707 213.284 71.4125 215.806C68.6751 215.818 67.7407 214.434 67.9067 211.849Z" fill="#DE516C"/>
<path d="M10.6041 172.349L11.3794 172.537C12.8004 174.066 10.9353 175.611 9.68134 176.481C8.77346 176.416 8.57395 176.116 8.32588 175.348C8.49234 174.078 9.679 173.139 10.6041 172.349Z" fill="#DE516C"/>
<path d="M16.9359 157.523C17.7565 157.714 17.4726 157.551 18.0491 158.104C18.3309 159.538 16.7597 160.755 15.7021 161.45L14.8446 161.11C14.2958 160.45 14.4222 160.773 14.3944 159.883C14.9365 158.541 15.6911 158.128 16.9359 157.523Z" fill="#DE516C"/>
<path d="M46.0488 202.797C48.374 202.99 49.4078 204.164 49.6718 206.466C49.4882 206.463 49.3046 206.455 49.1212 206.443C46.6922 206.274 45.8299 205.184 46.0488 202.797Z" fill="#DE516C"/>
<path d="M53.2202 197.932C55.4733 198.101 57.1563 199.613 56.3263 201.965C54.3089 201.355 52.7454 200.23 53.2202 197.932Z" fill="#DE516C"/>
<path d="M16.4541 163.105C17.3129 163.19 17.0513 163.052 17.6091 163.522C17.9858 164.958 16.5511 166.312 15.5052 167.091C15.1047 166.938 14.7969 166.627 14.4683 166.344C13.8762 164.701 15.2503 163.986 16.4541 163.105Z" fill="#DE516C"/>
<path d="M145.387 125.382C148.267 125.663 147.388 127.964 146.475 129.647C146.129 129.695 145.885 129.608 145.545 129.529C144.305 128.329 144.763 126.768 145.387 125.382Z" fill="#DE516C"/>
<path d="M48.5648 230.928C51.1419 231.716 48.6173 234.321 47.4557 235.151C46.6189 234.639 46.5395 234.505 46.3484 233.707C46.545 232.396 47.551 231.727 48.5648 230.928Z" fill="#DE516C"/>
<path d="M10.4667 167.746C11.2603 167.835 11.3685 168.093 11.4958 168.758C11.039 170.018 9.94493 170.773 8.88651 171.529C8.04347 171.212 7.8423 170.95 7.69379 170.136C8.03903 168.979 9.4522 168.313 10.4667 167.746Z" fill="#DE516C"/>
<path d="M146.75 144.442C148.6 144.701 150.1 146.996 149.365 148.874C147.471 148.642 145.923 146.306 146.75 144.442Z" fill="#DE516C"/>
<path d="M108.735 89.611C109.447 89.5903 109.595 89.5641 110.243 89.8411C111.21 91.1694 110.354 91.9959 109.333 92.9614C108.742 92.9774 108.64 92.9249 108.084 92.7136C107.074 91.4163 107.743 90.6244 108.735 89.611Z" fill="#DE516C"/>
<path d="M67.6064 229.971C70.1287 230.095 70.9219 231.54 70.4771 233.888C68.3846 233.558 67.427 232.033 67.6064 229.971Z" fill="#DE516C"/>
<path d="M112.731 145.893C115.174 145.925 115.893 147.558 115.017 149.683C113.095 149.615 112.163 147.621 112.731 145.893Z" fill="#DE516C"/>
<path d="M29.9499 214.792C30.4559 214.813 30.6018 214.929 31.0692 215.156C31.5829 216.56 29.3395 217.156 28.2906 217.501C27.3814 217.288 27.3891 217.292 26.9093 216.704L26.9823 216.246C27.7667 215.243 28.7668 215.046 29.9499 214.792Z" fill="#DE516C"/>
<path d="M74.336 214.142C76.0131 214.388 77.8344 216.087 76.5823 217.885C75.3665 217.337 74.2116 216.801 73.6784 215.548C73.6889 214.658 73.6512 214.95 74.336 214.142Z" fill="#DE516C"/>
<path d="M98.1115 77.6094C98.6245 77.5455 98.7268 77.5913 99.2423 77.6963C100.215 78.8517 98.4827 80.1526 97.633 80.917C97.0008 80.9268 96.9071 80.8257 96.3854 80.4503C95.7913 78.9835 96.9876 78.2451 98.1115 77.6094Z" fill="#DE516C"/>
<path d="M122.64 124.197C123.02 124.3 123.276 124.276 123.396 124.57C123.814 125.585 122.752 128.369 122.435 129.385C122.005 129.313 121.892 129.231 121.516 129.036C120.669 127.229 121.674 125.713 122.64 124.197Z" fill="#DE516C"/>
<path d="M63.7443 222.541C65.8526 222.877 66.72 224.84 65.8767 226.755C63.9511 226.349 63.1648 224.303 63.7443 222.541Z" fill="#DE516C"/>
<path d="M38.1548 192.099C40.8361 192.297 40.9488 193.336 40.7054 195.736C38.1709 195.807 38.0749 194.137 38.1548 192.099Z" fill="#DE516C"/>
<path d="M67.8711 223.009C70.5784 223.253 70.7729 224.616 70.5772 226.995C68.4067 226.492 67.82 225.051 67.8711 223.009Z" fill="#DE516C"/>
<path d="M37.062 164.151C37.3344 164.269 37.5326 164.46 37.7637 164.65C38.2325 166.225 37.3946 167.475 36.2978 168.543C35.8817 168.299 35.796 168.15 35.4792 167.775C35.0334 166.165 35.7449 165.046 37.062 164.151Z" fill="#DE516C"/>
<path d="M48.4086 191.807C50.5385 192.208 51.0396 193.837 51.0192 195.788C48.4414 195.74 48.0814 193.944 48.4086 191.807Z" fill="#DE516C"/>
<path d="M87.8759 113.8C89.082 113.876 90.1014 114.203 90.731 115.255C90.6297 116.216 90.6954 115.905 90.0189 116.729C89.0531 116.377 87.3532 115.908 86.9272 115.012C87.0501 114.227 87.0636 114.436 87.8759 113.8Z" fill="#DE516C"/>
<path d="M150.066 129.1C150.67 129.295 150.736 129.336 151.203 129.766C151.857 131.137 151.584 132.2 150.544 133.264C148.621 131.916 148.634 130.908 150.066 129.1Z" fill="#DE516C"/>
<path d="M22.458 158.676C23.1832 158.617 23.4758 158.788 23.7958 159.362C23.5555 160.591 22.5259 161.087 21.4896 161.577C20.7359 161.575 20.6089 161.588 20.1808 161.06C20.3069 159.914 21.5627 159.225 22.458 158.676Z" fill="#DE516C"/>
<path d="M104.298 83.1106C104.833 83.1215 104.929 83.2707 105.377 83.6222C105.899 85.1273 105.191 85.7676 104.035 86.59C103.233 86.2683 102.954 85.9708 102.766 85.1789C102.956 84.3027 103.653 83.7484 104.298 83.1106Z" fill="#DE516C"/>
<path d="M59.2541 197.932C61.7036 198.135 62.4513 198.989 62.1812 201.435C60.1926 201.05 59.3252 199.883 59.2541 197.932Z" fill="#DE516C"/>
<path d="M77.3068 230.521C79.2712 231.186 80.0496 232.726 79.5873 234.749C78.7362 234.428 78.0203 233.823 77.5592 233.04C77.0262 232.132 77.0504 231.486 77.3068 230.521Z" fill="#DE516C"/>
<path d="M105.901 86.7059C106.598 86.3168 107.478 86.5699 107.862 87.2692C108.246 87.9688 107.988 88.8474 107.285 89.2269C106.59 89.603 105.722 89.3471 105.341 88.6542C104.96 87.9612 105.21 87.091 105.901 86.7059Z" fill="#DE516C"/>
<path d="M65.1486 217.192C65.3243 217.227 65.4991 217.266 65.6727 217.31C67.7449 217.827 68.1917 218.825 67.7024 220.78C65.5904 220.323 65.2164 219.14 65.1486 217.192Z" fill="#DE516C"/>
<path d="M90.7361 117.314C91.8573 117.316 93.0164 117.273 93.7553 118.248C93.9017 119.074 93.9221 118.731 93.6107 119.569C92.473 119.713 91.4329 119.893 90.6441 118.883C90.4088 117.955 90.4449 118.283 90.7361 117.314Z" fill="#DE516C"/>
<path d="M76.7564 210.003C79.0079 210.295 79.6387 211.359 79.4613 213.528C77.5952 213.177 76.3343 211.972 76.7564 210.003Z" fill="#DE516C"/>
<path d="M105.367 150.004C105.875 150.038 106.036 150.085 106.532 150.214C107.7 151.269 107.612 152.417 107.027 153.76C105.163 153.622 104.996 151.438 105.367 150.004Z" fill="#DE516C"/>
<path d="M16.7285 168.637C17.0722 168.71 17.214 168.803 17.5313 168.951C18.1562 170.438 17.0362 171.323 15.8714 172.094L15.2365 171.751C14.3939 170.308 15.6218 169.506 16.7285 168.637Z" fill="#DE516C"/>
<path d="M46.0386 220.785C46.9074 221.213 47.0661 221.422 47.0078 222.314C46.4707 223.156 45.8529 223.411 44.9762 223.911C44.7075 223.824 44.4748 223.67 44.2245 223.529C43.5872 222.125 44.9557 221.385 46.0386 220.785Z" fill="#DE516C"/>
<path d="M149.69 150.909C151.729 151.097 152.446 152.396 152.503 154.259C150.315 154.097 149.451 153.03 149.69 150.909Z" fill="#DE516C"/>
<path d="M53.8301 192.753C55.4156 193.102 56.4288 194.705 56.552 196.256C56.2507 196.244 55.9505 196.215 55.6525 196.17C53.7085 195.87 53.4656 194.384 53.8301 192.753Z" fill="#DE516C"/>
<path d="M99.3278 127.837C100.277 127.739 101.596 127.508 102.32 128.261C102.513 129.108 102.459 128.857 102.116 129.775C101.103 129.925 100.168 130.119 99.3511 129.355C99.0475 128.445 99.0889 128.795 99.3278 127.837Z" fill="#DE516C"/>
<path d="M66.7444 202.631C68.9017 202.515 70.0052 203.168 70.2616 205.394C68.3278 205.711 67.1976 204.337 66.7444 202.631Z" fill="#DE516C"/>
<path d="M93.8538 68.3137L95.0929 68.3411C95.726 68.7339 95.5512 68.5004 95.749 69.2134C95.501 70.1113 95.2251 70.3321 94.5818 71.0212L93.643 70.9438C92.9462 70.4153 93.1382 70.7042 92.9204 69.8593C93.0475 69.0205 93.2451 68.9001 93.8538 68.3137Z" fill="#DE516C"/>
<path d="M23.7479 153.847C24.6486 153.834 24.4378 153.721 25.1776 154.111L25.2492 154.545C24.8426 155.435 24.4506 155.624 23.6338 156.188C22.7205 156.268 22.4983 156.364 21.8339 155.787L21.932 155.225C22.4841 154.406 22.8508 154.291 23.7479 153.847Z" fill="#DE516C"/>
<path d="M136.734 152.811C137.716 152.897 138.251 152.982 138.859 153.838C139.132 154.693 139.003 155.008 138.796 155.881C137.756 156.021 137.55 155.972 136.851 155.28C136.51 154.455 136.657 153.705 136.734 152.811Z" fill="#DE516C"/>
<path d="M90.3164 71.9766C91.161 72.0289 91.4132 72.1948 91.537 72.9597C91.1805 73.8655 90.5832 74.3366 89.8838 75.008C89.0964 74.7403 89.0471 74.6127 88.6652 74.0279C88.635 72.9313 89.4938 72.4746 90.3164 71.9766Z" fill="#DE516C"/>
<path d="M14.6763 221.346C15.6082 221.286 17.0525 221.188 17.8323 221.665C18.1841 222.369 18.116 222.094 17.8433 223.002C16.8594 223.128 15.5684 223.34 14.7455 222.769C14.3911 222.004 14.4713 222.283 14.6763 221.346Z" fill="#DE516C"/>
<path d="M96.601 124.044C97.6397 124.155 98.043 124.313 98.5232 125.266C98.3533 126.2 98.4683 125.886 97.7178 126.615C96.6757 126.263 95.8506 126.115 95.3543 125.181C95.6802 124.423 95.755 124.569 96.601 124.044Z" fill="#DE516C"/>
<path d="M154.809 67.0784C156.597 67.0673 157.784 67.2067 157.965 69.1779C157.854 69.197 157.744 69.2151 157.634 69.2318C156.71 69.3715 155.933 69.4708 155.162 68.8969C154.649 67.9544 154.796 68.2408 154.809 67.0784Z" fill="#DE516C"/>
<path d="M41.8843 197.457C43.63 198.079 44.724 199.116 43.8815 201.034C42.1955 200.515 41.3362 199.179 41.8843 197.457Z" fill="#DE516C"/>
<path d="M42.8679 180.224C44.9748 180.49 44.9969 181.963 44.8135 183.746C42.4161 183.535 42.7498 182.075 42.8679 180.224Z" fill="#DE516C"/>
<path d="M144.742 120.081C146.64 120.517 146.702 122.094 146.463 123.658L145.716 123.623C144.347 122.937 144.44 121.351 144.742 120.081Z" fill="#DE516C"/>
<path d="M109.26 148.609C111.471 148.674 111.605 149.941 111.387 151.765C109.433 151.76 109.141 150.202 109.26 148.609Z" fill="#DE516C"/>
<path d="M72.9205 204.48C74.0861 204.481 74.7185 204.445 75.5178 205.428C75.8555 206.284 75.7684 206.478 75.5629 207.366C74.0482 206.984 72.9995 206.091 72.9205 204.48Z" fill="#DE516C"/>
<path d="M73.5043 225.308C75.77 225.476 76.0201 226.675 75.5664 228.587C73.8137 228.171 73.3693 226.913 73.5043 225.308Z" fill="#DE516C"/>
<path d="M106.952 156.069C108.058 156.06 108.408 156.077 109.135 156.943C109.335 157.841 109.208 158.081 108.937 158.956C107.093 158.964 106.951 157.525 106.952 156.069Z" fill="#DE516C"/>
<path d="M45.428 186.618C46.3949 186.794 46.6443 186.896 47.2377 187.555C47.4659 188.396 47.3264 188.726 47.111 189.57C45.3083 189.474 44.675 188.248 45.428 186.618Z" fill="#DE516C"/>
<path d="M69.9402 83.511C70.8338 83.7074 71.0177 83.8717 71.4551 84.5118C71.612 85.3792 71.2591 86.0116 70.9279 86.8365C68.924 87.3992 69.7189 84.4621 69.9402 83.511Z" fill="#DE516C"/>
<path d="M35.6249 172.563C37.2331 173.392 36.4231 175.349 35.7121 176.495C33.8776 175.438 34.7808 173.952 35.6249 172.563Z" fill="#DE516C"/>
<path d="M158.579 72.0054C159.608 71.9026 160.439 71.9243 161.273 72.5592C161.711 73.4271 161.621 73.084 161.448 74.1244C159.683 74.1539 158.769 73.8915 158.579 72.0054Z" fill="#DE516C"/>
<path d="M89.1563 144.418C91.0891 144.795 91.1031 146.271 90.6238 147.816C88.8112 147.316 88.4618 145.978 89.1563 144.418Z" fill="#DE516C"/>
<path d="M20.7624 225.272C21.9277 225.128 22.8721 224.916 23.6815 225.889C23.4267 226.458 23.5422 226.269 22.785 226.586C21.8455 226.69 20.6328 226.918 19.8355 226.392C19.9731 225.683 20.0311 225.837 20.7624 225.272Z" fill="#DE516C"/>
<path d="M145.644 137.872C147.633 138.075 147.436 140.005 147.222 141.474C145.297 141.02 145.372 139.417 145.644 137.872Z" fill="#DE516C"/>
<path d="M37.4452 224.432C38.4026 224.407 38.8068 224.3 39.0401 225.296C38.784 226.021 38.3452 226.233 37.7165 226.659C36.8275 226.797 37.0297 226.894 36.298 226.573L36.2002 226.063C36.5 225.2 36.761 225.033 37.4452 224.432Z" fill="#DE516C"/>
<path d="M71.424 219.274C73.4695 219.637 73.638 220.833 73.2617 222.575C71.5464 221.848 70.9198 221.145 71.424 219.274Z" fill="#DE516C"/>
<path d="M132.969 112.855C134.497 113.379 135.284 114.924 134.843 116.469C133.339 115.821 132.241 114.545 132.969 112.855Z" fill="#DE516C"/>
<path d="M30.3066 149.66C31.2057 149.575 32.0208 149.319 32.4724 150.214C32.1005 150.979 32.0266 150.851 31.2161 151.397C30.2867 151.556 29.7474 151.829 29.2896 150.893C29.4811 150.211 29.7544 150.077 30.3066 149.66Z" fill="#DE516C"/>
<path d="M42.9406 173.476C45.1166 174.139 44.38 175.501 43.8406 177.135C43.4678 177.107 43.3262 176.955 43.0227 176.735C42.3624 175.539 42.6132 174.783 42.9406 173.476Z" fill="#DE516C"/>
<path d="M31.1083 186.881C32.8916 187.228 32.9372 188.868 32.4612 190.311C31.0127 189.666 30.2883 188.349 31.1083 186.881Z" fill="#DE516C"/>
<path d="M42.8058 231.583C43.6456 231.573 44.0075 231.547 44.3433 232.285C44.159 233.038 43.7369 233.34 43.1728 233.879C42.3359 234.079 42.5939 234.14 41.9656 233.872L41.8329 233.347C42.003 232.393 42.1272 232.29 42.8058 231.583Z" fill="#DE516C"/>
<path d="M43.3248 192.52C44.3651 192.59 44.4725 192.711 45.0984 193.459C45.3392 194.382 45.3253 194.505 45.1393 195.445C44.1708 195.404 44.0907 195.252 43.4947 194.655C43.1424 193.721 43.1984 193.524 43.3248 192.52Z" fill="#DE516C"/>
<path d="M12.3584 177.902C13.3019 178.12 13.122 177.926 13.5846 178.574C13.5593 179.351 13.0603 179.882 12.5971 180.525C11.5834 180.397 11.3686 180.426 11.1391 179.449C11.4221 178.579 11.6451 178.467 12.3584 177.902Z" fill="#DE516C"/>
<path d="M78.1467 205.349C79.0497 205.455 79.5238 205.571 80.0761 206.322C80.3682 207.22 80.2739 207.46 80.093 208.396C78.2878 207.765 78.136 207.167 78.1467 205.349Z" fill="#DE516C"/>
<path d="M140.507 134.503C141.353 134.774 141.562 134.799 142.132 135.492C142.478 136.329 142.387 136.577 142.248 137.468C140.15 137.443 140.32 136.161 140.507 134.503Z" fill="#DE516C"/>
<path d="M19.6633 216.651L19.9021 216.63C20.8227 216.553 21.6053 216.451 22.3068 217.044C22.1365 217.702 22.104 217.568 21.5166 218.056C20.6282 218.175 19.7213 218.375 18.9974 217.73C19.1059 217.017 19.0096 217.285 19.6633 216.651Z" fill="#DE516C"/>
<path d="M150.479 67.8622C151.244 67.8048 151.846 67.663 152.494 68.016C152.723 68.7751 152.603 68.6424 152.255 69.5551C151.557 69.6198 150.909 69.7699 150.343 69.3697C150.131 68.5808 150.221 68.7472 150.479 67.8622Z" fill="#DE516C"/>
<path d="M29.6057 178.608C31.1471 179.479 30.6602 180.556 30.0984 181.915C28.4863 181.322 29.0372 179.738 29.6057 178.608Z" fill="#DE516C"/>
<path d="M105.292 76.573C106.063 76.9181 106.161 77.2321 106.244 77.9736C105.983 78.718 105.72 78.8561 105.113 79.3277C104.397 78.9272 104.373 78.9516 104.197 78.2334C104.368 77.4962 104.784 77.1366 105.292 76.573Z" fill="#DE516C"/>
<path d="M31.8808 170.017C32.7032 170.168 32.6276 170.023 33.125 170.528C33.2161 171.25 32.6506 171.939 32.2467 172.583C32.0347 172.619 31.7897 172.56 31.5657 172.528L31.2361 172.082C31.1989 171.151 31.4379 170.837 31.8808 170.017Z" fill="#DE516C"/>
<path d="M37.4232 229.833C38.13 229.773 38.8426 229.634 39.4648 229.954C39.6619 230.587 39.5396 230.497 39.1522 231.237C38.4849 231.452 38.1214 231.641 37.4441 231.422C37.0869 230.711 37.2356 230.799 37.4232 229.833Z" fill="#DE516C"/>
<path d="M79.3203 215.802C81.0518 215.855 81.4074 216.368 81.6889 217.963C81.0618 218.023 80.9728 218.035 80.3908 217.803C79.7409 217.312 79.5906 216.585 79.3203 215.802Z" fill="#DE516C"/>
<path d="M159.898 80.5974C162.326 81.2117 164.13 81.7667 166.654 81.9429C166.161 81.9919 164.086 82.0919 163.846 82.1493C162.608 81.8616 161.367 81.5922 160.121 81.3416L159.898 80.5974Z" fill="#FEFEFE"/>
<path d="M99.6451 160.43C100.487 160.463 100.559 160.522 100.935 161.153C100.975 162.042 100.842 162.377 100.598 163.227C100.236 163.142 100.113 162.999 99.8278 162.766C99.4236 161.945 99.5621 161.346 99.6451 160.43Z" fill="#DE516C"/>
<path d="M136.612 131.397C137.761 132.23 137.865 132.923 137.102 134.11C136.221 133.604 136.26 133.622 135.927 132.844C135.968 132.109 136.159 131.95 136.612 131.397Z" fill="#DE516C"/>
<path d="M111.658 154.01C112.36 154.016 112.439 154.043 113.041 154.406C113.478 154.981 113.396 155.688 113.402 156.418C111.88 156.089 111.758 155.416 111.658 154.01Z" fill="#DE516C"/>
<path d="M130.664 127.655C131.285 127.786 131.352 127.867 131.815 128.308C132.126 128.974 131.965 129.564 131.858 130.288C131.474 130.207 131.224 130.072 130.871 129.91C130.404 128.92 130.591 128.896 130.664 127.655Z" fill="#DE516C"/>
<path d="M63.0454 195.387C63.8098 195.376 64.0427 195.329 64.707 195.756C65.1592 196.381 65.0893 196.774 65.0888 197.532C63.7938 197.449 63.3905 196.424 63.0454 195.387Z" fill="#DE516C"/>
<path d="M48.4562 180.658C49.3109 181.118 49.0522 180.852 49.51 181.63C49.5475 182.376 49.359 182.622 49.0182 183.265C48.6831 183.088 48.5692 182.872 48.3451 182.567C48.1262 181.723 48.234 181.496 48.4562 180.658Z" fill="#DE516C"/>
<path d="M194.294 116.988C194.339 115.141 194.754 112.758 196.997 112.525C201.162 113.872 196.671 123.532 195.788 126.795C193.939 133.623 190.901 140.98 190.125 148.102C190.06 148.692 190.783 149.183 191.298 149.389C191.674 149.287 192.004 149.232 192.148 148.771C194.07 142.627 196.013 136.481 197.982 130.351C198.745 127.973 198.585 123.285 199.996 121.264C200.174 120.782 200.583 120.675 201.117 120.345C201.454 119.372 201.587 118.868 202.17 118.026C202.858 117.735 202.552 117.76 203.334 117.986C207.137 121.688 203.011 135.927 202.136 140.744C201.747 142.889 197.073 153.192 200.943 154.011C201.768 153.477 201.685 152.199 202.197 151.416C204.132 148.46 205.774 147.252 206.605 143.607C207.391 140.159 206.874 135.703 208.151 132.529L208.459 132.367L208.705 132.478C209.083 131.872 209.342 131.711 209.887 131.282C210.28 130.556 210.334 130.387 211.074 129.999C211.37 130.025 211.738 129.99 211.843 130.262C213.107 133.519 212.536 142.649 212.152 145.919C211.71 149.675 209.123 153.248 207.9 156.831C205.26 164.499 203.819 172.339 199.919 179.538C198.647 181.888 192.994 186.693 193.013 188.155C193.081 193.38 190.811 195.424 189.332 199.544C187.583 204.413 187.196 211.963 185.988 217.115C184.941 224.152 183.781 230.637 182.309 237.577L176.841 237.465C176.573 237.647 176.353 237.779 176.114 238H161.852H136.701C136.549 237.821 136.444 237.614 136.324 237.41C136.964 232.596 148.415 221.217 151.688 216.944C153.11 215.089 156.807 210.196 157.765 207.985C161.204 199.947 165.657 191.486 166.754 182.752C167.593 176.072 161.096 171.485 160.428 165.374C160.168 162.993 160.906 159.962 160.634 157.464C160.563 156.813 160.006 153.952 160.192 153.231C161.325 152.44 161.814 152.417 162.545 151.069L162.656 150.862C161.853 150.262 162.054 150.575 161.804 149.711C161.271 149.99 160.672 150.321 160.138 150.579L159.851 150.168C159.874 149.836 159.987 149.693 160.148 149.405C159.816 148.681 160.302 145.582 160.403 144.542C164.084 142.632 161.608 139.615 162.526 137.89C163.307 138.018 164.076 139.047 164.566 139.641C167.762 143.51 166.095 148.073 167.438 152.512C167.083 153.911 165.122 157.525 165.567 158.534L166.392 158.424C166.948 158.945 165.839 160.547 166.425 161.655C168.909 161.159 174.779 135.857 176.1 132.53C177.286 129.543 181.033 123.205 182.751 120.699C183.349 120.872 183.279 121.019 183.69 121.656L184.498 120.929C184.632 119.376 185.584 116.512 187.532 116.609C191.037 118.976 183.28 131.473 182.435 134.956C181.595 138.419 180.746 143.142 179.623 146.389L179.569 146.543L179.776 146.961C184.553 146.892 185.105 133.887 186.442 131.576C188.41 128.175 190.88 118.989 192.809 116.263L193.059 116.312L193.202 117.104L194.294 116.988Z" fill="#FEFEFE"/>
<path d="M161.852 238C163.925 237.191 170.864 237.693 173.481 237.412C174.473 236.77 173.731 233.166 175.751 232.65C178.098 233.707 176.084 236.013 176.841 237.465C176.573 237.647 176.353 237.779 176.114 238H161.852Z" fill="#DE516C"/>
<path d="M199.996 121.264C200.174 120.782 200.583 120.675 201.117 120.345C201.497 123.743 202.706 122.08 203.437 123.724C202.491 124.943 200.208 123.576 200.016 121.51C200.009 121.428 200.002 121.346 199.996 121.264Z" fill="#DE516C"/>
<path d="M194.294 116.988L194.457 117.1C196.071 118.193 196.39 116.993 197.601 117.728C196.88 119.67 194.092 119.419 193.202 117.104L194.294 116.988Z" fill="#DE516C"/>
<path d="M208.705 132.478C209.083 131.872 209.342 131.711 209.887 131.282C209.977 135.271 211.417 134.117 211.697 135.634C210.072 136.343 208.652 134.068 208.705 132.478Z" fill="#DE516C"/>
<path d="M184.498 120.929C185.624 121.176 185.853 121.04 186.615 121.745L186.575 122.224C185.57 122.928 184.494 122.393 183.69 121.656L184.498 120.929Z" fill="#DE516C"/>
<path d="M160.148 149.405C160.831 149.139 161.274 148.904 162.01 149.002L162.114 149.297L161.804 149.711C161.272 149.991 160.672 150.322 160.138 150.579L159.851 150.168C159.874 149.836 159.987 149.693 160.148 149.405Z" fill="#DE516C"/>
<path d="M167.078 173.124C169.187 173.526 170.392 176.794 170.518 178.668C170.61 180.029 170.423 180.476 169.84 181.691C169.474 181.909 169.572 181.84 169.085 181.841C168.344 180.999 166.718 174.34 167.078 173.124Z" fill="#DE516C"/>
<path d="M183.274 149.087L183.737 149.494C183.994 150.822 184.717 153.931 184.362 155.191C184.277 155.491 183.965 155.505 183.617 155.621C181.326 153.337 180.786 151.484 183.274 149.087Z" fill="#DE516C"/>
<path d="M179.264 231.576C179.69 231.646 179.776 231.74 180.125 231.98C180.738 233.396 180.123 235.185 179.16 236.296C176.976 235.225 178.265 232.936 179.264 231.576Z" fill="#DE516C"/>
<path d="M173.938 147.91C175.059 148.522 175.117 152.654 174.296 153.648C172.829 152.133 172.646 149.608 173.938 147.91Z" fill="#DE516C"/>
<path d="M177.416 225.253C177.751 225.325 178.071 225.504 178.384 225.655C179.453 226.975 179.074 228.238 178.222 229.543C175.928 229.161 176.878 226.6 177.416 225.253Z" fill="#DE516C"/>
<path d="M181.343 222.063C181.745 222.159 181.802 222.241 182.111 222.5C182.561 223.857 182.213 225.203 181.093 226.11C179.317 224.956 180.323 223.319 181.343 222.063Z" fill="#DE516C"/>
<path d="M196.076 174.4C198.315 174.788 197.974 176.574 197.401 178.196L196.645 177.946C195.525 176.872 195.458 175.745 196.076 174.4Z" fill="#DE516C"/>
<path d="M193.698 177.879L194.542 178.089C195.663 178.941 195.33 180.919 194.95 182.08C193.482 181.048 193.244 179.521 193.698 177.879Z" fill="#DE516C"/>
<path d="M182.454 157.417C183.351 157.92 183.136 157.646 183.589 158.506C183.688 159.473 183.251 160.354 182.896 161.267C182.281 161.041 182.222 160.993 181.845 160.455C181.49 159.181 181.825 158.563 182.454 157.417Z" fill="#DE516C"/>
<path d="M192.514 152.76C194.021 153.271 193.445 155.923 192.778 156.951C190.979 156.079 191.807 154.056 192.514 152.76Z" fill="#DE516C"/>
<path d="M191.043 181.792C191.512 181.835 191.613 181.905 192.052 182.096C192.892 183.093 192.74 183.911 192.665 185.18C191.772 185.223 191.839 185.229 191.269 184.674C190.894 183.838 191.017 182.732 191.043 181.792Z" fill="#DE516C"/>
<path d="M182.113 215.102L183.048 215.223C183.628 215.678 183.443 215.438 183.693 216.232C183.557 217.149 183.433 217.281 182.896 218.041C182.04 217.713 182.057 217.669 181.658 216.987C181.562 216.207 181.799 215.823 182.113 215.102Z" fill="#DE516C"/>
<path d="M164.699 168.936C166.479 169.34 166.938 170.373 166.44 172.022C164.96 171.477 164.451 170.454 164.699 168.936Z" fill="#DE516C"/>
<path d="M201.397 157.261C201.657 157.47 201.676 157.549 201.865 157.823C201.856 159.151 201.383 159.734 200.524 160.726L200.169 160.418C199.497 159.097 200.464 158.081 201.397 157.261Z" fill="#DE516C"/>
<path d="M179.577 212.744C180.458 213.18 180.324 212.961 180.777 213.712C180.86 214.488 180.411 215.12 180.035 215.828C179.198 215.453 179.209 215.33 178.919 214.652C178.963 213.702 179.081 213.56 179.577 212.744Z" fill="#DE516C"/>
<path d="M181.715 162.8C182.146 163.02 182.176 163.086 182.503 163.454C182.704 164.39 182.23 165.635 181.957 166.595C181.555 166.453 181.485 166.313 181.212 165.991C180.829 164.736 181.207 164.007 181.715 162.8Z" fill="#DE516C"/>
<path d="M177.389 132.061C178.956 131.952 180.094 132.084 180.937 133.475C179.611 133.454 178.009 133.364 177.389 132.061Z" fill="#DE516C"/>
<path d="M187.969 132.52C189.417 133.032 190.848 132.815 190.754 134.387C189.471 134.225 187.832 134.047 187.969 132.52Z" fill="#DE516C"/>
<path d="M197.735 137.802C198.845 138.458 199.773 138.904 199.998 140.249C199.152 139.987 198.42 139.845 197.793 139.225C197.465 138.442 197.539 138.722 197.735 137.802Z" fill="#DE516C"/>
<path d="M197.998 136.113C199.257 136.228 200.472 136.582 200.851 137.849C199.299 137.716 198.287 137.634 197.998 136.113Z" fill="#DE516C"/>
<path d="M180.68 169.109L181.084 169.431C181.398 170.165 181.09 170.912 180.886 171.714C180.399 171.488 180.425 171.501 180.124 171.051C179.986 170.339 180.36 169.765 180.68 169.109Z" fill="#DE516C"/>
<path d="M173.868 155.777C174.074 155.844 174.369 155.997 174.575 156.094C174.965 156.751 174.731 157.409 174.585 158.182L173.975 157.819C173.58 156.91 173.752 156.905 173.868 155.777Z" fill="#DE516C"/>
<path d="M161.803 149.711C162.054 150.575 161.853 150.262 162.656 150.862C161.609 150.81 160.79 151.738 159.682 151.417L159.655 150.969L160.138 150.579C160.672 150.321 161.271 149.99 161.803 149.711Z" fill="#FEFEFE"/>
<path d="M159.085 136.993C161.192 137.575 161.465 141.245 160.936 142.948L160.456 142.937C159.673 142.248 158.978 138.085 159.085 136.993Z" fill="#FEFEFE"/>
</g>
<defs>
<clipPath id="clip0_1317_966">
<rect width="246.367" height="238" fill="white"/>
</clipPath>
</defs>
</svg>
